<svg id="Group_10" data-name="Group 10" xmlns="http://www.w3.org/2000/svg" xmlns:xlink="http://www.w3.org/1999/xlink" width="16.72" height="19.177" viewBox="0 0 16.72 19.177">
  <defs>
    <clipPath id="clip-path">
      <rect id="Rectangle_6" data-name="Rectangle 6" width="16.72" height="19.177" fill="none"/>
    </clipPath>
  </defs>
  <g id="Group_9" data-name="Group 9" clip-path="url(#clip-path)">
    <path id="Path_32" data-name="Path 32" d="M.008,13.681c0-1.555-.006-3.109,0-4.664,0-.5-.016-1,.008-1.5C.027,7.347.005,7.167.013,6.99.029,6.58,0,6.17.006,5.76s0-.839,0-1.258,0-.83,0-1.245-.018-.831.008-1.244c.016-.252-.01-.5-.008-.75a.6.6,0,0,1,.038-.241A.154.154,0,0,0,.052.89a.976.976,0,0,1,0-.6A.336.336,0,0,1,.4.028C1.26,0,2.122-.007,2.982.013c.4.009.8-.008,1.2-.008q4.894,0,9.789,0a.954.954,0,0,1,.372.067.387.387,0,0,1,.219.38q0,.636,0,1.272,0,2.455,0,4.91c0,.038-.023.092.023.111s.07-.033.1-.062a2.756,2.756,0,0,0,.248-.289.225.225,0,0,1,.155-.125c.016,0,.043-.012.045-.023.056-.25.3-.361.422-.559a.129.129,0,0,1,.2-.044.041.041,0,0,0,.059,0c.076-.062.13-.01.175.04a1.544,1.544,0,0,1,.313.352c.031.067.112.04.164.084.076.066.121.157.217.21s.044.3-.067.322-.143.115-.187.181a3.455,3.455,0,0,1-.4.451,1.558,1.558,0,0,1-.224.211,1.08,1.08,0,0,0-.172.252,2.791,2.791,0,0,1-.343.386c-.049.053-.083.126-.14.165a.515.515,0,0,0-.186.242c0,.008-.011.018-.019.019-.189.034-.192.235-.306.338a.335.335,0,0,0-.067.27q0,3.283,0,6.565c0,.16,0,.319,0,.479,0,.027.01.069,0,.08-.134.107-.106.3-.25.415a8.156,8.156,0,0,0-.634.613c-.266.265-.53.532-.8.8-.192.192-.377.392-.58.57a4.645,4.645,0,0,0-.349.356.173.173,0,0,1-.182.06c-.068-.015-.147-.034-.2.058-.013.022-.085.015-.13.015H7.7q-3.492,0-6.984,0a1.121,1.121,0,0,1-.546-.116c-.092-.049-.1-.156-.134-.241a.52.52,0,0,1-.026-.188q0-2.476,0-4.951Zm2.343-1.587-.019-.029v-.846a.238.238,0,0,1,.308-.168c.121.025.262-.06.366.073a.078.078,0,0,0,.111-.017c.054-.121.137-.057.2-.027a.34.34,0,0,0,.311.011.358.358,0,0,1,.166-.039c.66,0,1.321-.014,1.98,0a11.976,11.976,0,0,1,1.978.054,1.193,1.193,0,0,0,.494-.084h.11c0,.048,0,.089.076.073a2.576,2.576,0,0,1,.647-.045c.056,0,.12-.025.154.061.017.044.1.016.1-.008.007-.08.059-.049.1-.054s.092.015.127-.027h.11c.022.029-.062.056-.005.082a.27.27,0,0,0,.278-.082h.055a.234.234,0,0,0,.251.081.677.677,0,0,1,.283-.056c.086.006.172,0,.258,0a.112.112,0,0,0,.139-.108.7.7,0,0,0,.15-.155,1.213,1.213,0,0,1,.257-.274c.1-.066.1-.184.183-.253.035-.029-.017-.056-.058-.059-.113-.007-.226-.022-.34-.021-.72.01-1.439-.011-2.159.012-.292.009-.588-.008-.883-.011-.536-.005-1.073,0-1.61,0H4.938c-.278,0-.556.022-.832.013-.532-.018-1.062-.012-1.593,0-.125,0-.178-.033-.179-.158,0-.251,0-.5,0-.752,0-.311-.047-.284.285-.284h9.258c.036,0,.073,0,.109,0,.082,0,.113.035.113.116a.29.29,0,0,0,.037.208c.038-.1-.006-.2.052-.279a1.889,1.889,0,0,1,.017.278c0,.031-.013.09.046.073a.508.508,0,0,0,.3-.214A2.027,2.027,0,0,1,13,8.634.644.644,0,0,0,13.2,8.4c.052-.154.2-.211.285-.336.115-.176.288-.307.287-.556-.008-2.17-.006-4.339-.006-6.509,0-.235,0-.237-.233-.23l-.041,0a2.337,2.337,0,0,0-.8-.056H9.229C9.136.7,9.069.793,8.97.772A1.233,1.233,0,0,1,8.695.727a.389.389,0,0,0-.3.019.6.6,0,0,1-.413.005.546.546,0,0,0-.376,0A1.072,1.072,0,0,1,7.078.717a7.264,7.264,0,0,0-1,.052c-.155-.005-.31,0-.465,0-.02-.093-.1-.053-.145-.053q-2.119,0-4.239,0a.206.206,0,0,0-.138.019c.027,0,.044.007.061.008C1.846.754,2.537.725,3.229.764c.33.018.663,0,1-.015A9.356,9.356,0,0,1,5.615.768c0,.009,0,.018,0,.026h-4.6A.134.134,0,0,0,.825.819v0L.8.85C.8.873.8.9.8.919c0,1.3.013,2.608,0,3.912S.872,7.438.74,8.739A4.073,4.073,0,0,0,.8,9.18q0,3.864,0,7.728c0,.442.013.883-.022,1.324-.007.089.01.159.131.158.378,0,.755,0,1.133.018.5.028,1.009-.02,1.513,0,.322.013.646,0,.969-.015.212-.009.424.01.639,0,.478-.018.958-.019,1.436,0a10.8,10.8,0,0,0,1.131,0,4.113,4.113,0,0,1,.6.005,7.753,7.753,0,0,0,.955.006,6.374,6.374,0,0,1,.735,0c.222.015.447.008.67,0,.068,0,.135-.042.116-.12a1.511,1.511,0,0,1,.009-.809.389.389,0,0,0,0-.162,1.731,1.731,0,0,1-.047-.23c0-.406-.012-.812.006-1.217a.321.321,0,0,1,.189-.316,1.152,1.152,0,0,1,.407-.069c.447.008.894,0,1.34,0a7.246,7.246,0,0,1,.941.02c.11.016.148-.037.131-.151a.831.831,0,0,1-.008-.122q0-2.551,0-5.1c0-.046,0-.091,0-.137,0-.063-.035-.072-.078-.038a.949.949,0,0,0-.1.108,1.394,1.394,0,0,1-.233.251c-.113.074-.122.253-.287.264,0,0-.008.015-.01.024a.874.874,0,0,1-.307.394c-.079.074-.213.089-.221.232,0,.01-.019.029-.024.027-.13-.041-.1.042-.091.113a.054.054,0,0,1-.017.036,5.614,5.614,0,0,1-.845.9.106.106,0,0,0-.031.057.7.7,0,0,1-.3.369.3.3,0,0,0-.132.148.2.2,0,0,1-.07.091,2.052,2.052,0,0,0-.307.338c-.08.111-.222.174-.256.319a.039.039,0,0,1-.034.019c-.122-.051-.087.053-.1.1s-.03.1-.093.118a.091.091,0,0,0-.067.043.5.5,0,0,1-.447.33.107.107,0,0,0-.06.029.211.211,0,0,1-.208.033.941.941,0,0,1-.408-.2c-.092-.085-.129-.212-.259-.278-.065-.033-.108-.147-.195-.213a.969.969,0,0,1-.2-.212c-.075-.111-.259-.169-.187-.374A.12.12,0,0,1,8.041,13c-.04-.061-.1-.1-.14-.151-.13-.171-.3-.3-.432-.47a.5.5,0,0,0-.543-.22,1.679,1.679,0,0,1-.554.043c-.168-.006-.334,0-.5,0-.778.008-1.556,0-2.333,0H2.554c-.044-.093-.13-.03-.193-.053l0-.031.011,0-.011-.01Zm8.616,3.965v2.169A.212.212,0,0,0,11,18.061c0-.378,0-.757,0-1.135a.475.475,0,0,1,.021-.175c.09-.236-.026-.46-.046-.69,0,0-.008,0-.013,0M1.091.563V.59h1.8c0-.009,0-.018,0-.027Zm9.95.029a5.941,5.941,0,0,0-1.459,0ZM4.184.563c0,.009,0,.019,0,.028H5.6q0-.014,0-.028ZM7.155.591c0-.013,0-.026,0-.039a2.582,2.582,0,0,0-.646.039ZM12.436.6a.579.579,0,0,0,.08,0c.036-.006.094.019.095-.044s-.056-.031-.087-.044A.121.121,0,0,0,12.458.5c-.059.014-.166.006-.165.056,0,.087.1.026.143.047m-1.6,15.458h-.015V17.1h.015ZM7.659.577a.386.386,0,0,0,.288,0,.423.423,0,0,0-.288,0m3.162,17.2a.141.141,0,0,0,0-.144.222.222,0,0,0,0,.144" transform="translate(-0.001 0)" fill="#8bcdec"/>
    <path id="Path_33" data-name="Path 33" d="M211.447,25.63c.053.057.145-.009.211.073-.126.012-.236.032-.346.033-.715,0-1.43.011-2.145,0a5.178,5.178,0,0,0-.7.005c-.164.019-.325-.042-.488-.024-.283.03-.568,0-.852.022-.116.008-.234-.021-.352-.022-.389,0-.779,0-1.168,0a4.2,4.2,0,0,1-.461.027c-.044,0-.092.014-.128-.028,0-.009,0-.018,0-.026h0c.155,0,.31,0,.465,0a7.259,7.259,0,0,1,1-.052,1.072,1.072,0,0,0,.528.038.546.546,0,0,1,.376,0,.6.6,0,0,0,.413-.005.389.389,0,0,1,.3-.019,1.234,1.234,0,0,0,.275.046c.1.021.166-.072.259-.057a1.49,1.49,0,0,0,.6,0h.114a.467.467,0,0,0,.324,0h.224c.024.029.057.024.088.024h.968c.031,0,.064,0,.088-.024h.415" transform="translate(-199.401 -24.915)" fill="#d5e8f6"/>
    <path id="Path_34" data-name="Path 34" d="M84.968,401.766a.57.57,0,0,0,0-.068c-.017-.118.027-.154.15-.154q2.6.006,5.193,0c.044,0,.092-.014.13.023a.063.063,0,0,0,.11,0,.463.463,0,0,1,.328,0,1.192,1.192,0,0,1-.494.084,11.981,11.981,0,0,0-1.978-.054c-.66-.017-1.32,0-1.98,0a.359.359,0,0,0-.166.039.34.34,0,0,1-.311-.011c-.059-.029-.142-.094-.2.027a.078.078,0,0,1-.111.017c-.1-.133-.245-.048-.366-.073a.238.238,0,0,0-.308.168" transform="translate(-82.636 -390.547)" fill="#d5e8f6"/>
    <path id="Path_35" data-name="Path 35" d="M44.4,25.857a9.356,9.356,0,0,0-1.391-.019c-.332.011-.665.034-1,.015-.692-.038-1.384-.01-2.076-.023-.017,0-.035,0-.061-.008a.206.206,0,0,1,.138-.019q2.119,0,4.239,0c.05,0,.125-.039.145.053Z" transform="translate(-38.785 -25.09)" fill="#d5e8f6"/>
    <path id="Path_36" data-name="Path 36" d="M400.518,586.484s.012,0,.013,0c.019.23.136.454.046.69a.474.474,0,0,0-.021.175c0,.378,0,.757,0,1.135a.212.212,0,0,1-.037.167Z" transform="translate(-389.551 -570.425)" fill="#d5e8f6"/>
    <path id="Path_37" data-name="Path 37" d="M39.827,20.55h1.8c0,.009,0,.018,0,.027h-1.8c0-.009,0-.018,0-.027" transform="translate(-38.736 -19.987)" fill="#d5e8f6"/>
    <path id="Path_38" data-name="Path 38" d="M450.525,25.97a1.484,1.484,0,0,1-.439.034,2.868,2.868,0,0,0-.584.008.234.234,0,0,1-.121,0c-.075-.027-.044-.06-.008-.095h.06a.393.393,0,0,0,.295,0,2.336,2.336,0,0,1,.8.056" transform="translate(-437.032 -25.198)" fill="#d5e8f6"/>
    <path id="Path_39" data-name="Path 39" d="M304.982,401.784c.016-.008.032-.022.048-.022q.554,0,1.107,0c.016,0,.032.015.048.022-.035.042-.084.021-.127.027s-.09-.026-.1.054c0,.024-.085.051-.1.008-.034-.086-.1-.059-.154-.061a2.576,2.576,0,0,0-.647.045c-.075.016-.073-.025-.076-.073" transform="translate(-296.631 -390.759)" fill="#d5e8f6"/>
    <path id="Path_40" data-name="Path 40" d="M351.365,19.992h-1.459a5.939,5.939,0,0,1,1.459,0" transform="translate(-340.325 -19.401)" fill="#d5e8f6"/>
    <path id="Path_41" data-name="Path 41" d="M152.764,20.552h1.412c0,.009,0,.019,0,.028h-1.412c0-.009,0-.019,0-.028" transform="translate(-148.581 -19.989)" fill="#d5e8f6"/>
    <path id="Path_42" data-name="Path 42" d="M364.913,399.809c.089-.051.186-.02.279-.024.136-.006.273,0,.409,0a.364.364,0,0,0,.243-.055.112.112,0,0,1-.139.108c-.085-.006-.172,0-.258,0a.677.677,0,0,0-.283.056.234.234,0,0,1-.251-.081" transform="translate(-354.921 -388.784)" fill="#d5e8f6"/>
    <path id="Path_43" data-name="Path 43" d="M238.331,20.088h-.646a2.581,2.581,0,0,1,.646-.039q0,.02,0,.039" transform="translate(-231.177 -19.497)" fill="#d5e8f6"/>
    <path id="Path_44" data-name="Path 44" d="M449.065,18.333c-.041-.021-.141.04-.143-.047,0-.05.106-.042.165-.056a.121.121,0,0,1,.065.015c.031.012.087-.007.087.044s-.059.038-.095.044a.579.579,0,0,1-.08,0" transform="translate(-436.63 -17.729)" fill="#d5e8f6"/>
    <path id="Path_45" data-name="Path 45" d="M352.043,401.593a.333.333,0,0,1,.273,0,.27.27,0,0,1-.278.082c-.056-.026.027-.053.005-.082" transform="translate(-342.379 -390.568)" fill="#d5e8f6"/>
    <path id="Path_46" data-name="Path 46" d="M279.7,20.108a.423.423,0,0,1,.288,0,.386.386,0,0,1-.288,0" transform="translate(-272.041 -19.531)" fill="#d5e8f6"/>
    <path id="Path_47" data-name="Path 47" d="M85.8,443.695c-.059,0-.117,0-.175,0-.036,0-.046-.024-.017-.053.063.023.149-.04.193.053" transform="translate(-83.245 -431.494)" fill="#d5e8f6"/>
    <path id="Path_48" data-name="Path 48" d="M30.322,27.926c-.058.054-.129.02-.193.026a.134.134,0,0,1,.193-.026" transform="translate(-29.304 -27.133)" fill="#d5e8f6"/>
    <path id="Path_49" data-name="Path 49" d="M86.017,442.006s0-.009,0-.014l.011.01-.011,0" transform="translate(-83.661 -429.89)" fill="#d5e8f6"/>
    <path id="Path_50" data-name="Path 50" d="M85.182,440.67l-.019-.029.019.029" transform="translate(-82.831 -428.576)" fill="#d5e8f6"/>
    <path id="Path_51" data-name="Path 51" d="M29.25,29.963l-.023.03.023-.03" transform="translate(-28.427 -29.143)" fill="#d5e8f6"/>
    <path id="Path_52" data-name="Path 52" d="M90.061,255.733h4.744c.17,0,.177.006.177.176,0,.219-.008.438,0,.656,0,.106-.069.183-.069.286,0,.054-.076.033-.117.033q-.907,0-1.814,0-3.862,0-7.724,0c-.092,0-.132-.016-.13-.117.005-.292,0-.583,0-.875,0-.111.033-.159.159-.159q2.385.007,4.771,0Zm-4.8.772a.579.579,0,0,0,.005-.353.323.323,0,0,0-.005.353" transform="translate(-82.8 -248.731)" fill="#8bcdec"/>
    <path id="Path_53" data-name="Path 53" d="M144.239,181.561h1.1c-.007.04-.081.021-.068.069s.064.04.1.041.09,0,.135,0,.067.012.087-.021-.033-.056-.042-.088h.44c.315,0,.629,0,.944,0,.1,0,.128.017.11.133a3.557,3.557,0,0,0-.042.693.287.287,0,0,0,.05.124c.073.139.037.2-.114.2h-8.043c-.182,0-.221-.011-.174-.185a7.536,7.536,0,0,0,.074-.867c.024-.159.1-.1.151-.1q2.606-.006,5.212,0h.083" transform="translate(-134.904 -176.583)" fill="#8bcdec"/>
    <path id="Path_54" data-name="Path 54" d="M378.689,180.772c.008.032.069.042.042.088s-.057.02-.087.021-.09,0-.135,0-.09.008-.1-.041.061-.029.068-.069a.219.219,0,0,1,.216,0" transform="translate(-368.042 -175.794)" fill="#d5e8f6"/>
    <path id="Path_55" data-name="Path 55" d="M285.074,402.583c-.037.041-.074.043-.11,0l.11,0" transform="translate(-277.161 -391.558)" fill="#8bcdec"/>
    <path id="Path_56" data-name="Path 56" d="M338,180.976h-.083a.048.048,0,0,1,.083,0" transform="translate(-328.66 -175.998)" fill="#d5e8f6"/>
    <path id="Path_57" data-name="Path 57" d="M403.875,181.449h-.029c.01-.014.019-.013.029,0" transform="translate(-392.789 -176.47)" fill="#d5e8f6"/>
    <path id="Path_58" data-name="Path 58" d="M396.878,181.429h-.029c.01-.013.019-.013.029,0" transform="translate(-385.983 -176.451)" fill="#d5e8f6"/>
    <path id="Path_59" data-name="Path 59" d="M88.249,271.381a.323.323,0,0,1,.005-.353.579.579,0,0,1-.005.353" transform="translate(-85.784 -263.607)" fill="#d5e8f6"/>
  </g>
</svg>
