<svg xmlns="http://www.w3.org/2000/svg" width="20.946" height="20.869" viewBox="0 0 20.946 20.869">
  <g id="category_on" data-name="category on" transform="translate(0.948 0.948)">
    <path id="Vector" d="M2656,6337h12.195c2.194,0,3.281,0,3.76.713s.043,1.726-.82,3.739l-.458,1.065c-.405.937-.607,1.406-1,1.672a3.564,3.564,0,0,1-1.938.266H2656" transform="translate(-2652.805 -6333.804)" fill="none" stroke="#effffa" stroke-width="1.5"/>
    <path id="Vector-2" data-name="Vector" d="M2671.106,6347.313h-8.52c-3.014,0-4.516,0-5.453-.937s-.937-2.439-.937-5.453v-2.791c0-1.48,0-2.215-.4-2.78s-1.108-.788-2.5-1.257l-.288-.1" transform="translate(-2653 -6334)" fill="rgba(0,0,0,0)" stroke="#effffa" stroke-linecap="round" stroke-width="1.5"/>
    <path id="Vector-3" data-name="Vector" d="M2660.2,6350.6a1.6,1.6,0,1,1-1.6-1.6A1.6,1.6,0,0,1,2660.2,6350.6Z" transform="translate(-2652.74 -6333.024)" fill="none" stroke="#effffa" stroke-width="1.5"/>
    <path id="Vector-4" data-name="Vector" d="M2669.2,6350.6a1.6,1.6,0,1,1-1.6-1.6A1.6,1.6,0,0,1,2669.2,6350.6Z" transform="translate(-2652.154 -6333.024)" fill="none" stroke="#effffa" stroke-width="1.5"/>
    <path id="Vector-5" data-name="Vector" d="M2662.2,6340H2659" transform="translate(-2652.609 -6333.61)" fill="rgba(0,0,0,0)" stroke="#effffa" stroke-linecap="round" stroke-width="1.5"/>
  </g>
</svg>
