<svg xmlns="http://www.w3.org/2000/svg" width="278.067" height="28.25" viewBox="0 0 278.067 28.25">
  <g id="Group_19641" data-name="Group 19641" transform="translate(-76 -97.25)">
    <g id="Icon" transform="translate(72.603 96.25)">
      <path id="Path_322" data-name="Path 322" d="M13.465,4.25A6.715,6.715,0,1,1,6.75,10.965,6.718,6.718,0,0,1,13.465,4.25Zm0,1.919a4.8,4.8,0,1,0,4.8,4.8A4.8,4.8,0,0,0,13.465,6.169Z" transform="translate(0.93 0.887)" fill="#4f5748" fill-rule="evenodd"/>
      <path id="Path_322_-_Outline" data-name="Path 322 - Outline" d="M13.515,4.05A6.965,6.965,0,1,1,6.55,11.015,6.973,6.973,0,0,1,13.515,4.05Zm0,13.43A6.465,6.465,0,1,0,7.05,11.015,6.472,6.472,0,0,0,13.515,17.48Zm0-11.512a5.047,5.047,0,1,1-5.047,5.047A5.052,5.052,0,0,1,13.515,5.969Zm0,9.593a4.547,4.547,0,1,0-4.547-4.547A4.552,4.552,0,0,0,13.515,15.562Z" transform="translate(0.88 0.837)" fill="#4f5748"/>
      <path id="Path_324" data-name="Path 324" d="M14.345,1.25A10.753,10.753,0,0,1,25.093,12a15.971,15.971,0,0,1-2.553,7.71,46.672,46.672,0,0,1-6.59,8.369l0,0a2.253,2.253,0,0,1-3.205,0l0,0a46.737,46.737,0,0,1-6.59-8.37A15.971,15.971,0,0,1,3.6,12,10.753,10.753,0,0,1,14.345,1.25Zm0,1.919A8.833,8.833,0,0,0,5.516,12,14.03,14.03,0,0,0,7.8,18.734a44.61,44.61,0,0,0,6.3,8,.337.337,0,0,0,.238.1.332.332,0,0,0,.237-.1,44.541,44.541,0,0,0,6.306-8A14.03,14.03,0,0,0,23.174,12a8.833,8.833,0,0,0-8.829-8.829Z" transform="translate(0.05 0.05)" fill="#4f5748" fill-rule="evenodd"/>
      <path id="Path_324_-_Outline" data-name="Path 324 - Outline" d="M14.4,1.05a11.01,11.01,0,0,1,11,11,15.947,15.947,0,0,1-2.588,7.837A46.681,46.681,0,0,1,16.179,28.3l0,0a2.5,2.5,0,0,1-3.56,0,46.794,46.794,0,0,1-6.63-8.422A15.947,15.947,0,0,1,3.4,12.048,11.01,11.01,0,0,1,14.4,1.05Zm0,27.5a2.016,2.016,0,0,0,1.425-.6,46.173,46.173,0,0,0,6.555-8.323,15.471,15.471,0,0,0,2.518-7.583,10.5,10.5,0,0,0-21,0,15.47,15.47,0,0,0,2.518,7.583,46.274,46.274,0,0,0,6.553,8.322A2.017,2.017,0,0,0,14.4,28.55Zm0-25.581a9.09,9.09,0,0,1,9.079,9.079,13.94,13.94,0,0,1-2.322,6.862,44.717,44.717,0,0,1-6.343,8.046.583.583,0,0,1-.83,0A44.811,44.811,0,0,1,7.637,18.91a13.94,13.94,0,0,1-2.322-6.862A9.09,9.09,0,0,1,14.4,2.969Zm0,23.663a.082.082,0,0,0,.058-.025,44.207,44.207,0,0,0,6.269-7.95,13.476,13.476,0,0,0,2.252-6.609,8.579,8.579,0,1,0-17.159,0,13.476,13.476,0,0,0,2.252,6.609,44.3,44.3,0,0,0,6.268,7.951A.086.086,0,0,0,14.4,26.631Z" fill="#4f5748"/>
    </g>
    <line id="Line_9" data-name="Line 9" x2="82.6" transform="translate(106.5 108.5)" fill="none" stroke="#edf0e8" stroke-linecap="round" stroke-width="1"/>
    <line id="Line_10" data-name="Line 10" x2="82.603" transform="translate(234.5 108.5)" fill="none" stroke="#edf0e8" stroke-linecap="round" stroke-width="1"/>
    <g id="Icon-2" data-name="Icon" transform="translate(197 96.5)">
      <path id="Path_325" data-name="Path 325" d="M18.932,12.25a6.682,6.682,0,1,1-6.682,6.682A6.684,6.684,0,0,1,18.932,12.25Zm0,1.909A4.773,4.773,0,1,0,23.7,18.932,4.774,4.774,0,0,0,18.932,14.159Z" transform="translate(3.068 3.068)" fill="#edf0e8" fill-rule="evenodd"/>
      <path id="Path_325_-_Outline" data-name="Path 325 - Outline" d="M19,12a7,7,0,1,1-7,7A7.008,7.008,0,0,1,19,12Zm0,13.364A6.364,6.364,0,1,0,12.636,19,6.371,6.371,0,0,0,19,25.364Zm0-11.455A5.091,5.091,0,1,1,13.909,19,5.1,5.1,0,0,1,19,13.909Zm0,9.545A4.455,4.455,0,1,0,14.545,19,4.46,4.46,0,0,0,19,23.455Z" transform="translate(3 3)" fill="#edf0e8"/>
      <path id="Path_326" data-name="Path 326" d="M16.25,16.2a.955.955,0,1,1,1.909,0V17.8h.955a.955.955,0,1,1,0,1.909H17.2a.955.955,0,0,1-.955-.955Z" transform="translate(4.159 3.886)" fill="#edf0e8" fill-rule="evenodd"/>
      <path id="Path_326_-_Outline" data-name="Path 326 - Outline" d="M17.273,15a1.274,1.274,0,0,1,1.273,1.273v1.273h.636a1.273,1.273,0,1,1,0,2.545H17.273A1.274,1.274,0,0,1,16,18.818V16.273A1.274,1.274,0,0,1,17.273,15Zm1.909,4.455a.636.636,0,1,0,0-1.273H17.909V16.273a.636.636,0,1,0-1.273,0v2.545a.637.637,0,0,0,.636.636Z" transform="translate(4.091 3.818)" fill="#edf0e8"/>
      <path id="Path_327" data-name="Path 327" d="M28.614,14.386a.955.955,0,1,1-1.909,0V8.023a2.863,2.863,0,0,0-2.864-2.864H6.023A2.863,2.863,0,0,0,3.159,8.023V23.3a2.863,2.863,0,0,0,2.864,2.864h8.909a.955.955,0,1,1,0,1.909H6.023A4.773,4.773,0,0,1,1.25,23.3V8.023A4.773,4.773,0,0,1,6.023,3.25H23.841a4.773,4.773,0,0,1,4.773,4.773Z" transform="translate(0.068 0.614)" fill="#edf0e8" fill-rule="evenodd"/>
      <path id="Path_327_-_Outline" data-name="Path 327 - Outline" d="M6.091,3H23.909A5.1,5.1,0,0,1,29,8.091v6.364a1.273,1.273,0,1,1-2.545,0V8.091a2.548,2.548,0,0,0-2.545-2.545H6.091A2.548,2.548,0,0,0,3.545,8.091V23.364a2.548,2.548,0,0,0,2.545,2.545H15a1.273,1.273,0,0,1,0,2.545H6.091A5.1,5.1,0,0,1,1,23.364V8.091A5.1,5.1,0,0,1,6.091,3ZM27.727,15.091a.637.637,0,0,0,.636-.636V8.091a4.46,4.46,0,0,0-4.455-4.455H6.091A4.46,4.46,0,0,0,1.636,8.091V23.364a4.46,4.46,0,0,0,4.455,4.455H15a.636.636,0,1,0,0-1.273H6.091a3.185,3.185,0,0,1-3.182-3.182V8.091A3.185,3.185,0,0,1,6.091,4.909H23.909a3.185,3.185,0,0,1,3.182,3.182v6.364A.637.637,0,0,0,27.727,15.091Z" transform="translate(0 0.545)" fill="#edf0e8"/>
      <path id="Path_328" data-name="Path 328" d="M13.159,4.75a.955.955,0,1,1-1.909,0V2.2a.955.955,0,1,1,1.909,0Z" transform="translate(2.795 0.068)" fill="#edf0e8" fill-rule="evenodd"/>
      <path id="Path_328_-_Outline" data-name="Path 328 - Outline" d="M12.273,6.091A1.274,1.274,0,0,1,11,4.818V2.273a1.273,1.273,0,1,1,2.545,0V4.818A1.274,1.274,0,0,1,12.273,6.091Zm0-4.455a.637.637,0,0,0-.636.636V4.818a.636.636,0,0,0,1.273,0V2.273A.637.637,0,0,0,12.273,1.636Z" transform="translate(2.727)" fill="#edf0e8"/>
      <path id="Path_329" data-name="Path 329" d="M18.659,4.75a.955.955,0,1,1-1.909,0V2.2a.955.955,0,1,1,1.909,0Z" transform="translate(4.295 0.068)" fill="#edf0e8" fill-rule="evenodd"/>
      <path id="Path_329_-_Outline" data-name="Path 329 - Outline" d="M17.773,6.091A1.274,1.274,0,0,1,16.5,4.818V2.273a1.273,1.273,0,1,1,2.545,0V4.818A1.274,1.274,0,0,1,17.773,6.091Zm0-4.455a.637.637,0,0,0-.636.636V4.818a.636.636,0,1,0,1.273,0V2.273A.637.637,0,0,0,17.773,1.636Z" transform="translate(4.227)" fill="#edf0e8"/>
      <path id="Path_330" data-name="Path 330" d="M7.659,4.75a.955.955,0,0,1-1.909,0V2.2a.955.955,0,0,1,1.909,0Z" transform="translate(1.295 0.068)" fill="#edf0e8" fill-rule="evenodd"/>
      <path id="Path_330_-_Outline" data-name="Path 330 - Outline" d="M6.773,6.091A1.274,1.274,0,0,1,5.5,4.818V2.273a1.273,1.273,0,1,1,2.545,0V4.818A1.274,1.274,0,0,1,6.773,6.091Zm0-4.455a.637.637,0,0,0-.636.636V4.818a.636.636,0,0,0,1.273,0V2.273A.637.637,0,0,0,6.773,1.636Z" transform="translate(1.227)" fill="#edf0e8"/>
      <circle id="Ellipse_21" data-name="Ellipse 21" cx="1.273" cy="1.273" r="1.273" transform="translate(6.091 9.273)" fill="#edf0e8"/>
      <path id="Ellipse_21_-_Outline" data-name="Ellipse 21 - Outline" d="M1.341-.25A1.591,1.591,0,1,1-.25,1.341,1.593,1.593,0,0,1,1.341-.25Zm0,2.545a.955.955,0,1,0-.955-.955A.956.956,0,0,0,1.341,2.3Z" transform="translate(6.023 9.205)" fill="#edf0e8"/>
      <circle id="Ellipse_22" data-name="Ellipse 22" cx="1.273" cy="1.273" r="1.273" transform="translate(11.182 9.273)" fill="#edf0e8"/>
      <path id="Ellipse_22_-_Outline" data-name="Ellipse 22 - Outline" d="M1.341-.25A1.591,1.591,0,1,1-.25,1.341,1.593,1.593,0,0,1,1.341-.25Zm0,2.545a.955.955,0,1,0-.955-.955A.956.956,0,0,0,1.341,2.3Z" transform="translate(11.114 9.205)" fill="#edf0e8"/>
      <circle id="Ellipse_23" data-name="Ellipse 23" cx="1.273" cy="1.273" r="1.273" transform="translate(16.273 9.273)" fill="#edf0e8"/>
      <path id="Ellipse_23_-_Outline" data-name="Ellipse 23 - Outline" d="M1.341-.25A1.591,1.591,0,1,1-.25,1.341,1.593,1.593,0,0,1,1.341-.25Zm0,2.545a.955.955,0,1,0-.955-.955A.956.956,0,0,0,1.341,2.3Z" transform="translate(16.205 9.205)" fill="#edf0e8"/>
      <circle id="Ellipse_24" data-name="Ellipse 24" cx="1.273" cy="1.273" r="1.273" transform="translate(21.364 9.273)" fill="#edf0e8"/>
      <path id="Ellipse_24_-_Outline" data-name="Ellipse 24 - Outline" d="M1.341-.25A1.591,1.591,0,1,1-.25,1.341,1.593,1.593,0,0,1,1.341-.25Zm0,2.545a.955.955,0,1,0-.955-.955A.956.956,0,0,0,1.341,2.3Z" transform="translate(21.295 9.205)" fill="#edf0e8"/>
      <circle id="Ellipse_25" data-name="Ellipse 25" cx="1.273" cy="1.273" r="1.273" transform="translate(6.091 15)" fill="#edf0e8"/>
      <path id="Ellipse_25_-_Outline" data-name="Ellipse 25 - Outline" d="M1.341-.25A1.591,1.591,0,1,1-.25,1.341,1.593,1.593,0,0,1,1.341-.25Zm0,2.545a.955.955,0,1,0-.955-.955A.956.956,0,0,0,1.341,2.3Z" transform="translate(6.023 14.932)" fill="#edf0e8"/>
      <circle id="Ellipse_26" data-name="Ellipse 26" cx="1.273" cy="1.273" r="1.273" transform="translate(11.182 15)" fill="#edf0e8"/>
      <path id="Ellipse_26_-_Outline" data-name="Ellipse 26 - Outline" d="M1.341-.25A1.591,1.591,0,1,1-.25,1.341,1.593,1.593,0,0,1,1.341-.25Zm0,2.545a.955.955,0,1,0-.955-.955A.956.956,0,0,0,1.341,2.3Z" transform="translate(11.114 14.932)" fill="#edf0e8"/>
      <circle id="Ellipse_27" data-name="Ellipse 27" cx="1.273" cy="1.273" r="1.273" transform="translate(6.091 20.727)" fill="#edf0e8"/>
      <path id="Ellipse_27_-_Outline" data-name="Ellipse 27 - Outline" d="M1.341-.25A1.591,1.591,0,1,1-.25,1.341,1.593,1.593,0,0,1,1.341-.25Zm0,2.545a.955.955,0,1,0-.955-.955A.956.956,0,0,0,1.341,2.3Z" transform="translate(6.023 20.659)" fill="#edf0e8"/>
      <circle id="Ellipse_28" data-name="Ellipse 28" cx="1.273" cy="1.273" r="1.273" transform="translate(11.182 20.727)" fill="#edf0e8"/>
      <path id="Ellipse_28_-_Outline" data-name="Ellipse 28 - Outline" d="M1.341-.25A1.591,1.591,0,1,1-.25,1.341,1.593,1.593,0,0,1,1.341-.25Zm0,2.545a.955.955,0,1,0-.955-.955A.956.956,0,0,0,1.341,2.3Z" transform="translate(11.114 20.659)" fill="#edf0e8"/>
    </g>
    <g id="atm-card" transform="translate(324.06 95.851)">
      <g id="Group_121" data-name="Group 121" transform="translate(2.075 5.739)">
        <path id="Path_331" data-name="Path 331" d="M14.07,9.627a.959.959,0,0,1-.33-.053L5.991,6.868a.994.994,0,1,1,.66-1.875L14.4,7.7a.991.991,0,0,1-.33,1.927Z" transform="translate(-0.671 -4.607)" fill="#edf0e8"/>
        <path id="Path_331_-_Outline" data-name="Path 331 - Outline" d="M14.15,10.037a1.272,1.272,0,0,1-.442-.072L5.963,7.26a1.316,1.316,0,0,1-.81-1.688,1.32,1.32,0,0,1,1.688-.81l7.749,2.706a1.321,1.321,0,0,1-.439,2.569ZM6.4,5.347a.664.664,0,0,0-.215,1.291l7.753,2.708a.637.637,0,0,0,.214.032.661.661,0,0,0,.219-1.287L6.623,5.386A.679.679,0,0,0,6.4,5.347Z" transform="translate(-0.751 -4.687)" fill="#edf0e8"/>
        <path id="Path_332" data-name="Path 332" d="M21.63,12.266a.959.959,0,0,1-.33-.053l-2.429-.845a.991.991,0,0,1,.647-1.875l2.429.845a.991.991,0,0,1-.33,1.927Z" transform="translate(3.451 -3.166)" fill="#edf0e8"/>
        <path id="Path_332_-_Outline" data-name="Path 332 - Outline" d="M21.71,12.676H21.7a1.264,1.264,0,0,1-.429-.072l-2.426-.844a1.324,1.324,0,0,1,.433-2.574,1.257,1.257,0,0,1,.436.078l2.423.843a1.321,1.321,0,0,1-.425,2.569Zm-2.434-2.83a.675.675,0,0,0-.622.446.661.661,0,0,0,.408.845l2.433.846a.629.629,0,0,0,.207.032.661.661,0,0,0,.213-1.287L19.49,9.886A.609.609,0,0,0,19.276,9.847Z" transform="translate(3.371 -3.246)" fill="#edf0e8"/>
        <path id="Path_333" data-name="Path 333" d="M23.633,13.3H3.04a.99.99,0,1,1,0-1.98H23.633a.99.99,0,1,1,0,1.98Z" transform="translate(-1.72 -2.563)" fill="#edf0e8"/>
        <path id="Path_333_-_Outline" data-name="Path 333 - Outline" d="M23.713,13.71H3.12a1.32,1.32,0,1,1,0-2.64H23.713a1.32,1.32,0,1,1,0,2.64ZM3.12,11.73a.66.66,0,1,0,0,1.32H23.713a.66.66,0,1,0,0-1.32Z" transform="translate(-1.8 -2.643)" fill="#edf0e8"/>
      </g>
      <path id="Path_334" data-name="Path 334" d="M24.3,23.366a.965.965,0,0,1-.581-.2.991.991,0,0,1-.211-1.386,4.361,4.361,0,0,0,.568-1.069L26.62,13.4a4.321,4.321,0,0,0-2.64-5.478L12.336,3.881a4.179,4.179,0,0,0-3.261.185A4.316,4.316,0,0,0,6.885,6.521L5.5,10.482a.994.994,0,1,1-1.875-.66L5.01,5.861A6.264,6.264,0,0,1,13,2.007l11.63,4.053a6.273,6.273,0,0,1,3.855,7.987l-2.548,7.313a6.336,6.336,0,0,1-.832,1.6A1.013,1.013,0,0,1,24.3,23.366Z" transform="translate(0.841 0.08)" fill="#edf0e8"/>
      <path id="Path_334_-_Outline" data-name="Path 334 - Outline" d="M24.377,23.776a1.29,1.29,0,0,1-.782-.266,1.318,1.318,0,0,1-.276-1.843,4.031,4.031,0,0,0,.523-.987l2.546-7.309a3.99,3.99,0,0,0-2.439-5.059L12.309,4.273A3.911,3.911,0,0,0,11,4.045a3.854,3.854,0,0,0-1.7.4A3.988,3.988,0,0,0,7.276,6.711L5.89,10.671a1.334,1.334,0,0,1-1.25.886,1.3,1.3,0,0,1-.44-.077,1.316,1.316,0,0,1-.807-1.687l1.386-3.96a6.574,6.574,0,0,1,8.408-4.057L24.815,5.828a6.6,6.6,0,0,1,4.057,8.408l-2.547,7.312a6.615,6.615,0,0,1-.873,1.678l-.006.008A1.346,1.346,0,0,1,24.377,23.776ZM11,3.385a4.566,4.566,0,0,1,1.526.265L24.168,7.689a4.652,4.652,0,0,1,2.844,5.9l-2.551,7.322a4.686,4.686,0,0,1-.612,1.15.663.663,0,0,0,.146.925.637.637,0,0,0,.382.131.683.683,0,0,0,.538-.273,5.965,5.965,0,0,0,.786-1.51l2.548-7.315A5.943,5.943,0,0,0,24.6,6.451L12.968,2.4A5.934,5.934,0,0,0,5.4,6.05l-1.386,3.96a.662.662,0,0,0,.407.848.641.641,0,0,0,.217.038.671.671,0,0,0,.628-.446L6.653,6.492A4.645,4.645,0,0,1,9.012,3.849,4.509,4.509,0,0,1,11,3.385Z" transform="translate(0.76)" fill="#edf0e8"/>
      <path id="Path_335" data-name="Path 335" d="M19.777,27.28H7.46a6.276,6.276,0,0,1-6.27-6.27V13.26A6.276,6.276,0,0,1,7.46,6.99H19.777a6.276,6.276,0,0,1,6.27,6.27v7.749A6.276,6.276,0,0,1,19.777,27.28ZM7.46,8.97a4.3,4.3,0,0,0-4.29,4.29v7.749A4.3,4.3,0,0,0,7.46,25.3H19.777a4.3,4.3,0,0,0,4.29-4.29V13.26a4.3,4.3,0,0,0-4.29-4.29Z" transform="translate(0.08 1.79)" fill="#edf0e8"/>
      <path id="Path_335_-_Outline" data-name="Path 335 - Outline" d="M19.857,27.69H7.54a6.608,6.608,0,0,1-6.6-6.6V13.34a6.608,6.608,0,0,1,6.6-6.6H19.857a6.608,6.608,0,0,1,6.6,6.6v7.749A6.608,6.608,0,0,1,19.857,27.69ZM7.54,7.4A5.947,5.947,0,0,0,1.6,13.34v7.749a5.947,5.947,0,0,0,5.94,5.94H19.857a5.947,5.947,0,0,0,5.94-5.94V13.34a5.947,5.947,0,0,0-5.94-5.94ZM19.857,25.71H7.54a4.626,4.626,0,0,1-4.62-4.62V13.34A4.626,4.626,0,0,1,7.54,8.72H19.857a4.626,4.626,0,0,1,4.62,4.62v7.749A4.626,4.626,0,0,1,19.857,25.71ZM7.54,9.38a3.965,3.965,0,0,0-3.96,3.96v7.749a3.965,3.965,0,0,0,3.96,3.96H19.857a3.965,3.965,0,0,0,3.96-3.96V13.34a3.965,3.965,0,0,0-3.96-3.96Z" transform="translate(0 1.709)" fill="#edf0e8"/>
      <path id="Path_336" data-name="Path 336" d="M16.2,19.23H12.24a.99.99,0,1,1,0-1.98H16.2a.99.99,0,1,1,0,1.98Z" transform="translate(3.3 5.074)" fill="#edf0e8"/>
      <path id="Path_336_-_Outline" data-name="Path 336 - Outline" d="M16.28,19.64H12.32a1.32,1.32,0,1,1,0-2.64h3.96a1.32,1.32,0,1,1,0,2.64Zm-3.96-1.98a.66.66,0,1,0,0,1.32h3.96a.66.66,0,1,0,0-1.32Z" transform="translate(3.22 4.994)" fill="#edf0e8"/>
    </g>
  </g>
</svg>
