<svg id="Group_2" data-name="Group 2" xmlns="http://www.w3.org/2000/svg" xmlns:xlink="http://www.w3.org/1999/xlink" width="16.323" height="19.642" viewBox="0 0 16.323 19.642">
  <defs>
    <clipPath id="clip-path">
      <rect id="Rectangle_2" data-name="Rectangle 2" width="16.323" height="19.642" fill="none"/>
    </clipPath>
  </defs>
  <g id="Group_1" data-name="Group 1" clip-path="url(#clip-path)">
    <path id="Path_24" data-name="Path 24" d="M10.627,3.72a2.259,2.259,0,0,0-.134-.455,2.3,2.3,0,0,1,.332-2.124,2.472,2.472,0,0,1,2.4-1.126,2.58,2.58,0,0,1,2.273,2,2.41,2.41,0,0,1-.1,1.405,13.02,13.02,0,0,1-1.166,2.333c-.1.164-.1.188.041.34a8.089,8.089,0,0,1,1.96,4.124,8.71,8.71,0,0,1,.073,1.835,8.119,8.119,0,0,1-.237,1.489,8.171,8.171,0,0,1-2.208,3.789,8.173,8.173,0,0,1-2.888,1.814,7.677,7.677,0,0,1-1.459.383c-.309.047-.622.069-.934.1a7.074,7.074,0,0,1-1.7-.095A8.093,8.093,0,0,1,3.011,17.77a8.293,8.293,0,0,1-1.9-2.248,8.208,8.208,0,0,1-.832-2.075A7.663,7.663,0,0,1,.07,12.132a8.632,8.632,0,0,1-.02-.887,7.906,7.906,0,0,1,.3-1.932A7.565,7.565,0,0,1,.864,7.953a.159.159,0,0,0-.017-.164,11.48,11.48,0,0,1-.709-1.5A2.011,2.011,0,0,1,.435,4.3a2.058,2.058,0,0,1,1.616-.855,2.123,2.123,0,0,1,1.774.761.946.946,0,0,1,.135.171c.055.1.119.085.2.039a8.35,8.35,0,0,1,1.649-.712,7.534,7.534,0,0,1,1.626-.315,7.354,7.354,0,0,1,.884-.046,8.52,8.52,0,0,1,1.844.253c.149.04.3.077.464.119M12.962.766c-.072.005-.145.007-.217.017a1.8,1.8,0,0,0-1.2.68,1.661,1.661,0,0,0-.359,1.416,3.968,3.968,0,0,0,.344.931,20.838,20.838,0,0,0,1.379,2.414c.06.092.09.061.132-.005a19.892,19.892,0,0,0,1.482-2.668,2.56,2.56,0,0,0,.271-.964A1.843,1.843,0,0,0,12.962.766M2.171,11.877c-.4,0-.8,0-1.2,0-.1,0-.143.027-.13.131.032.261.045.525.094.783A7.541,7.541,0,0,0,1.95,15.41c.093.148.1.156.245.05a8.068,8.068,0,0,1,1.794-1c.1-.038.1-.083.069-.174a8.031,8.031,0,0,1-.407-1.352,7.3,7.3,0,0,1-.131-.887c-.009-.117-.04-.183-.187-.178-.387.013-.774,0-1.161,0M15.538,12c.038-.108-.042-.129-.174-.128-.775,0-1.549.008-2.324,0-.155,0-.181.067-.192.188-.016.19-.028.381-.06.568a7.885,7.885,0,0,1-.408,1.5c-.035.089-.029.136.073.174a9.068,9.068,0,0,1,1.934.962c.06.04.1.04.141-.033.072-.137.156-.267.226-.4a7.37,7.37,0,0,0,.6-1.617,8.057,8.057,0,0,0,.182-1.2M8.579,6.832h0c0,.666,0,1.331,0,2,0,.123.036.154.155.151.377-.01.752-.046,1.127-.084a11.616,11.616,0,0,0,1.47-.276c.083-.019.106-.045.062-.14a11.489,11.489,0,0,0-1.157-1.925A14.259,14.259,0,0,0,8.7,4.785c-.027-.027-.051-.08-.1-.062s-.023.073-.023.111q0,1,0,2m-.766-.143q0-.93,0-1.86c0-.038.02-.09-.028-.11s-.072.029-.1.056a12.565,12.565,0,0,0-.933,1A13.146,13.146,0,0,0,5.485,7.525c-.155.261-.29.535-.435.8-.049.091-.037.153.073.181.171.045.34.1.511.141A11.738,11.738,0,0,0,7.013,8.9a5.324,5.324,0,0,0,.665.055c.056,0,.111.005.113-.078,0-.136.021-.272.021-.408,0-.593,0-1.185,0-1.778M9.271,18.783a7.309,7.309,0,0,0,1.446-.368,7.489,7.489,0,0,0,1.319-.642,7.325,7.325,0,0,0,1.875-1.646c.134-.165.128-.182-.055-.3a8.847,8.847,0,0,0-1.637-.8c-.181-.068-.181-.067-.273.1-.021.04-.048.078-.069.118a12.976,12.976,0,0,1-2.23,3.046c-.129.134-.263.265-.394.4-.021.022-.053.045-.031.081s.04.012.05.009m4.937-7.672c.4,0,.793,0,1.19,0,.11,0,.143-.034.137-.141a6.95,6.95,0,0,0-.222-1.353,7.32,7.32,0,0,0-.6-1.533c-.051-.1-.091-.133-.2-.056a8.631,8.631,0,0,1-1.9.992c-.1.039-.132.079-.1.189a9.649,9.649,0,0,1,.247.976,7.3,7.3,0,0,1,.094.728c.012.185.022.2.195.2h1.162m-8.158.766H4.492c-.212,0-.226.016-.2.225a7.409,7.409,0,0,0,.487,1.918c.039.1.09.129.194.1.3-.091.613-.163.923-.229a11.537,11.537,0,0,1,1.764-.233c.113-.007.16-.039.158-.161-.006-.487-.007-.975,0-1.462,0-.133-.047-.16-.168-.158-.533.005-1.066,0-1.6,0m1.116,6.881c-.235-.282-.5-.51-.726-.767a15.858,15.858,0,0,1-1.15-1.435,10.752,10.752,0,0,1-.8-1.317c-.05-.1-.11-.122-.207-.075-.082.04-.167.072-.249.111a7.342,7.342,0,0,0-1.421.835c-.069.054-.089.094-.018.173a8.062,8.062,0,0,0,1.462,1.3,7.364,7.364,0,0,0,2.629,1.121,1.021,1.021,0,0,0,.478.052m3.166-6.881H8.706c-.066,0-.127-.008-.126.093,0,.524,0,1.047,0,1.571,0,.065.025.091.089.087a4.308,4.308,0,0,1,.585.03c.316.023.634.046.947.091a9.556,9.556,0,0,1,1.278.257c.089.025.136-.018.163-.1.066-.2.138-.394.2-.593a6.549,6.549,0,0,0,.244-1.307c.01-.1-.026-.133-.129-.132-.542,0-1.084,0-1.626,0m-1.751,4.44q0,.882,0,1.764c0,.043-.023.1.021.125s.075-.038.105-.067c.316-.3.614-.619.9-.949a12.81,12.81,0,0,0,1.577-2.268c.085-.156.068-.194-.107-.226-.383-.071-.764-.157-1.152-.2s-.759-.069-1.139-.1c-.2-.014-.205,0-.205.2q0,.862,0,1.723m-.767.016h0c0-.588,0-1.176,0-1.764,0-.127-.049-.164-.163-.145-.242.041-.487.045-.731.071a10.029,10.029,0,0,0-1.571.315c-.188.051-.191.058-.1.232A12.1,12.1,0,0,0,6.44,16.805,14.107,14.107,0,0,0,7.68,18.158c.029.027.056.075.1.059s.032-.079.032-.121q0-.882,0-1.764M1.385,8.69c-.033.063-.054.1-.069.136s-.026.087-.042.129a7.481,7.481,0,0,0-.436,1.986c-.012.128.021.173.159.172q1.175-.01,2.35,0c.13,0,.166-.05.172-.163A6.179,6.179,0,0,1,3.68,9.9a7.58,7.58,0,0,1,.241-.835c.023-.065.072-.149-.04-.2a5.933,5.933,0,0,1-.712-.34c-.084-.048-.118-.02-.159.043q-.2.309-.4.618c-.045.068-.088.138-.136.2a.389.389,0,0,1-.62-.013c-.155-.222-.3-.45-.468-.7m4.651,2.42c.542,0,1.084,0,1.626,0,.092,0,.151-.019.15-.124q0-.56,0-1.121c0-.08-.031-.127-.118-.134-.154-.012-.307-.031-.46-.044-.343-.029-.685-.071-1.024-.132A11.346,11.346,0,0,1,4.8,9.207c-.084-.027-.123,0-.15.084a6.958,6.958,0,0,0-.362,1.671c-.009.108.016.153.137.151.537-.006,1.075,0,1.613,0m4.283,0H11.9c.182,0,.195,0,.177-.188a6.331,6.331,0,0,0-.322-1.513c-.033-.093-.092-.083-.163-.065-.276.071-.553.137-.834.189a11.229,11.229,0,0,1-2.027.207c-.12,0-.158.038-.156.157.006.355.008.711,0,1.066,0,.126.042.151.156.149.528-.005,1.057,0,1.585,0M9.237,4.224c.419.42.8.834,1.158,1.27a12.464,12.464,0,0,1,.969,1.333,10.622,10.622,0,0,1,.775,1.439c.027.065.06.094.135.06.095-.044.194-.077.291-.115A7.1,7.1,0,0,0,14.1,7.382c.092-.066.11-.127.04-.225a4.156,4.156,0,0,0-.351-.434c-.072-.076-.116-.082-.174.014-.085.14-.178.275-.273.408a.651.651,0,0,1-.156.187A.386.386,0,0,1,12.63,7.2a26.019,26.019,0,0,1-1.443-2.344.309.309,0,0,0-.171-.161,8.122,8.122,0,0,0-1.3-.408,1.442,1.442,0,0,0-.481-.06M7.014,4.216c-.233.055-.474.1-.712.158a7.43,7.43,0,0,0-1.877.786.2.2,0,0,0-.112.222,2.323,2.323,0,0,1-.206,1.142A11.515,11.515,0,0,1,3.529,7.7c-.045.081-.041.136.042.179a6.144,6.144,0,0,0,.592.28.1.1,0,0,0,.15-.061q.19-.407.414-.8A13.235,13.235,0,0,1,6.161,5.279c.285-.332.587-.647.887-.964.02-.021.058-.039.044-.077s-.047-.016-.078-.022M3.552,5.578a1.227,1.227,0,0,0-.377-.943,1.376,1.376,0,0,0-1.837-.149,1.3,1.3,0,0,0-.518,1.4A10.969,10.969,0,0,0,2.094,8.361c.066.1.094.086.153-.006A13.781,13.781,0,0,0,3.3,6.452a2.011,2.011,0,0,0,.252-.873" transform="translate(0 0)" fill="#8bcdec"/>
    <path id="Path_25" data-name="Path 25" d="M431.908,46.709a1.2,1.2,0,0,1-2.4.006,1.2,1.2,0,1,1,2.4-.006m-1.208-.653a.625.625,0,0,0-.645.632.655.655,0,1,0,.645-.632" transform="translate(-417.745 -44.249)" fill="#8bcdec"/>
    <path id="Path_26" data-name="Path 26" d="M42.722,163.006a1.03,1.03,0,0,1,1.005,1.016,1,1,0,0,1-1.02,1.026A1.021,1.021,0,0,1,41.681,164a1.035,1.035,0,0,1,1.041-.994m-.494,1.024a.477.477,0,1,0,.953,0,.477.477,0,0,0-.953,0" transform="translate(-40.539 -158.542)" fill="#8bcdec"/>
  </g>
</svg>
