<svg xmlns="http://www.w3.org/2000/svg" width="239" height="170.454" viewBox="0 0 239 170.454">
  <g id="square_logo" data-name="square logo" transform="translate(-96 -381)">
    <path id="Path_1" data-name="Path 1" d="M213.056,138.807h12.206a1.4,1.4,0,0,0,.176-.962q.006-5.161,0-10.323,0-3.3,0-6.6c0-.335-.025-.669-.036-.937a1.108,1.108,0,0,0-.131-.123.193.193,0,0,0-.089-.024q-8.975-.017-17.951-.031c-.186,0-.372.014-.557.031a.679.679,0,0,0-.177.075,1.89,1.89,0,0,0-.1.993c-.007,2.48,0,4.961-.006,7.441a2.516,2.516,0,0,1-.081,1,7.713,7.713,0,0,1-2.765.043,1.228,1.228,0,0,1-.132-.806q0-7.672,0-15.343c0-.37-.015-.739-.024-1.154a6.2,6.2,0,0,0-.664-.078c-1.023-.007-2.047,0-3.07,0h-1.067a4.827,4.827,0,0,1-.1-.663q-.008-6.089,0-12.179,0-2.789,0-5.578c0-.334.024-.667.04-1.047,1.075-.119,2.093-.032,3.106-.056s2.047,0,3.07,0,2.046.006,3.07.008q1.488,0,2.977,0c1.023,0,2.047,0,3.07-.012s2.034.07,3.086-.041c.03-.2.065-.345.071-.492.089-2.176.025-24.177-.076-24.973a2.446,2.446,0,0,0-.494-.1q-2.185-.023-4.371-.024-3.348,0-6.7,0c-2.108,0-4.216.008-6.324.008-.954,0-1.909-.014-2.881-.022a2.774,2.774,0,0,1-.115-1.053q-.006-6.5,0-13.009a3.6,3.6,0,0,1,.1-1.313,37.232,37.232,0,0,1,3.9-.072c1.27-.029,2.543.021,3.813,0,1.3-.02,2.593.05,3.941-.031a6.146,6.146,0,0,0,.076-.668c0-3.751,0-7.5.008-11.252a4.473,4.473,0,0,0-.268-1.542A35.88,35.88,0,0,0,205.554,33c-.015-.028-.028-.056-.04-.084a4,4,0,0,0-3.279-2.417,49.051,49.051,0,0,0-5.079-.557c-3.285-.185-6.571-.131-9.856-.088a7.319,7.319,0,0,1-4.15-1.137,7.011,7.011,0,0,1-.876-11.134,6.637,6.637,0,0,1,4.475-1.789c1.271-.02,2.542-.028,3.814-.039s2.541-.051,3.811-.021c1.61.038,3.22.136,4.83.2a37.993,37.993,0,0,1,4.98.617,23.25,23.25,0,0,1,6.427,2.1,15.061,15.061,0,0,1,5.377,4.63c.643.87,1.224,1.785,1.857,2.716.289-.031.432-.294.621-.472,1.557-1.466,3.075-2.975,4.667-4.4a79.263,79.263,0,0,1,9.3-7.106,84.412,84.412,0,0,1,8.939-5.143,86.1,86.1,0,0,1,9.23-3.926,84.451,84.451,0,0,1,9.717-2.834A63,63,0,0,1,266.808.923c2.03-.244,4.058-.525,6.1-.682A82.364,82.364,0,0,1,283.777.128c2.82.155,5.627.422,8.417.846a83.594,83.594,0,0,1,13.55,3.216,85.6,85.6,0,0,1,49.58,42.425,83.89,83.89,0,0,1,7.118,19.7,88.552,88.552,0,0,1,1.71,10.636,86.179,86.179,0,0,1,.325,11.888,84.75,84.75,0,0,1-8.19,33.056A85.451,85.451,0,0,1,305.9,166.243a82.578,82.578,0,0,1-10.338,2.676,86.931,86.931,0,0,1-10.876,1.373,94.783,94.783,0,0,1-9.67.074,76,76,0,0,1-8.415-.838,83.938,83.938,0,0,1-26.745-8.706A85.934,85.934,0,0,1,215.324,141.6c-.659-.741-1.283-1.513-1.919-2.274-.094-.113-.166-.244-.348-.516m103.169-14.96c.163-.128.265-.2.357-.281a20.819,20.819,0,0,0,3.078-3.471,30.877,30.877,0,0,0,4.423-9.37c.618-2.109,1.13-4.25,1.67-6.382q2.4-9.457,4.779-18.918c.909-3.6,1.811-7.21,2.727-10.812q1.694-6.664,3.406-13.324a15.754,15.754,0,0,0,.42-5.44,16.244,16.244,0,0,0-3.532-8.652,11.4,11.4,0,0,0-4.7-3.523,24.607,24.607,0,0,0-3.888-1.254,34.867,34.867,0,0,0-7.929-.871c-7.443,0-14.885-.026-22.328-.037-3.814-.006-7.628,0-11.441,0-4.124-.006-8.249-.023-12.373-.027q-9.443-.009-18.886-.008-5.72,0-11.441-.023-3.72-.006-7.441-.005c-.31,0-.621,0-.929.033a4.172,4.172,0,0,0-.556,8.208,6.819,6.819,0,0,0,1.473.153c3.442.014,6.884.009,10.327.01h14.327q4.233,0,8.465.007,4.465.009,8.93.025,4.7.01,9.4.013,5.954.006,11.908.011c2.17,0,4.341.02,6.511.023,2.139,0,4.278-.007,6.416-.008q1.627,0,3.254.012c1.239.011,2.478.034,3.717.048,1.58.018,3.161.019,4.741.058a13.783,13.783,0,0,1,1.756.181,6.958,6.958,0,0,1,5.9,6.772,10.865,10.865,0,0,1-.5,3.2c-.855,3.3-1.674,6.6-2.509,9.907q-2.313,9.144-4.627,18.287-2.265,8.964-4.521,17.929a29.647,29.647,0,0,1-2.586,7.047,13.432,13.432,0,0,1-3.771,4.543,7.033,7.033,0,0,1-4.98,1.69q-12.188,0-24.376,0-12.653,0-25.306-.013a22.876,22.876,0,0,1-4.8-.533,16.854,16.854,0,0,1-7.321-3.469,19.353,19.353,0,0,1-4.5-5.519,35.852,35.852,0,0,1-2.961-7.206c-.887-2.906-1.568-5.864-2.181-8.838q-1.8-8.74-4.131-17.354-2.445-9.061-4.828-18.138-2.389-9.028-4.756-18.061a73.511,73.511,0,0,0-2.931-9.1,29.09,29.09,0,0,0-3.4-6.278,13.076,13.076,0,0,0-5.623-4.432,23.858,23.858,0,0,0-5.464-1.465,49.071,49.071,0,0,0-7.6-.586q-3.535-.006-7.07.008a12.759,12.759,0,0,0-1.487.046,4.187,4.187,0,0,0-2.925,6.655A4.009,4.009,0,0,0,187.059,27c2.481-.019,4.962-.03,7.442-.012a50.208,50.208,0,0,1,7.319.56,14.49,14.49,0,0,1,2.873.752,4.736,4.736,0,0,1,2.4,1.831c.271.414.555.821.807,1.248a23.588,23.588,0,0,1,1.639,3.538,76.665,76.665,0,0,1,2.567,8.15c1.024,3.894,2.029,7.794,3.058,11.687q1.768,6.693,3.563,13.379c1.061,3.98,2.135,7.958,3.179,11.942.722,2.756,1.432,5.516,2.1,8.286,1,4.156,1.924,8.33,2.939,12.482a65.181,65.181,0,0,0,3.411,10.409,33.39,33.39,0,0,0,4.495,7.679,22.624,22.624,0,0,0,9.53,7.053,29.866,29.866,0,0,0,10.082,1.963c2.695.087,5.395.025,8.092.029q3.163,0,6.325.007,3.209,0,6.418,0,3.163,0,6.325,0c2.109,0,4.217.008,6.325.007,2.139,0,4.279-.008,6.418-.01q3.348,0,6.7,0c1.922,0,3.845-.024,5.767,0a3.843,3.843,0,0,1,3.185,1.64,3.952,3.952,0,0,1,.345,4.459,4,4,0,0,1-3.9,2.2c-.991-.023-1.982,0-2.973,0-.054,0-.108.051-.21.1.045.162.088.335.141.5A11.673,11.673,0,0,1,304,139.7a11.075,11.075,0,0,1-.6,4.393,4.615,4.615,0,0,0-.118.552c.308.016.552.038.8.04q1.3.007,2.605,0A12.559,12.559,0,0,0,317.037,125c-.245-.354-.494-.7-.812-1.155m-14.758,16.586a8.067,8.067,0,1,0-7.976,8.1,8.043,8.043,0,0,0,7.976-8.1m-36.342.023a8.077,8.077,0,1,0-8.014,8.083,8.068,8.068,0,0,0,8.014-8.083m18.35,4.136c-1.169-4.912-.683-5.273.026-8.24a3.146,3.146,0,0,0-.522-.089q-1.624-.011-3.249,0c-1.238.007-2.475.031-3.713.03s-2.475-.029-3.713-.034q-2.367-.009-4.734,0c-.2,0-.437-.064-.632.212.128.427.286.89.4,1.363a10.687,10.687,0,0,1-.253,6.128c-.065.193-.1.4-.149.6a1.275,1.275,0,0,0,.313.1q7.99.007,15.98,0a.8.8,0,0,0,.242-.082M208.442,107.36c2.46.007,4.806.01,7.159,0a2.06,2.06,0,0,0,.1-.415q.006-3.249,0-6.5a.794.794,0,0,0-.085-.246c-.069-.032-.123-.079-.177-.079q-3.064-.022-6.128-.035c-.215,0-.431.021-.646.036a.182.182,0,0,0-.086.031.91.91,0,0,0-.108.127,3.051,3.051,0,0,0-.058.477c.027,2.158-.036,4.317.034,6.606m38.7,28.983a1.4,1.4,0,0,0-.325-.079c-.959-.007-1.918-.024-2.876,0a4.59,4.59,0,0,0-2.382.665,4.188,4.188,0,0,0-.712,6.5,4.381,4.381,0,0,0,3.106,1.247c.928.016,1.857.005,2.786,0,.146,0,.315.029.392-.11-.212-.926-.464-1.816-.611-2.723a8.59,8.59,0,0,1,.006-2.776c.15-.9.4-1.792.616-2.731M235,149.746a1.151,1.151,0,0,0,.092-.292q.009-2.928,0-5.857a.813.813,0,0,0-.076-.243c-.072-.038-.125-.089-.178-.089-1.146-.016-2.293-.035-3.439-.035-.9,0-1.8.022-2.694.036a.168.168,0,0,0-.086.029.91.91,0,0,0-.105.13c-.006.089-.024.239-.024.389q-.006,2.789,0,5.577a1.609,1.609,0,0,0,.113.387c2,.083,3.977-.007,5.957.034a2.523,2.523,0,0,0,.439-.066" transform="translate(-29.548 381)" fill="#15afcf"/>
    <path id="Path_2" data-name="Path 2" d="M227.323,230.933h19.727a4.747,4.747,0,0,1,.083.626q.011,4.973.01,9.947c0,2.572.005,5.144,0,7.716a4.875,4.875,0,0,1-.08,1.4,3.1,3.1,0,0,1-.461.071q-9.524.008-19.049,0c-.051,0-.1-.06-.212-.128-.068-1.6-.021-3.233-.032-4.868s0-3.286,0-4.929q0-2.418,0-4.835c0-1.635-.019-3.271.014-5" transform="translate(-62.607 219.858)" fill="#15afcf"/>
    <path id="Path_3" data-name="Path 3" d="M144.055,229.195a3.2,3.2,0,0,1-.448.075q-9.3-.006-18.6-.022a.88.88,0,0,1-.25-.076c-.037-.066-.092-.12-.093-.174q-.015-9.332-.019-18.664a2.22,2.22,0,0,1,.088-.411c.241-.024.478-.067.714-.068q5.442-.006,10.884,0h7.592a1.538,1.538,0,0,1,.159,1.045q.013,5.813.005,11.626,0,2.837,0,5.673c0,.306-.019.612-.032,1" transform="translate(9.024 234.568)" fill="#15afcf"/>
    <path id="Path_4" data-name="Path 4" d="M289.984,405.242a4.1,4.1,0,0,1,.086.549q0,6.365-.021,12.73a.794.794,0,0,1-.076.24.945.945,0,0,1-.09.07.183.183,0,0,1-.083.033q-6.371.014-12.743.023a4,4,0,0,1-.46-.039c-.026,0-.048-.037-.13-.1a2.861,2.861,0,0,1-.046-.386c0-4.335,0-8.67,0-12.97a1.415,1.415,0,0,1,1.038-.179c2.6-.009,5.21-.005,7.815-.005,1.24,0,2.481,0,3.721,0,.305,0,.611.021.992.036" transform="translate(-96.88 98.262)" fill="#15afcf"/>
    <path id="Path_5" data-name="Path 5" d="M107.954,327.508H94.937c-.275-.3-.171-.662-.174-.986-.014-1.642-.005-3.284-.005-4.926q0-3.161,0-6.321c0-.3.019-.61.027-.858a.932.932,0,0,1,.111-.122.18.18,0,0,1,.088-.027c.836-.014,1.672-.038,2.508-.038q5.113,0,10.225.018a.459.459,0,0,1,.17.063,1.205,1.205,0,0,1,.14.1c.028,4.127,0,8.3.01,12.481a4.873,4.873,0,0,1-.084.613" transform="translate(29.887 161.735)" fill="#15afcf"/>
    <path id="Path_6" data-name="Path 6" d="M191.13,319.116c-1,.128-11.963.123-12.813-.007a2.533,2.533,0,0,1-.067-.419q0-5.993,0-11.986a2.792,2.792,0,0,1,.044-.329,2.526,2.526,0,0,1,.5-.1c1.547-.011,3.095-.009,4.643-.013,1.238,0,2.477-.011,3.715-.016,1.146,0,2.291-.013,3.436-.008a2.969,2.969,0,0,1,.524.092c.117.733.131,11.847.014,12.789" transform="translate(-28.379 167.315)" fill="#15afcf"/>
    <path id="Path_7" data-name="Path 7" d="M163.65,379.279c-.037-4.177-.01-8.286-.013-12.4a2.378,2.378,0,0,1,.078-.432,1.283,1.283,0,0,1,.3-.088q6.036,0,12.073.013a2.936,2.936,0,0,1,.4.06,4.18,4.18,0,0,1,.074.548q.006,5.851,0,11.7a4.2,4.2,0,0,1-.056.5c-.065.049-.088.071-.114.086a.183.183,0,0,1-.082.034q-6.084.013-12.167.022c-.12,0-.24-.024-.5-.052" transform="translate(-18.179 125.356)" fill="#15afcf"/>
    <path id="Path_8" data-name="Path 8" d="M220.04,130.413V117.828c.286-.276.612-.175.908-.176,2.663-.008,5.325,0,7.988,0,1.021,0,2.043,0,3.065,0,.242,0,.485.018.777.03a2.657,2.657,0,0,1,.089.466q.006,5.893,0,11.785c0,.148-.027.3-.048.506a20.127,20.127,0,0,1-2.51.061c-.866-.018-1.733,0-2.6,0l-2.507,0c-.867,0-1.734.019-2.6-.007a12.873,12.873,0,0,1-2.563-.074" transform="translate(-57.541 298.916)" fill="#15afcf"/>
    <path id="Path_9" data-name="Path 9" d="M8.429,197.76A4.6,4.6,0,0,1,9,197.689c4.018.029,8.037-.03,11.985.024a.847.847,0,0,1,.223.765q0,4.641,0,9.283,0,1.16-.007,2.32a3.873,3.873,0,0,1-.048.4c-.2.025-.377.062-.554.067-3.775.11-11.307.05-12.141-.095-.165-.852-.23-7.834-.11-12.13a5.2,5.2,0,0,1,.081-.566" transform="translate(90.218 243.055)" fill="#15afcf"/>
    <path id="Path_10" data-name="Path 10" d="M130.192,127.735c-.953.079-11.832.13-12.512-.04a2.28,2.28,0,0,1-.071-.411q-.007-5.622,0-11.244c0-.245.025-.49.041-.779a2.337,2.337,0,0,1,.445-.089q5.858-.006,11.716,0a2.453,2.453,0,0,1,.295.037,1.7,1.7,0,0,1,.141,1.068c.013,1.61.007,3.221.006,4.832q0,2.973-.006,5.947c0,.209-.031.418-.052.678" transform="translate(13.936 300.636)" fill="#15afcf"/>
    <path id="Path_11" data-name="Path 11" d="M28.29,347.533c0-3.518,0-6.985,0-10.452a2.784,2.784,0,0,1,.068-.409A5.6,5.6,0,0,1,29,336.6q2.884-.008,5.767,0,1.907,0,3.814.012c.211,0,.421.018.692.03.028.338.072.638.073.938q.008,4.507,0,9.015c0,.3-.033.61-.049.875a1.453,1.453,0,0,1-.117.094.177.177,0,0,1-.083.034q-5.209.011-10.418.017a2.544,2.544,0,0,1-.386-.079" transform="translate(76.26 146.128)" fill="#15afcf"/>
    <path id="Path_12" data-name="Path 12" d="M10.7,275.745c.148.995.127,9.948-.016,10.745-1.744.079-3.5.018-5.261.037s-3.525,0-5.329,0a2.975,2.975,0,0,1-.09-.487Q0,281.116,0,276.19a2.546,2.546,0,0,1,.069-.4c.234-.021.443-.056.651-.056,3.312-.006,6.624-.03,9.981.009" transform="translate(96 188.605)" fill="#15afcf"/>
    <path id="Path_13" data-name="Path 13" d="M112.328,377.9v10.64a4.449,4.449,0,0,1-.637.1c-.9.012-1.8.01-2.7.009q-3.208,0-6.415,0c-.3,0-.606-.033-.929-.052a1.947,1.947,0,0,1-.092-.392c0-3.4,0-6.806,0-10.256a3.825,3.825,0,0,1,.573-.094q4.742-.011,9.483-.009c.211,0,.422.033.718.057" transform="translate(25.137 117.347)" fill="#15afcf"/>
    <path id="Path_14" data-name="Path 14" d="M217.339,435.4a5.919,5.919,0,0,1-.607.063c-3.274-.019-6.548.024-9.762-.02a1.351,1.351,0,0,1-.121-.133.172.172,0,0,1-.03-.084q-.016-4.549-.028-9.1c0-.309,0-.619.013-.928a.573.573,0,0,1,.048-.178c.01-.026.038-.045.058-.067.864-.16,9.538-.162,10.407.008a2.45,2.45,0,0,1,.068.416q.005,4.782,0,9.564c0,.12-.025.241-.048.458" transform="translate(-48.297 84.558)" fill="#15afcf"/>
    <path id="Path_15" data-name="Path 15" d="M67.121,255.546H77.438a2.174,2.174,0,0,1,.124.506q.013,4.55.005,9.1c0,.272-.042.543-.063.8-.727.132-7.629.2-9.975.1a2.68,2.68,0,0,1-.429-.086c-.117-.946-.108-9.551.021-10.418" transform="translate(49.236 202.683)" fill="#15afcf"/>
    <path id="Path_16" data-name="Path 16" d="M241.493,478.056a1.132,1.132,0,0,1,.327-.1q4.365-.009,8.73,0a2.214,2.214,0,0,1,.492.128c.023,3.014.011,6.015,0,9.016a3.076,3.076,0,0,1-.059.431c-1.106.152-8.568.14-9.522-.015-.023-.2-.065-.408-.07-.619-.092-3.778-.045-8.014.1-8.84" transform="translate(-72.409 47.493)" fill="#15afcf"/>
    <path id="Path_17" data-name="Path 17" d="M82.231,182.291c.73-.117,7.934-.131,8.8-.019a2.659,2.659,0,0,1,.1.51q.01,3.9,0,7.808a3.023,3.023,0,0,1-.045.4,1.036,1.036,0,0,1-.118.1.2.2,0,0,1-.088.028c-.433.014-.866.036-1.3.036q-3.579,0-7.158-.017c-.056,0-.112-.045-.233-.1-.065-2.661-.007-5.351-.027-8.041a6.763,6.763,0,0,1,.066-.708" transform="translate(38.669 253.867)" fill="#15afcf"/>
    <path id="Path_18" data-name="Path 18" d="M188.66,171.347h-8.8a2.635,2.635,0,0,1-.117-.535q-.009-3.945,0-7.89c0-.12.026-.239.046-.415a18.624,18.624,0,0,1,2.949-.079c.96,0,1.919.01,2.879,0,.986-.013,1.97-.024,3,.034a19.482,19.482,0,0,1,.082,2.988c.021.959.018,1.919,0,2.878-.014.982.041,1.966-.042,3.021" transform="translate(-29.421 267.673)" fill="#15afcf"/>
    <path id="Path_19" data-name="Path 19" d="M141.134,443.22c-.144.064-.227.133-.31.134q-3.623.024-7.246.031c-.241,0-.482-.044-.75-.07a3.447,3.447,0,0,1-.09-.475c-.081-2.027-.024-6.994.092-7.748a1.833,1.833,0,0,1,.407-.09q3.717-.005,7.435.006a2.195,2.195,0,0,1,.387.076,4.352,4.352,0,0,1,.072.55c0,2.534,0,5.068,0,7.585" transform="translate(3.405 77.462)" fill="#15afcf"/>
    <path id="Path_20" data-name="Path 20" d="M178.993,106.123c2.657-.016,5.274-.032,7.93.009a16.048,16.048,0,0,1,.082,2.716q.015,1.3.011,2.6c0,.891-.013,1.782-.021,2.714a18.277,18.277,0,0,1-2.717.08c-.865.027-1.732.008-2.6.005-.894,0-1.787-.012-2.668-.018a67.446,67.446,0,0,1-.02-8.1" transform="translate(-28.821 306.961)" fill="#15afcf"/>
    <path id="Path_21" data-name="Path 21" d="M222.811,390.605c-.058-2.293-.008-4.548-.024-6.8a2.358,2.358,0,0,1,.075-.432,1.208,1.208,0,0,1,.3-.092q3.25-.01,6.5-.007a3.848,3.848,0,0,1,.487.064,2.29,2.29,0,0,1,.091.445q.008,3.249,0,6.5a2.464,2.464,0,0,1-.048.322,1.451,1.451,0,0,1-.4.118q-3.3,0-6.591-.019a2.246,2.246,0,0,1-.384-.094" transform="translate(-59.454 113.559)" fill="#15afcf"/>
    <path id="Path_22" data-name="Path 22" d="M61.131,400.94a3.5,3.5,0,0,1,.076.452c.074,1.931.026,6.012-.082,6.814a3.09,3.09,0,0,1-.51.082q-3.065.007-6.13,0c-.209,0-.419-.042-.662-.069a6.532,6.532,0,0,1-.079-.758c.028-2.158-.039-4.317.033-6.51a4.471,4.471,0,0,1,1.5-.127c.5-.006.99.013,1.486.014.464,0,.928-.009,1.393-.011.5,0,.99-.008,1.485,0a3.9,3.9,0,0,1,1.486.114" transform="translate(58.499 101.32)" fill="#15afcf"/>
    <path id="Path_23" data-name="Path 23" d="M179.037,478.4c-.043-2.251-.026-4.377-.008-6.568a27.386,27.386,0,0,1,3.263-.076c1.077.01,2.156-.056,3.272.052a3.352,3.352,0,0,1,.092.574c-.044,1.973.055,3.95-.049,5.949a7.045,7.045,0,0,1-1.611.061c-.558.014-1.116.013-1.674.014-.527,0-1.054,0-1.581-.005s-1.047,0-1.7,0" transform="translate(-28.911 51.824)" fill="#15afcf"/>
    <rect id="Rectangle_1" data-name="Rectangle 1" width="239" height="170.454" transform="translate(96 381)" fill="none"/>
  </g>
</svg>
