<svg xmlns="http://www.w3.org/2000/svg" width="27.338" height="34.628" viewBox="0 0 27.338 34.628">
  <path id="_" data-name="" d="M34.575,23.991a6.53,6.53,0,0,0,4.549-2.466A8.01,8.01,0,0,0,40.9,16.682,3.365,3.365,0,0,0,40.833,16,7.4,7.4,0,0,0,35.9,18.642a7.593,7.593,0,0,0-1.837,4.689,3.1,3.1,0,0,0,.064.616A2.4,2.4,0,0,0,34.575,23.991ZM29.235,50.628c2.072,0,2.99-1.431,5.574-1.431,2.627,0,3.2,1.387,5.51,1.387,2.264,0,3.78-2.157,5.211-4.271A19.684,19.684,0,0,0,47.838,41.4a7.581,7.581,0,0,1-4.485-7,7.879,7.879,0,0,1,3.609-6.6,7.809,7.809,0,0,0-6.642-3.434c-2.542,0-4.613,1.585-5.916,1.585-1.41,0-3.268-1.5-5.468-1.5-4.186,0-8.436,3.566-8.436,10.3a21.751,21.751,0,0,0,3.524,11.469C25.69,48.647,27.142,50.628,29.235,50.628Z" transform="translate(-20.5 -16)" fill="#1b4965"/>
</svg>
