<svg id="Group" xmlns="http://www.w3.org/2000/svg" width="24.365" height="24.364" viewBox="0 0 24.365 24.364">
  <path id="Vector" d="M0,0H24.365V24.365H0Z" fill="none"/>
  <path id="Vector-2" data-name="Vector" d="M2.03,14.213V2.03H0V0H3.046A1.015,1.015,0,0,1,4.061,1.015V13.2H16.688l2.03-8.122H6.091V3.046H20.02A1.015,1.015,0,0,1,21,4.307L18.466,14.459a1.015,1.015,0,0,1-.985.769H3.046A1.015,1.015,0,0,1,2.03,14.213Zm2.03,7.106A2.03,2.03,0,1,1,5.5,20.724,2.03,2.03,0,0,1,4.061,21.319Zm12.182,0a2.03,2.03,0,1,1,1.436-.595A2.03,2.03,0,0,1,16.243,21.319Z" transform="translate(2.03 2.03)" fill="#5fa8d3"/>
</svg>
