<svg xmlns="http://www.w3.org/2000/svg" width="18.211" height="20" viewBox="0 0 18.211 20">
  <g id="shopping-basket" transform="translate(-4.435 -0.026)">
    <path id="Path_272" data-name="Path 272" d="M21.833,39.86a3.857,3.857,0,0,0-2.841-1.36H8.089a3.7,3.7,0,0,0-2.841,1.36,3.6,3.6,0,0,0-.74,3.061l1.04,4.941a3.755,3.755,0,0,0,3.6,2.941h8.8a3.6,3.6,0,0,0,3.561-2.941l1.04-4.941A3.4,3.4,0,0,0,21.833,39.86ZM20.472,42.5l-1.04,4.941a1.576,1.576,0,0,1-1.58,1.26h-8.7a1.677,1.677,0,0,1-1.58-1.26L6.529,42.5a1.665,1.665,0,0,1,.32-1.36,1.519,1.519,0,0,1,1.26-.64H19.032a1.519,1.519,0,0,1,1.26.64,2.17,2.17,0,0,1,.18,1.36Z" transform="translate(0 -30.777)" fill="#838f77"/>
    <path id="Path_273" data-name="Path 273" d="M18.991,6.662h.2a1.017,1.017,0,0,0,1.04-.84L21.271,1.3a1.131,1.131,0,0,0-.74-1.26,1.1,1.1,0,0,0-1.26.84L18.231,5.4A1.037,1.037,0,0,0,18.991,6.662Z" transform="translate(-11.002 0)" fill="#838f77"/>
    <path id="Path_274" data-name="Path 274" d="M66.557,6.078a1.017,1.017,0,0,0,1.04.84h.2a1.01,1.01,0,0,0,.74-1.26L67.5,1.137a1.034,1.034,0,1,0-2,.52Z" transform="translate(-48.805 -0.256)" fill="#838f77"/>
    <path id="Path_275" data-name="Path 275" d="M46.34,61.1a.992.992,0,0,0-1.04,1.06v1.68a1.04,1.04,0,1,0,2.081,0V62.16A1.037,1.037,0,0,0,46.34,61.1Z" transform="translate(-32.69 -48.856)" fill="#838f77"/>
    <path id="Path_276" data-name="Path 276" d="M64.74,63.7a.992.992,0,0,0-1.04,1.06v.64a1.04,1.04,0,1,0,2.081,0v-.64A1.05,1.05,0,0,0,64.74,63.7Z" transform="translate(-47.409 -50.936)" fill="#838f77"/>
    <path id="Path_277" data-name="Path 277" d="M28.04,63.7A.992.992,0,0,0,27,64.76v.64a1.04,1.04,0,1,0,2.081,0v-.64A1.05,1.05,0,0,0,28.04,63.7Z" transform="translate(-18.051 -50.936)" fill="#838f77"/>
  </g>
</svg>
