<svg id="Group_8" data-name="Group 8" xmlns="http://www.w3.org/2000/svg" xmlns:xlink="http://www.w3.org/1999/xlink" width="25.521" height="7.522" viewBox="0 0 25.521 7.522">
  <defs>
    <clipPath id="clip-path">
      <rect id="Rectangle_5" data-name="Rectangle 5" width="25.521" height="7.522" fill="none"/>
    </clipPath>
  </defs>
  <g id="Group_7" data-name="Group 7" clip-path="url(#clip-path)">
    <path id="Path_29" data-name="Path 29" d="M337.945,3.768c.484.314.95.612,1.411.917.34.225.4.2.136.6s-.5.779-.753,1.169c-.122.192-.179.209-.372.088-.392-.246-.782-.5-1.172-.744-.038-.024-.075-.066-.121-.045s-.028.081-.028.124c0,.46,0,.921,0,1.381,0,.227-.037.266-.257.266h-1.6c-.2,0-.246-.043-.247-.249,0-.465,0-.93,0-1.395,0-.048.023-.116-.021-.141s-.093.036-.137.064c-.4.256-.794.513-1.193.766-.141.09-.2.082-.295-.063-.312-.468-.617-.94-.921-1.413a.182.182,0,0,1,.069-.28c.43-.28.863-.556,1.294-.834.069-.044.133-.1.2-.137.1-.057.08-.1,0-.155-.347-.224-.693-.449-1.039-.674-.156-.1-.311-.2-.47-.3a.163.163,0,0,1-.062-.245c.064-.115.138-.225.208-.336l.7-1.092c.1-.151.188-.167.354-.06l1.178.764c.037.024.073.073.118.044s.016-.076.016-.116c0-.465,0-.93,0-1.395,0-.224.04-.27.257-.271Q336,0,336.81,0c.182,0,.233.057.233.241,0,.474,0,.948,0,1.422,0,.043-.025.1.024.124s.081-.027.119-.051c.4-.257.8-.516,1.205-.77.163-.1.212-.091.321.074.185.28.365.564.548.846.116.179.234.357.348.538.088.14.074.2-.067.293q-.725.474-1.451.944c-.045.029-.087.064-.145.107" transform="translate(-323.232 0)" fill="#8acdec"/>
    <path id="Path_30" data-name="Path 30" d="M3.667,7.589c-.283,0-.565,0-.848,0-.148,0-.2-.049-.2-.2,0-.483,0-.966,0-1.45,0-.042.022-.1-.029-.124s-.082.018-.12.043c-.4.257-.793.515-1.191.769-.151.1-.232.077-.329-.072Q.516,5.888.085,5.217c-.134-.209-.117-.251.1-.387q.7-.446,1.4-.9c.139-.09.138-.1,0-.189L.133,2.8c-.142-.092-.164-.174-.073-.316Q.5,1.8.943,1.123c.121-.185.165-.192.349-.074q.59.38,1.18.759c.037.024.081.067.122.048s.026-.09.026-.136c0-.47,0-.939,0-1.409,0-.194.048-.242.241-.243H4.449c.225,0,.275.049.275.27,0,.465,0,.93,0,1.395,0,.042-.024.1.028.122s.073-.026.108-.048c.418-.266.837-.53,1.253-.8a.153.153,0,0,1,.242.052q.467.721.929,1.446c.08.126.056.2-.084.295-.431.28-.864.556-1.3.834-.042.027-.082.058-.123.085-.175.117-.175.117,0,.233.463.3.926.594,1.388.894.187.121.2.184.079.365-.295.453-.587.907-.884,1.358-.091.138-.174.15-.308.063L4.874,5.862c-.041-.026-.086-.077-.132-.051s-.017.084-.017.128c0,.36,0,.72,0,1.08a2.948,2.948,0,0,0-.006.366c.019.142-.055.2-.2.2H3.667" transform="translate(0 -0.067)" fill="#8acdec"/>
    <path id="Path_31" data-name="Path 31" d="M668.091,7.582c-.273,0-.547,0-.821,0-.163,0-.205-.037-.206-.2,0-.459,0-.918,0-1.377,0-.036,0-.073,0-.109-.006-.092-.027-.138-.131-.069-.4.264-.8.521-1.2.781-.174.114-.228.11-.343-.065-.308-.467-.61-.937-.912-1.407-.068-.106-.032-.2.093-.284l1.378-.883.091-.059c.088-.059.094-.109,0-.171-.471-.3-.938-.608-1.411-.907-.209-.132-.231-.2-.1-.4.29-.445.579-.891.871-1.335.106-.16.158-.168.323-.062.4.258.8.519,1.2.775.133.085.14.079.14-.086q0-.711,0-1.422c0-.191.043-.236.23-.237h1.628c.178,0,.224.047.225.228,0,.474,0,.948,0,1.422,0,.048-.021.111.034.137s.09-.027.131-.053l1.156-.748c.2-.128.257-.114.384.084q.422.661.845,1.322c.11.171.1.239-.064.348-.37.241-.742.476-1.114.714-.115.074-.229.148-.342.224s-.106.1,0,.175c.373.243.748.483,1.123.725.115.074.231.146.342.224.152.107.162.171.061.327q-.242.37-.483.741c-.133.206-.263.413-.4.618-.1.151-.18.167-.328.071l-1.176-.764c-.042-.027-.089-.076-.133-.057s-.041.094-.041.148q0,.7,0,1.395c0,.214-.027.24-.246.24h-.807" transform="translate(-646.25 -0.06)" fill="#8acdec"/>
  </g>
</svg>
