<svg id="Group_17396" data-name="Group 17396" xmlns="http://www.w3.org/2000/svg" xmlns:xlink="http://www.w3.org/1999/xlink" width="383" height="398.657" viewBox="0 0 383 398.657">
  <defs>
    <clipPath id="clip-path">
      <rect id="Rectangle_18041" data-name="Rectangle 18041" width="383" height="398.657" fill="none"/>
    </clipPath>
    <clipPath id="clip-path-3">
      <rect id="Rectangle_18040" data-name="Rectangle 18040" width="347.693" height="347.693" fill="none"/>
    </clipPath>
    <clipPath id="clip-path-4">
      <rect id="Rectangle_18031" data-name="Rectangle 18031" width="75.014" height="8.345" fill="none"/>
    </clipPath>
    <clipPath id="clip-path-5">
      <rect id="Rectangle_18032" data-name="Rectangle 18032" width="27.715" height="28.534" fill="none"/>
    </clipPath>
    <clipPath id="clip-path-6">
      <rect id="Rectangle_18033" data-name="Rectangle 18033" width="27.778" height="28.626" fill="none"/>
    </clipPath>
    <clipPath id="clip-path-7">
      <rect id="Rectangle_18034" data-name="Rectangle 18034" width="75.015" height="8.345" fill="none"/>
    </clipPath>
    <clipPath id="clip-path-8">
      <rect id="Rectangle_18035" data-name="Rectangle 18035" width="27.779" height="28.625" fill="none"/>
    </clipPath>
    <clipPath id="clip-path-9">
      <rect id="Rectangle_18036" data-name="Rectangle 18036" width="27.715" height="28.535" fill="none"/>
    </clipPath>
    <clipPath id="clip-path-10">
      <rect id="Rectangle_18037" data-name="Rectangle 18037" width="45.379" height="63.645" fill="none"/>
    </clipPath>
    <clipPath id="clip-path-11">
      <rect id="Rectangle_18038" data-name="Rectangle 18038" width="11.516" height="24.19" fill="none"/>
    </clipPath>
    <clipPath id="clip-path-12">
      <rect id="Rectangle_18039" data-name="Rectangle 18039" width="20.012" height="17.194" fill="none"/>
    </clipPath>
  </defs>
  <g id="Group_17395" data-name="Group 17395" clip-path="url(#clip-path)">
    <g id="Group_17365" data-name="Group 17365">
      <g id="Group_17364" data-name="Group 17364" clip-path="url(#clip-path)">
        <path id="Path_37966" data-name="Path 37966" d="M296.251,198.9a61.5,61.5,0,0,1,15.571,35.622,68.9,68.9,0,0,1-8.07,38.742,74,74,0,0,1-30.113,29.968,69.9,69.9,0,0,1-39.853,8,62.008,62.008,0,0,1-35.944-16.154A61.273,61.273,0,0,1,179.4,260.5a67.752,67.752,0,0,1,5.267-38.821,73.8,73.8,0,0,1,27.818-31.824,70.635,70.635,0,0,1,39.379-10.946A61.113,61.113,0,0,1,296.251,198.9c.908.993,2.38-.485,1.475-1.475a63.644,63.644,0,0,0-35.91-19.588,71.324,71.324,0,0,0-41.249,5.331A75.977,75.977,0,0,0,187.49,212a71.69,71.69,0,0,0-11.028,39.3,64.162,64.162,0,0,0,13.18,37.848,63.229,63.229,0,0,0,34.321,22.438,70.194,70.194,0,0,0,41.242-2.311,76.084,76.084,0,0,0,34.858-26.29,72.424,72.424,0,0,0,14.031-38.927,64.8,64.8,0,0,0-10.178-38.647,64.019,64.019,0,0,0-6.19-7.992c-.9-1-2.375.482-1.475,1.475" transform="translate(-53.748 -53.861)" fill="#ffb726"/>
        <path id="Path_37967" data-name="Path 37967" d="M295.418,198.213a67.6,67.6,0,0,1,17.1,37.625,69.108,69.108,0,0,1-7.456,39.82,69.915,69.915,0,0,1-30.289,29.7,68.946,68.946,0,0,1-40.144,6.667,67.4,67.4,0,0,1-57.11-54.192,68.774,68.774,0,0,1,4.471-40.021A69.833,69.833,0,0,1,210,185.933a69.137,69.137,0,0,1,39.645-9.645,67.662,67.662,0,0,1,38.141,14.732,69.676,69.676,0,0,1,7.63,7.194c.908.993,2.38-.485,1.475-1.475a69.747,69.747,0,0,0-37.131-21.182,71.071,71.071,0,0,0-41.629,3.952A72.015,72.015,0,0,0,184.9,207.776a71.1,71.1,0,0,0-10.584,40.481,69.486,69.486,0,0,0,50.151,63.737,71.012,71.012,0,0,0,41.717-.84,72.006,72.006,0,0,0,35.185-25.667,71.054,71.054,0,0,0,13.647-39.871A69.827,69.827,0,0,0,303.5,205.2a71.558,71.558,0,0,0-6.6-8.457c-.9-1-2.376.483-1.475,1.475" transform="translate(-53.078 -53.029)" fill="#ffb726"/>
        <path id="Path_37968" data-name="Path 37968" d="M315.4,251.833a61.535,61.535,0,0,1-14.461,36.537,69.018,69.018,0,0,1-33.611,21.584,73.988,73.988,0,0,1-42.494-.585,69.831,69.831,0,0,1-33.215-22.5A61.97,61.97,0,0,1,177.8,250.264a61.265,61.265,0,0,1,11.541-37.684,67.869,67.869,0,0,1,31.61-23.752,73.789,73.789,0,0,1,42.431-2.428A70.549,70.549,0,0,1,298.5,206.691a61.091,61.091,0,0,1,16.9,45.142c-.06,1.342,2.026,1.339,2.086,0a63.641,63.641,0,0,0-11.38-39.012,71.212,71.212,0,0,0-32.3-25.317A75.978,75.978,0,0,0,230.113,184a71.759,71.759,0,0,0-36.263,19.965A64.279,64.279,0,0,0,176.2,240.179a63.143,63.143,0,0,0,8.249,39.986,70.063,70.063,0,0,0,30.16,27.4,76.048,76.048,0,0,0,43.136,6.553,72.491,72.491,0,0,0,38.03-17.466,64.849,64.849,0,0,0,20.386-34.6,64,64,0,0,0,1.316-10.22c.065-1.342-2.021-1.339-2.086,0" transform="translate(-53.518 -55.529)" fill="#09f"/>
        <path id="Path_37969" data-name="Path 37969" d="M323.344,250.573a67.584,67.584,0,0,1-14.475,38.645,69.123,69.123,0,0,1-33.48,22.939,69.869,69.869,0,0,1-42.412-.427,68.892,68.892,0,0,1-33.089-23.666,67.39,67.39,0,0,1-2.138-78.6,68.787,68.787,0,0,1,31.6-25.268,69.831,69.831,0,0,1,42.24-2.715,69.118,69.118,0,0,1,34.933,21.27,67.675,67.675,0,0,1,16.5,37.242,69.452,69.452,0,0,1,.319,10.58c-.06,1.342,2.026,1.339,2.086,0a69.76,69.76,0,0,0-11.2-41.113,71.13,71.13,0,0,0-111.9-9.135,69.485,69.485,0,0,0-9.64,80.473A70.964,70.964,0,0,0,222.7,309.7a72,72,0,0,0,43.16,6.788,71.049,71.049,0,0,0,37.787-18.5,69.833,69.833,0,0,0,20.45-36.635,71.44,71.44,0,0,0,1.338-10.781c.065-1.342-2.021-1.339-2.086,0" transform="translate(-56.069 -54.017)" fill="#09f"/>
        <path id="Path_37970" data-name="Path 37970" d="M331.808,182.68c-1.2-5.236-4.282-10.075-3.864-15.6.067-.891.266-2.656,1.181-3.135,1.01-.528,1.928,1.509,2.187,2.211.891,2.41.934,5.181,1.072,7.717a33.718,33.718,0,0,1-.024,4.851,8.369,8.369,0,0,1-.555,2.383,6.172,6.172,0,0,0-.481,1.976l1.187-.492-.22-.22a.7.7,0,0,0-.983.983l.22.22a.7.7,0,0,0,1.187-.492,7.4,7.4,0,0,1,.626-2.108,9.425,9.425,0,0,0,.423-2.41,36.092,36.092,0,0,0-.018-5.188c-.17-2.8-.206-6-1.506-8.557a3.894,3.894,0,0,0-2.553-2.334,2.529,2.529,0,0,0-2.49,1.781c-1.06,2.286-.859,5.43-.26,7.818.936,3.732,2.669,7.21,3.529,10.965.2.872,1.542.5,1.341-.37" transform="translate(-99.44 -49.49)" fill="#ffb726"/>
        <path id="Path_37971" data-name="Path 37971" d="M332.019,182.589a25.14,25.14,0,0,1-2.5-7.34,34.671,34.671,0,0,1-.7-7.3,4.972,4.972,0,0,1,.31-2.232c.109-.171,0-.145.131-.15.174-.006.362.209.474.318a3.8,3.8,0,0,1,.7,1.008,13.051,13.051,0,0,1,.831,3.785c.2,1.339.533,2.652.741,3.992s.37,2.705.6,4.053a13.4,13.4,0,0,1,.318,3.782l1.188-.492-.441-.441a.7.7,0,0,0-.983.983l.44.441a.7.7,0,0,0,1.187-.492,13.51,13.51,0,0,0-.3-3.75c-.24-1.43-.428-2.864-.646-4.3-.261-1.721-.631-3.423-.922-5.139a9.114,9.114,0,0,0-1.129-3.649c-.514-.771-1.3-1.624-2.327-1.489-.87.115-1.208.992-1.364,1.753a21.873,21.873,0,0,0,.115,7.268,30.351,30.351,0,0,0,3.073,10.1c.423.79,1.624.088,1.2-.7" transform="translate(-99.721 -50.005)" fill="#ffb726"/>
        <path id="Path_37972" data-name="Path 37972" d="M329.3,163.429a37.06,37.06,0,0,0-.451,5.781c-.153,2.251-.232,4.495-.456,6.745-.071.71.971.914,1.3.351,1.1-1.912.46-4.286,1.543-6.17h-1.2a3.875,3.875,0,0,1,.076,1.245c0,.67-.015,1.341,0,2.01.019.889-.015,2.177.835,2.723a.7.7,0,0,0,1.047-.6,38.419,38.419,0,0,0,.22-5.068.7.7,0,0,0-1.366-.185,15.957,15.957,0,0,0-.247,4.536,35.69,35.69,0,0,0,0,4.684.708.708,0,0,0,.88.671c1.064-.277.855-2.739.9-3.525.046-.873.079-1.747.121-2.62a9.119,9.119,0,0,1,.129-1.614h-1.341a30.636,30.636,0,0,1,.205,6.165c-.024,1.357-.592,3.3.775,4.167.758.481,1.457-.722.7-1.2-.455-.289-.126-1.4-.1-1.848.045-.837.03-1.684.046-2.523a25.17,25.17,0,0,0-.285-5.13c-.131-.7-1.163-.622-1.341,0a16.352,16.352,0,0,0-.253,3.619c-.035.768-.07,1.537-.131,2.3-.022.274-.038.554-.086.825a1.393,1.393,0,0,0-.051.259c.027.249-.195-.079.345-.219l.88.67a30.1,30.1,0,0,1-.006-4.359,16.821,16.821,0,0,1,.2-4.492l-1.366-.184a38.409,38.409,0,0,1-.22,5.068l1.046-.6c.132.084,0-.066-.036-.227a4.986,4.986,0,0,1-.084-.659c-.042-.6-.032-1.2-.028-1.8a7.069,7.069,0,0,0-.264-2.8.7.7,0,0,0-1.2,0c-1.1,1.912-.459,4.287-1.543,6.17l1.3.35c.215-2.151.346-4.288.44-6.446a32.135,32.135,0,0,1,.417-5.71c.2-.871-1.141-1.243-1.341-.37" transform="translate(-100.031 -49.631)" fill="#ffb726"/>
        <path id="Path_37973" data-name="Path 37973" d="M336.434,184.378c.437-3.38.166-6.8.557-10.181a16.767,16.767,0,0,1,2.372-7.316,3.164,3.164,0,0,1,2.395-1.674c1,.029,1.334,1.074,1.475,1.907a12.492,12.492,0,0,1-1.213,7.1c-.687,1.492-1.552,2.893-2.375,4.312-.395.681-.784,1.366-1.137,2.069A10.04,10.04,0,0,1,337.23,183l1.092.14a14.434,14.434,0,0,1-1.228-6.48l-1.366.185c.662,1.643.766,3.435,1.612,5.014a.7.7,0,0,0,1.271-.166,13.1,13.1,0,0,0,.023-4.433c-.041-.665-.514-2.112-.093-2.673h-1.2c.852,1.353,1.083,2.972,1.763,4.407a.7.7,0,0,0,1.3-.35c-.241-2.444-.859-4.829-1.1-7.272l-.7.7c-.266-.033-.029.019.02.148s.172.3.24.437a10.6,10.6,0,0,1,.432,1.083,9.711,9.711,0,0,0,.691,1.734.7.7,0,0,0,1.271-.166,4.209,4.209,0,0,0-.091-2.565,4.571,4.571,0,0,1-.349-2.724l-1.162.307c.565.673.593,1.618,1.321,2.2a.705.705,0,0,0,1.187-.492c-.044-1.937-.823-3.784-.661-5.729l-1.187.492c.861.963.938,2.666,2.476,2.848a.7.7,0,0,0,.7-.7,2.355,2.355,0,0,0-1.428-2.268,2.227,2.227,0,0,0-2.194.854c-.974,1.093-1.809,3.207-1.227,4.649a1.053,1.053,0,0,0,1.638.548,2.972,2.972,0,0,0,1.135-1.574,8.724,8.724,0,0,0,.507-4.377.706.706,0,0,0-.67-.51c-.847-.067-1.315.927-1.583,1.567a14.548,14.548,0,0,0-.891,3.438c-.243,1.618-.815,5.046,1.188,5.838a.706.706,0,0,0,.855-.486c.885-2.569.657-5.364,1.542-7.934l-1.366-.184v.22a.7.7,0,0,0,1.391,0v-.22a.7.7,0,0,0-1.366-.185c-.885,2.569-.657,5.364-1.541,7.933l.855-.485c-.234-.092-.342-1.065-.364-1.408a13.254,13.254,0,0,1,.173-2.892,15.817,15.817,0,0,1,.65-2.7,4.324,4.324,0,0,1,.395-.9,1.323,1.323,0,0,0,.147-.215c.024-.088-.1.008-.086.009l-.67-.51a6.9,6.9,0,0,1-.161,2.413c-.083.413-.339,1.955-.931,2l.492.2c-.461-.54.121-1.905.371-2.427.377-.784,1.649-2.13,1.747-.387l.7-.7c-.248-.029-.609-1-.709-1.2a5.537,5.537,0,0,0-.783-1.245.7.7,0,0,0-1.187.492c-.163,1.955.617,3.791.661,5.729l1.187-.492c-.675-.544-.768-1.546-1.321-2.2a.7.7,0,0,0-1.162.307,4.2,4.2,0,0,0,.09,2.565,4.576,4.576,0,0,1,.349,2.724l1.271-.166c-.736-1.226-.8-3.871-2.584-4.091a.7.7,0,0,0-.7.7c.242,2.444.861,4.829,1.1,7.272l1.3-.351c-.682-1.439-.9-3.042-1.763-4.407a.706.706,0,0,0-1.2,0c-.573.766-.227,2.058-.136,2.92a12.537,12.537,0,0,1,.066,4.519l1.27-.166c-.783-1.461-.857-3.156-1.472-4.682-.275-.683-1.372-.659-1.366.185a15.9,15.9,0,0,0,1.418,7.183.7.7,0,0,0,1.092.14,7.214,7.214,0,0,0,1.187-2.038,27.069,27.069,0,0,1,1.306-2.484c.841-1.462,1.738-2.9,2.455-4.426a14.172,14.172,0,0,0,1.428-8.2,3.611,3.611,0,0,0-1.632-2.731,3.085,3.085,0,0,0-3.068.278c-2.148,1.4-3.049,4.21-3.69,6.555-1.2,4.385-.579,8.974-1.156,13.437-.115.885,1.277.877,1.391,0" transform="translate(-102.057 -49.9)" fill="#ffb726"/>
        <path id="Path_37974" data-name="Path 37974" d="M338.067,185.933c.217.2-.024.156.11-.007a2.5,2.5,0,0,0,.184-.557,13.229,13.229,0,0,1,.707-1.45c.417-.774.853-1.516,1.22-2.316a19.388,19.388,0,0,1,2.106-3.764,25.958,25.958,0,0,1,2.957-3.126,7.2,7.2,0,0,1,3.883-2.129c.569-.067,1.272-.128,1.505.519a2.693,2.693,0,0,1-.235,1.725c-.9,2.213-3.472,3.477-5.565,4.3-2.47.966-5.431,1.34-7.082,3.644a.7.7,0,0,0,.6,1.047c1.229-.057,1.8-.929,1.953-2.069.118-.894-.2-2.528.524-3.2l-1.092-.14c.35.46.437,1.076.837,1.512a1.27,1.27,0,0,0,1.669.131,3.894,3.894,0,0,0,1.27-1.759c.015-.031.219-.386.213-.392q-.487.051-.3.108a.541.541,0,0,1,.133.063c.15.2.784.357,1,.437a.712.712,0,0,0,.785-.32,2.739,2.739,0,0,0,.07-2.519c-.271-.849-1.614-.486-1.341.37.277.872.506,1.973,1.421,2.4a.711.711,0,0,0,.951-.25c.515-.939.341-2.01.511-3.031l-1.271.166c.536.829,1.464,2.576,2.714,1.793.994-.622.811-2.032.785-3.025l-1.187.492a4.548,4.548,0,0,0,1.022.77q.083-.635.166-1.271a22.528,22.528,0,0,0-4.7,1.79c-.616.3-1.259.547-1.865.868a5.275,5.275,0,0,1-1.845.843l.6.344c-.622-1.422.163-3.175.3-4.625a17.435,17.435,0,0,0-.013-4.464.7.7,0,0,0-1.022-.416,6.236,6.236,0,0,0-2.275,3.115c-.444,1.054-.958,2.464-.4,3.566a.7.7,0,0,0,1.2,0,12.964,12.964,0,0,0,1.238-4.529,12.379,12.379,0,0,0,.195-1.846,3.177,3.177,0,0,1,.441-1.858h-.983a9.137,9.137,0,0,1,1.7,4.673c.191,1.534.239,3.592-1.034,4.7l.843-.109c-.5-.38-.3-1.663-.245-2.166a16.6,16.6,0,0,1,.481-2.448c.472-1.793,1.47-3.647,1.186-5.548-.072-.479-.665-.588-1.022-.416-1.7.827-2.523,3.034-3.131,4.7-.945,2.584-2.385,4.876-2.919,7.62a.694.694,0,0,0,.179.677,1.461,1.461,0,0,0,1.724.109c.816-.362.11-1.56-.7-1.2-.013.036-.025.072-.038.108l.179.677a18.54,18.54,0,0,1,1.256-3.919c.471-1.072,1.093-2.1,1.485-3.2.519-1.458,1.165-3.638,2.669-4.367l-1.022-.415a8.4,8.4,0,0,1-.768,3.485,21.836,21.836,0,0,0-.659,2.349c-.338,1.591-.861,4.006.645,5.159a.7.7,0,0,0,.843-.108c1.558-1.358,1.664-3.767,1.442-5.67a10.667,10.667,0,0,0-2.1-5.671.7.7,0,0,0-.983,0c-.858,1-.78,2.311-.864,3.543a24.613,24.613,0,0,1-.421,2.489,6.861,6.861,0,0,1-.806,2.483h1.2c-.331-.652.29-1.935.553-2.519a4.787,4.787,0,0,1,1.622-2.259l-1.022-.416a15.018,15.018,0,0,1-.2,4.942,7.549,7.549,0,0,0,.045,4.48.673.673,0,0,0,.6.344c1.259-.1,2.449-.971,3.575-1.486a27.84,27.84,0,0,1,5.2-2.065.7.7,0,0,0,.166-1.271,3.193,3.193,0,0,1-.741-.552.7.7,0,0,0-1.188.492c.014.541-.019,1.068-.031,1.6,0,.088-.15.237-.026.212s-.191-.282-.257-.366c-.222-.287-.4-.614-.594-.919-.293-.454-1.166-.464-1.271.166-.138.832.038,1.953-.371,2.7l.952-.25c-.525-.244-.622-1.063-.783-1.568l-1.341.37c.144.452.387,1.031.07,1.448l.786-.32c-.958-.345-1.793-.989-2.485.161-.173.288-.28.612-.443.906a2.62,2.62,0,0,1-.211.349c.026-.033-.455.419-.444.334q-.3.031.231.034l-.087-.147a2.094,2.094,0,0,0-.2-.412,3.737,3.737,0,0,0-.348-.686.708.708,0,0,0-1.092-.14,3.7,3.7,0,0,0-.835,2.666c-.026.555.164,2.161-.658,2.2l.6,1.047c.94-1.311,2.653-1.827,4.125-2.274a26.175,26.175,0,0,0,3.764-1.439c2.415-1.164,4.9-3.029,5.208-5.893a2.3,2.3,0,0,0-2.024-2.7,6.742,6.742,0,0,0-4.5,1.517,26.678,26.678,0,0,0-3.6,3.44,16.481,16.481,0,0,0-2.713,4.284c-.555,1.183-1.206,2.294-1.789,3.462-.377.755-1.275,2.3-.443,3.046.663.6,1.649-.382.983-.983" transform="translate(-102.352 -50.405)" fill="#ffb726"/>
        <path id="Path_37975" data-name="Path 37975" d="M338.867,188.225a29.328,29.328,0,0,1,4.815-5.436c.853-.766,1.764-1.438,2.663-2.147a10.229,10.229,0,0,1,2.684-1.795c.837-.3.476-1.644-.369-1.341a10.522,10.522,0,0,0-2.886,1.825c-.987.781-2,1.515-2.939,2.352a30.925,30.925,0,0,0-5.169,5.84c-.5.745.7,1.442,1.2.7" transform="translate(-102.822 -54.058)" fill="#ffb726"/>
        <path id="Path_37976" data-name="Path 37976" d="M347.768,178.162A13.788,13.788,0,0,0,345.933,180a6.4,6.4,0,0,0-1.584,2.688,1.708,1.708,0,0,0,.317,1.473,2.175,2.175,0,0,0,1.449.659,3.653,3.653,0,0,0,2.231-.376,4.7,4.7,0,0,0,1.613-1.607,7.71,7.71,0,0,0,.886-1.857,5.415,5.415,0,0,0,.411-1.967,2.032,2.032,0,0,0-2.93-1.539,3.821,3.821,0,0,0-1.974,2.685,2.2,2.2,0,0,0,1.656,2.712c1.4.273,2.717-.737,3.536-1.777.768-.976,1.583-2.448,1.131-3.727a.715.715,0,0,0-.67-.51,4.463,4.463,0,0,0-2.735,1.271,9.221,9.221,0,0,0-1.833,2.158c-.467.766.736,1.466,1.2.7a7.885,7.885,0,0,1,1.474-1.752,5.133,5.133,0,0,1,.969-.705,2.157,2.157,0,0,1,.923-.284l-.67-.51c.028.079.045.16.065.241-.045-.183,0,.1,0,.161,0,.047,0,.094-.007.14-.008.184.019-.1,0,.019a3.377,3.377,0,0,1-.072.33c-.031.115-.071.228-.111.341-.009.026-.063.16-.018.054-.023.053-.047.1-.072.157a5.525,5.525,0,0,1-.389.684,4.9,4.9,0,0,1-.944,1.063,2.967,2.967,0,0,1-.5.349,3.033,3.033,0,0,1-.289.146c.026-.011.116-.042-.008,0-.067.024-.135.046-.2.064-.048.013-.1.023-.145.033-.187.04.142,0-.047.006a2.062,2.062,0,0,1-.286,0c.168.017-.1-.031-.15-.047-.03-.009-.118-.052,0,0a2.315,2.315,0,0,1-.211-.119c-.026-.017-.1-.079,0,.008-.042-.035-.081-.074-.12-.113s-.075-.1.008.017c-.031-.044-.056-.09-.083-.135s-.05-.12,0,.022a1.392,1.392,0,0,1-.049-.152c-.009-.035-.016-.07-.024-.106-.013-.079-.012-.072,0,.022,0-.038-.006-.075-.006-.112,0-.1,0-.192.011-.289-.016.163.027-.123.039-.17.025-.1.057-.2.09-.3.013-.04.029-.079.045-.118-.054.134.051-.1.063-.125.049-.1.1-.189.159-.28.023-.036.047-.072.071-.108.006-.01.131-.18.042-.065a2.847,2.847,0,0,1,.477-.487c-.111.088.111-.069.149-.091s.067-.036.1-.054c.16-.088-.132.038.038-.019a2.209,2.209,0,0,1,.259-.069c-.209.042.259.041.049,0,.05.01.295.1.145.027.091.042.167.1.254.152.051.029.106.047.156.08.081.054-.068-.1.029.035-.088-.122-.012.067-.017-.018s.032.131.036.156c-.019-.123-.01.175-.013.227a1.736,1.736,0,0,1-.046.265,8.577,8.577,0,0,1-.241.837,5.99,5.99,0,0,1-.591,1.373,2.72,2.72,0,0,1-2.511,1.694c-.051,0-.358-.039-.238-.018-.1-.017-.195-.044-.292-.067-.035-.008-.2-.079-.03,0a.822.822,0,0,1-.086-.042c-.038-.023-.076-.049-.115-.07.137.075.063.05.013,0-.131-.127.052.113-.029-.043-.065-.126.071.156.011.029a.3.3,0,0,1-.019-.074c-.01-.139-.02.172,0,.031a.631.631,0,0,0,0-.081c0-.042.006-.084.007-.125,0,.184-.014.072,0,.01.024-.092.046-.184.077-.275.017-.048.035-.1.054-.143-.044.111-.017.038.015-.029a6.147,6.147,0,0,1,.339-.6c.13-.2.27-.4.415-.591.074-.1-.1.124.029-.038.047-.059.095-.118.143-.177q.113-.138.229-.273a13.687,13.687,0,0,1,1.75-1.738.7.7,0,0,0,0-.983.712.712,0,0,0-.983,0" transform="translate(-104.881 -53.873)" fill="#ffb726"/>
        <path id="Path_37977" data-name="Path 37977" d="M220.714,252.962v.173a2.1,2.1,0,0,0,4.1.555,8.6,8.6,0,0,1,1.846-2.5,12.354,12.354,0,0,1,2.615-2.455,7.735,7.735,0,0,1,2.964-1.186,29.4,29.4,0,0,1,3.962-.127,10.427,10.427,0,0,1,3.693.439,10.826,10.826,0,0,1,2.9,1.688,11.517,11.517,0,0,1,2.492,2.416c.328.485.567,1.019.869,1.516a2.629,2.629,0,0,0,2.161,1.22q-.9-1.57-1.8-3.139c-.077.095-.149.192-.217.293l1.247-.959-.128.051a2.151,2.151,0,0,0-1.457,2.567,2.1,2.1,0,0,0,2.566,1.457,3.5,3.5,0,0,0,1.592-1.3,2.044,2.044,0,0,0,0-2.106,2.2,2.2,0,0,0-1.8-1.033l-.169-.021,1.053.285-.112-.063.749.749c-.37-.487-.609-1.1-.947-1.62a10.339,10.339,0,0,0-1.372-1.681,22.211,22.211,0,0,0-3.657-2.958,11.991,11.991,0,0,0-3.954-1.685,22.324,22.324,0,0,0-4.972-.259,18.453,18.453,0,0,0-4.658.444,11.733,11.733,0,0,0-3.788,1.89,18.905,18.905,0,0,0-3.245,3.185,10.778,10.778,0,0,0-2.452,3.783l4.1.555v-.173c0-2.685-4.172-2.689-4.172,0" transform="translate(-67.233 -74.1)" fill="#ffb726"/>
        <path id="Path_37978" data-name="Path 37978" d="M298.3,252.962v.173a2.1,2.1,0,0,0,4.1.555,8.614,8.614,0,0,1,1.846-2.5,12.356,12.356,0,0,1,2.615-2.455,7.738,7.738,0,0,1,2.965-1.186,29.4,29.4,0,0,1,3.962-.127,10.414,10.414,0,0,1,3.693.439,10.811,10.811,0,0,1,2.9,1.688,11.5,11.5,0,0,1,2.492,2.416c.328.485.567,1.019.869,1.516a2.628,2.628,0,0,0,2.161,1.22l-1.475-3.561c-.183.236-.371.47-.544.716l1.247-.959-.128.051a2.152,2.152,0,0,0-1.457,2.567,2.1,2.1,0,0,0,2.567,1.457,3.123,3.123,0,0,0,.837-.424c.1-.08.7-.8.429-.457a2.121,2.121,0,0,0-1.476-3.561l-.17-.021,1.053.285-.112-.063.748.749c-.369-.487-.608-1.1-.946-1.62a10.335,10.335,0,0,0-1.371-1.681,22.21,22.21,0,0,0-3.657-2.958,12,12,0,0,0-3.954-1.685,22.324,22.324,0,0,0-4.972-.259,18.482,18.482,0,0,0-4.658.444,11.73,11.73,0,0,0-3.789,1.89,18.881,18.881,0,0,0-3.245,3.185,10.777,10.777,0,0,0-2.452,3.783l4.1.555v-.173c0-2.685-4.172-2.689-4.172,0" transform="translate(-90.868 -74.1)" fill="#ffb726"/>
        <path id="Path_37979" data-name="Path 37979" d="M206.832,288.2a72.162,72.162,0,0,0,8.559,9q4.407,4.224,9.09,8.146c1.55,1.3,3.1,2.615,4.724,3.823A22.086,22.086,0,0,0,234.628,312c3.964,1.524,7.8,3.25,12.05,3.774a51.456,51.456,0,0,0,5.927.316c2.042.015,4.054.155,6.089.314a47.1,47.1,0,0,0,6.372.184,35.8,35.8,0,0,0,6.419-1.146,67.6,67.6,0,0,0,11.532-3.578c3.429-1.528,6.363-3.811,9.542-5.768a30.881,30.881,0,0,0,5.48-3.887c1.523-1.48,2.679-3.307,4.231-4.75,1.453-1.35,3.157-2.611,4.094-4.411A28.727,28.727,0,0,0,309,287.7l-2.012,1.532.136.008-2.086-2.086v.052l.611-1.476-.135.143c-1.853,1.943,1.092,4.9,2.95,2.95a2.363,2.363,0,0,0,.747-1.669,2.129,2.129,0,0,0-2.086-2.086l-.136-.008a2.11,2.11,0,0,0-2.012,1.531,10.857,10.857,0,0,1-.784,1.9c-.369.749-.923,1.384-1.293,2.134a12.626,12.626,0,0,1-3.083,3.439,42.9,42.9,0,0,0-3.51,3.9,18.216,18.216,0,0,1-4.019,3.388c-1.6,1.021-3.243,1.962-4.8,3.049a44.915,44.915,0,0,1-4.368,2.773,45.639,45.639,0,0,1-10.188,3.587c-1.9.5-3.8.987-5.727,1.362a24.041,24.041,0,0,1-5.72.29c-2.018-.091-4.028-.3-6.042-.433-1.882-.126-3.775-.043-5.66-.127a27.179,27.179,0,0,1-5.4-.7,49.319,49.319,0,0,1-5.649-2.026,42.294,42.294,0,0,1-5.21-2.118,27.768,27.768,0,0,1-4.241-3.08c-3.385-2.794-6.7-5.67-9.89-8.683-1.6-1.506-3.142-3.062-4.745-4.56a33.761,33.761,0,0,1-4.208-4.594,2.15,2.15,0,0,0-2.855-.749,2.1,2.1,0,0,0-.748,2.855" transform="translate(-62.911 -86.833)" fill="#ffb726"/>
        <path id="Path_37980" data-name="Path 37980" d="M345.755,281.313c.327,1.939,2.083,3.377,3.772,4.156a16.157,16.157,0,0,0,5.308,1.413,2.088,2.088,0,0,0,1.475-.611,2.085,2.085,0,0,0,0-2.95,2.36,2.36,0,0,0-1.475-.611c-.15-.014-.3-.031-.449-.051l.554.074a14.607,14.607,0,0,1-1.9-.391q-.5-.138-.983-.311c-.164-.058-.325-.122-.487-.186-.332-.131.483.215.179.074-.091-.042-.183-.083-.273-.127a8.049,8.049,0,0,1-.917-.514c-.176-.116-.6-.506-.035,0-.117-.1-.238-.2-.35-.308s-.2-.222-.306-.332c.5.533.153.207.035,0-.036-.062-.067-.126-.1-.189-.154-.284.193.528.1.237a3.318,3.318,0,0,1-.124-.484,2.093,2.093,0,0,0-.959-1.247,2.087,2.087,0,0,0-2.855.748,2.381,2.381,0,0,0-.21,1.608" transform="translate(-105.307 -84.887)" fill="#ffb726"/>
        <path id="Path_37981" data-name="Path 37981" d="M201.409,288.186a3.361,3.361,0,0,0,2.871-.49,9.654,9.654,0,0,0,1.943-1.712c.577-.645,1.1-1.334,1.622-2.028.152-.2.3-.408.45-.612l.078-.105c.127-.174-.419.51-.164.241a9.65,9.65,0,0,0,.676-.84,6.505,6.505,0,0,0,.91-1.71,3.608,3.608,0,0,0,.2-1.163,3.428,3.428,0,0,0-.377-1.514,2.092,2.092,0,0,0-1.247-.959,2.133,2.133,0,0,0-1.607.211,2.1,2.1,0,0,0-.959,1.247,2.406,2.406,0,0,0,.21,1.607l.029.065q-.105-.249-.21-.5a1.349,1.349,0,0,1,.054.209l-.074-.554a1.641,1.641,0,0,1,0,.3l.074-.554a2.6,2.6,0,0,1-.19.659c.07-.165.14-.332.21-.5a4.809,4.809,0,0,1-.311.582c-.111.177-.532.676-.049.109-.282.332-.566.656-.825,1.008-.126.171-.25.343-.376.513q-.122.165-.245.328c-.048.063-.1.126-.145.191.048-.065.371-.477.15-.2a16.885,16.885,0,0,1-1.323,1.522c-.107.107-.216.213-.328.314-.165.151-.687.485-.017.041a4.51,4.51,0,0,1-.69.416l.5-.21a1.7,1.7,0,0,1-.4.11l.554-.074a1.169,1.169,0,0,1-.232,0l.555.075a.965.965,0,0,1-.216-.058,2.1,2.1,0,0,0-1.608.211,2.087,2.087,0,0,0-.748,2.854,2.409,2.409,0,0,0,1.247.959" transform="translate(-60.888 -84.447)" fill="#ffb726"/>
        <path id="Path_37982" data-name="Path 37982" d="M128.324,185.509c.225,5.4-.009,10.808.348,16.2a49.489,49.489,0,0,0,1.084,8.121,59.858,59.858,0,0,0,2.392,7.458,88.339,88.339,0,0,0,6.613,13.658c1.273,2.143,2.6,4.3,4.046,6.332.677.951,1.414,1.858,2.173,2.743a30.531,30.531,0,0,0,2.553,2.866,85.1,85.1,0,0,0,7.017,5.329,23.27,23.27,0,0,1,3.175,2.231,5.475,5.475,0,0,0,3.582,2,2.106,2.106,0,0,0,2.086-2.086v-.34c0-2.684-4.172-2.689-4.172,0v.34l2.086-2.086c.347.03.161.105.047-.092.095.163-.356-.348-.332-.323-.328-.325-.615-.7-.956-1.01a9.481,9.481,0,0,0-1.509-.937c-.654-.4-1.282-.846-1.9-1.3-1.909-1.395-3.828-2.745-5.655-4.249a20.108,20.108,0,0,1-2.3-2.4c-.727-.831-1.469-1.659-2.122-2.551-1.35-1.844-2.559-3.833-3.746-5.786-4.948-8.139-9.15-17.33-9.92-26.923-.459-5.721-.182-11.467-.421-17.2a2.129,2.129,0,0,0-2.086-2.086,2.107,2.107,0,0,0-2.086,2.086" transform="translate(-39.089 -55.873)" fill="#ffb726"/>
        <path id="Path_37983" data-name="Path 37983" d="M128.223,178.806c-1.613-1.067-3.437-2.02-4.559-3.656a7.113,7.113,0,0,1-.394-.638c-.061-.113-.136-.316-.038-.069a8.557,8.557,0,0,1-.282-.823c-.04-.139-.076-.278-.108-.419a2.2,2.2,0,0,1-.086-.592,3.286,3.286,0,0,1,.012-.445c-.041.385.027-.17,0,.049-.023.154-.044.051.007,0,.173-.187-.052.066-.057.07-.026.017-.261.2-.066.058-.017.012-.205.145-.107.054.079-.074-.031.025-.1.007-.012,0,.344.017.2,0-.165-.021.158.04.187.049.083.024.166.047.248.074.056.018.229.111.015,0a1.22,1.22,0,0,1,.165.09c.059.04.369.27.185.114a4.058,4.058,0,0,1,.378.371,3.053,3.053,0,0,1,.444.642,9.443,9.443,0,0,1,.48.948,17.819,17.819,0,0,1,.716,2.218c.421,1.6.667,3.228,1.06,4.829.364,1.483,2.922,1.216,2.732-.369-.429-3.579-2.255-7.018-1.91-10.6.029-.293.015-.12.006-.057.014-.091.031-.184.051-.273.041-.175.089-.346.144-.517a2,2,0,0,1,.344-.563c-.014.014.277-.268.147-.136-.065.067.024-.079.021,0,0,.032.073.041.1-.023s-.19-.008-.083.009c.029,0-.284-.115-.172-.051.181.1-.1-.031-.076-.062s.169.308.072.067c-.072-.18.1.192.126.244.1.186-.106-.317.012.024.025.074.051.148.076.222a8.612,8.612,0,0,1,.252,1.107c.008.047.041.272.007.019.011.087.022.174.031.261.018.171.035.342.048.515.029.355.045.711.056,1.067a13.922,13.922,0,0,1-1.5,7.366l2.592.7a5.8,5.8,0,0,1,.766-2.59,32.938,32.938,0,0,0,1.442-3.032,9.351,9.351,0,0,1,1.233-2.69,1.708,1.708,0,0,1,.6-.447c-.13.075,0-.006-.067.035.029-.019.131,0,.165,0-.224-.012-.081.051-.118-.012-.076-.132.259.18.033,0a2.7,2.7,0,0,1,.261.251c.177.181.061.067.023.017a1.983,1.983,0,0,1,.112.166c.094.16.187.317.27.483a4.088,4.088,0,0,1,.264.763c.045.168.081.338.115.508,0,0,.04.238.021.106-.016-.108.015.15.017.176.01.165.02.328.019.493,0,.09-.026.453-.011.345a2.379,2.379,0,0,0-.07.3,2.8,2.8,0,0,1-.164.489,4.081,4.081,0,0,1-1.4,1.567,10.489,10.489,0,0,1-2.38,1.225c-.43.159-.868.293-1.3.433a5.458,5.458,0,0,0-.822.344c-.013.007-.235.121-.234.122-.063-.15.734.188.481-.041-1.323-1.2-3.3.761-1.967,1.968a2.4,2.4,0,0,0,2.132.748,14.346,14.346,0,0,0,1.465-.554,17.362,17.362,0,0,0,3.167-1.309,6.776,6.776,0,0,0,3.88-5.364,6.641,6.641,0,0,0-1.953-5.236c-2.08-1.748-4.471-.149-5.469,1.943-.664,1.391-1.126,2.846-1.844,4.214a10.122,10.122,0,0,0-1.446,4.574,1.4,1.4,0,0,0,2.592.7,16.469,16.469,0,0,0,1.883-8.464c-.028-1.677-.083-3.682-.99-5.151-1.3-2.1-3.936-1.44-5.034.492-1.117,1.966-.761,4.483-.353,6.594.241,1.245.567,2.47.892,3.7.144.542.289,1.084.421,1.63.062.257.122.516.174.775.025.129.123.8.077.407L129.2,181c-.42-1.711-.677-3.457-1.149-5.157a10.255,10.255,0,0,0-2.645-5.077c-1.382-1.205-4.028-1.837-5.081.125-.777,1.446-.2,3.373.423,4.77,1.154,2.6,3.813,4.058,6.069,5.551,1.5.992,2.891-1.416,1.4-2.4" transform="translate(-36.54 -50.711)" fill="#ffb726"/>
        <path id="Path_37984" data-name="Path 37984" d="M415.9,185.836c-.216,5.177-.01,10.364-.307,15.539a48.154,48.154,0,0,1-.931,7.534,53.287,53.287,0,0,1-2.131,6.9,82.212,82.212,0,0,1-6.127,12.917c-1.192,2.053-2.547,4-3.78,6.02a43.149,43.149,0,0,1-4.282,5.355,20.3,20.3,0,0,1-3.133,2.677c-1.066.822-2.19,1.56-3.27,2.364-1.1.817-2.227,1.531-3.4,2.24a6.281,6.281,0,0,0-1.2,1.117c-.2.207-.631.773-.953.8l1.391,1.391v-.34a1.392,1.392,0,0,0-2.782,0v.34a1.4,1.4,0,0,0,1.391,1.391,4.355,4.355,0,0,0,2.743-1.435,8.26,8.26,0,0,1,.946-.933c.6-.428,1.289-.76,1.9-1.185,2.1-1.455,4.18-2.958,6.17-4.558a20.607,20.607,0,0,0,2.722-2.558c.776-.891,1.565-1.771,2.3-2.693a63.337,63.337,0,0,0,4.208-6.229c5.331-8.575,9.809-18.325,10.787-28.465.583-6.046.256-12.128.508-18.188.074-1.79-2.707-1.786-2.782,0" transform="translate(-117.276 -56.2)" fill="#ffb726"/>
        <path id="Path_37985" data-name="Path 37985" d="M428.238,181.19c2.171-1.437,4.428-2.75,5.81-5.046a6.584,6.584,0,0,0,.919-4.674c-.6-2.149-3.1-2.246-4.73-1.177s-2.45,3-3.014,4.794c-.61,1.929-.885,3.931-1.366,5.891l2.731.37c-.048.4.035-.187.054-.286.04-.21.086-.419.133-.627.111-.479.235-.955.361-1.432.289-1.1.589-2.193.836-3.3.468-2.1.951-4.569.182-6.66a3.933,3.933,0,0,0-2.246-2.456,2.511,2.511,0,0,0-2.7.586c-1.266,1.265-1.36,3.537-1.423,5.209a16.83,16.83,0,0,0,1.869,8.991,1.4,1.4,0,0,0,2.592-.7,9.113,9.113,0,0,0-1.2-4.09c-.623-1.207-1.137-2.4-1.648-3.661a6.325,6.325,0,0,0-2.337-3.279,2.988,2.988,0,0,0-2.964-.134c-1.741.894-2.469,3.229-2.569,5.045a6.331,6.331,0,0,0,3.167,5.556,14.7,14.7,0,0,0,3.475,1.608c.549.184,1.045.44,1.591.617a2.369,2.369,0,0,0,2.412-.679c1.33-1.205-.643-3.167-1.967-1.967-.243.22.446-.251.435.01,0-.033.16.192-.03-.009a2.643,2.643,0,0,0-.75-.358c-.368-.13-.749-.223-1.117-.351a12.159,12.159,0,0,1-2.174-.978,5.49,5.49,0,0,1-1.715-1.441,2.986,2.986,0,0,1-.426-.84,4.445,4.445,0,0,1-.115-.467c-.031-.159,0,.031.006.054-.011-.111-.016-.223-.018-.334a4.487,4.487,0,0,1,.3-1.775,3.1,3.1,0,0,1,.333-.706c.036-.061.273-.382.124-.2a2.667,2.667,0,0,1,.3-.307c.159-.139-.156.145,0,.011a.459.459,0,0,1,.146-.081c-.193.016-.065.009-.026.027-.106-.05-.149.087-.1.01.011-.018.145,0,.165,0-.254.023-.121-.037-.026.014-.234-.127.217.124.268.163a5.3,5.3,0,0,1,1.142,2.06,34.652,34.652,0,0,0,1.522,3.413,6.9,6.9,0,0,1,1.016,3.073l2.592-.7a13.494,13.494,0,0,1-1.505-6.92c.008-.677.04-1.353.112-2.027q.014-.13.031-.261c-.008.059-.041.256.006-.019.029-.17.059-.34.1-.508s.074-.323.122-.483c.031-.106.244-.6.1-.314a4.1,4.1,0,0,1,.2-.357c-.175.274-.105.107-.042.061.214-.156-.09.044-.084.045-.022,0,.333-.136.056-.046-.3.1.217-.03-.105.035-.072.015-.1.026-.1.006q-.185-.029.01.014l.1.034c-.332-.112.073.09-.037-.022s.08.067.1.092c.058.059.115.118.168.181.137.163-.107-.166,0,.016.036.061.267.524.172.288a3.98,3.98,0,0,1,.172.572,3.712,3.712,0,0,1,.106.993,11.529,11.529,0,0,1-.071,1.437,23.113,23.113,0,0,1-.508,2.7,53.4,53.4,0,0,0-1.365,5.871c-.188,1.569,2.364,1.868,2.732.37.693-2.818.919-5.972,2.49-8.366a.7.7,0,0,1,.165-.218c.1-.117.214-.227.325-.337.031-.03.2-.169.018-.029a1.838,1.838,0,0,1,.157-.107c.054-.031.108-.064.162-.1.312-.195-.127.031.066-.04a2.889,2.889,0,0,1,.54-.15c-.056.009-.228.04.037,0,.151-.019.067-.031.044-.008-.048.048-.106-.042.023.015-.332-.148-.127-.063-.079-.02a2.908,2.908,0,0,1-.248-.25c.01.011.092.156.09.157.017-.008-.164-.316-.044-.062.012.024.05.213.013.016s.006.17.006.25c0,.137-.012.274-.026.41-.016.163.006-.05.009-.068-.018.1-.037.2-.058.3a7.713,7.713,0,0,1-.227.826c-.042.127-.09.25-.135.376-.075.207.107-.163-.058.131-1.14,2.02-3.1,3.093-4.973,4.334-1.486.984-.095,3.394,1.4,2.4" transform="translate(-127.185 -50.693)" fill="#ffb726"/>
        <path id="Path_37986" data-name="Path 37986" d="M222.88,280.809c2.842-1.745,5.516-3.738,8.181-5.739a1.426,1.426,0,0,0,.5-1.9,1.405,1.405,0,0,0-1.9-.5c-2.665,2-5.338,3.994-8.181,5.739a1.391,1.391,0,0,0,1.4,2.4" transform="translate(-67.255 -82.996)" fill="#ffb726"/>
        <path id="Path_37987" data-name="Path 37987" d="M235.233,281.465c1.862-1.826,3.862-3.5,5.8-5.24a1.4,1.4,0,0,0,0-1.967,1.424,1.424,0,0,0-1.967,0c-1.94,1.74-3.941,3.414-5.8,5.24a1.391,1.391,0,0,0,1.967,1.967" transform="translate(-70.934 -83.423)" fill="#ffb726"/>
        <path id="Path_37988" data-name="Path 37988" d="M244.823,281.2c2.412-1.7,4.341-3.948,6.607-5.823a1.4,1.4,0,0,0,0-1.967,1.429,1.429,0,0,0-1.967,0c-1.074.889-2.068,1.868-3.076,2.83-.5.477-1,.951-1.524,1.405q-.376.33-.763.643l-.216.172c-.161.13.262-.195-.024.017-.146.108-.293.216-.442.321a1.422,1.422,0,0,0-.5,1.9,1.407,1.407,0,0,0,1.9.5" transform="translate(-73.938 -83.165)" fill="#ffb726"/>
        <path id="Path_37989" data-name="Path 37989" d="M306.486,282.515a51.319,51.319,0,0,1,8.051-8.888,1.391,1.391,0,1,0-1.967-1.967,54.023,54.023,0,0,0-8.486,9.451,1.391,1.391,0,0,0,2.4,1.4" transform="translate(-92.569 -82.631)" fill="#ffb726"/>
        <path id="Path_37990" data-name="Path 37990" d="M318.985,280.908a83.758,83.758,0,0,0,5.63-7.347,1.4,1.4,0,0,0-.5-1.9,1.426,1.426,0,0,0-1.9.5q-1.236,1.8-2.552,3.536l-.164.215-.1.127-.1.127-.167.213q-.336.427-.677.848-.7.87-1.437,1.717a1.391,1.391,0,0,0,1.967,1.967" transform="translate(-96.448 -82.697)" fill="#ffb726"/>
        <path id="Path_37991" data-name="Path 37991" d="M329.965,281.613c1.533-1.541,2.761-3.346,4.21-4.961a1.391,1.391,0,0,0-1.967-1.967c-1.448,1.615-2.676,3.42-4.209,4.961a1.391,1.391,0,0,0,1.967,1.967" transform="translate(-99.791 -83.551)" fill="#ffb726"/>
        <path id="Path_37992" data-name="Path 37992" d="M159.346,79.461v49.026c0,1.556,4.268,3.085,4.268,4.578V84.038c0-1.556-4.268-3.085-4.268-4.577" transform="translate(-48.539 -24.205)" fill="#09f"/>
        <path id="Path_37993" data-name="Path 37993" d="M156.9,120.906c-.009-2.546.047-5.418-1.474-7.592a28.661,28.661,0,0,0-4.4-4.766c-4.09-3.564-11.142.211-12.838,4.726-2.275,6.057,1.208,10.766,5.117,14.92,3.7,3.934,9.3,6.8,14.232,2.835-.082.066-4.113-4.7-4.268-4.577-3.581,2.882-8.847,2.227-12.188-.7l.641.655L141,125.66l3.627,3.922c-2.969-3.732-4.208-9.7-1.06-13.756,2.458-3.165,7.836-5.662,11.413-3l-4.2-4.49c1.9,2.162,1.832,5.279,1.842,7.995.006,1.561,4.263,3.079,4.268,4.577" transform="translate(-41.872 -32.635)" fill="#09f"/>
        <path id="Path_37994" data-name="Path 37994" d="M172.9,106.84c-1.248,3.617-2.645,7.558-2.486,11.445.107,2.613,1.254,4.16,2.929,5.97,1.431,1.545,2.947,3.76,5.028,4.44,3.859,1.26,5.939-2.218,6.53-5.491a18.545,18.545,0,0,0-4.8-16.421c-1.072-1.154-2.766-3.9-4.523-2.841-.971.586-1.6,2.258-2.146,3.2a22.973,22.973,0,0,0-2.507,5.779c-.293,1.115,4.541,3.539,4.268,4.577.519-1.98,3.645-11.168,6.736-8.708l-4.2-4.49c2.941,3.639,3.673,9.261,2.994,13.789-.614,4.094-4.45,9.041-8.627,4.768l3.965,4.276c-3.076-4.518-.492-11.1,1.1-15.714.332-.962-4.574-3.692-4.268-4.577" transform="translate(-51.907 -31.59)" fill="#09f"/>
        <path id="Path_37995" data-name="Path 37995" d="M196.524,103.253c-.676,2.808-.188,6.324-.083,9.192.121,3.295.521,6.57.575,9.868.026,1.567,4.268,3.076,4.268,4.577v-.822c0-1.556-4.268-3.085-4.268-4.577v.822l4.268,4.577c-.054-3.3-.454-6.573-.575-9.868-.106-2.885-.595-6.375.083-9.192.278-1.155-4.528-3.5-4.268-4.577" transform="translate(-59.757 -31.452)" fill="#09f"/>
        <path id="Path_37996" data-name="Path 37996" d="M200.473,117.025c2.414-1.736,8.209-9.173,11.909-6.708l-4.268-4.577c1.088,1.472.427,3.542.045,5.174a51.741,51.741,0,0,0-1.291,6.874c-.457,4.7-.785,10.129.509,14.705.51,1.8,3.77,2.814,4.268,4.577-1.451-5.129-1.035-11.425-.289-16.656.527-3.7,2.983-7.869.2-11.016-1.531-1.734-3.146-4.494-5.74-3.932-3.9.846-6.528,4.761-9.614,6.981.177-.127,4.016,4.759,4.268,4.577" transform="translate(-59.767 -32.104)" fill="#09f"/>
        <path id="Path_37997" data-name="Path 37997" d="M227.158,92.856c.01,2.028.152,4.052.163,6.08,0,.1.629.707.61.685q.745.818,1.5,1.624t1.516,1.613c.1.109.64.538.641.655-.011-2.028-.153-4.052-.164-6.08,0-.1-.629-.707-.609-.685q-.746-.818-1.5-1.625T227.8,93.511c-.1-.109-.64-.538-.64-.655" transform="translate(-69.196 -28.285)" fill="#09f"/>
        <path id="Path_37998" data-name="Path 37998" d="M239.806,76.553a186.136,186.136,0,0,0-1.286,20.574c-.061,6.745-.2,13.767.741,20.462.624,4.465,2.081,6.4,5.081,9.568.882.93,1.772,2.092,3.217,1.953,2.051-.2,3.357-2.7,4.238-4.275.332-.595-4.557-4.061-4.268-4.577-1.29,2.307-3.505,5.756-6.378,3.437l4.268,4.577c-1.794-2.384-1.946-5.948-2.178-8.817-.348-4.3-.4-8.64-.446-12.949a195.282,195.282,0,0,1,1.281-25.375c.165-1.369-4.425-3.279-4.268-4.577" transform="translate(-72.643 -23.319)" fill="#09f"/>
        <path id="Path_37999" data-name="Path 37999" d="M236.151,114.63c3.359.879,7.447-.28,10.845-.657l-4.268-4.577v.328c0,.511,1.754,1.927,2.111,2.31S247,113.783,247,114.3v-.328c0-.46-3.919-4.616-4.268-4.577-3.4.378-7.486,1.536-10.845.657.588.154,1.68,1.847,2.111,2.31.49.525,1.439,2.079,2.157,2.267" transform="translate(-70.635 -33.324)" fill="#09f"/>
        <path id="Path_38000" data-name="Path 38000" d="M292.522,125.331c.354-9.793.186-19.578.18-29.373a70.579,70.579,0,0,1,1.138-14.114c.348-1.722,1.636-7.377,4.275-4.947l-4.268-4.577c2.689,3.817,3.269,9.379,3.368,13.908.035,1.586,4.235,3.053,4.268,4.577-.112-5.1-.819-11.15-4.406-15.06-.99-1.079-2.163-2.876-3.464-3.639-2.387-1.4-3.4,2.366-3.829,4.121-1.677,6.841-1.371,14.038-1.29,21.021.09,7.833.042,15.678-.241,23.507-.054,1.5,4.32,3.139,4.268,4.577" transform="translate(-87.806 -21.871)" fill="#4e4e4f"/>
        <path id="Path_38001" data-name="Path 38001" d="M286.458,115.7H297c-.382,0-1.814-1.991-2.111-2.31-.348-.373-1.629-2.267-2.157-2.267H282.19c.382,0,1.814,1.991,2.111,2.31.348.373,1.629,2.267,2.157,2.267" transform="translate(-85.959 -33.849)" fill="#4e4e4f"/>
        <path id="Path_38002" data-name="Path 38002" d="M305.462,114.82c-2.361,2.467-2.4,5.55-2.143,8.788.208,2.658,1.137,4.058,2.885,5.945,1.275,1.375,2.868,3.781,4.737,4.38,2.711.87,6.29-1.389,7.608-3.647,2.875-4.928-.06-10.372-3.464-14.044-1.339-1.445-2.983-3.813-5.1-4.152-4.649-.743-5.912,4.715-6.629,8-.261,1.2,4.512,3.455,4.268,4.577.563-2.584.784-5.09,3.012-6.8a4.38,4.38,0,0,1,5.995.075l-3.988-4.254a11.33,11.33,0,0,1,2,11.262c-1.458,3.364-6.668,6.3-9.683,3.2l3.965,4.276c-2.5-3.417-2.1-10,.8-13.032.113-.119-4.317-4.526-4.268-4.577" transform="translate(-92.364 -34.123)" fill="#4e4e4f"/>
        <path id="Path_38003" data-name="Path 38003" d="M328.809,111.877v16.6c0,1.556,4.268,3.085,4.268,4.578v-16.6c0-1.556-4.268-3.085-4.268-4.577" transform="translate(-100.16 -34.079)" fill="#4e4e4f"/>
        <path id="Path_38004" data-name="Path 38004" d="M332.319,115.506c.2-2.255,4.33-8.6,7.005-6.033l-4.186-4.5c1.41,2.04.817,5.112.086,7.329-1.147,3.48-3.845,5.546-6.572,7.818.054-.045,4.142,4.682,4.268,4.577,3.375-2.812,6.215-5.2,7.042-9.716.638-3.482-.113-4.992-2.384-7.436-1.563-1.681-2.869-4.092-5.355-2.672-1.9,1.088-3.977,3.824-4.172,6.058-.038.441,1.795,1.971,2.111,2.31s2.2,1.823,2.157,2.267" transform="translate(-99.929 -31.814)" fill="#4e4e4f"/>
        <path id="Path_38005" data-name="Path 38005" d="M336.244,127.666c2.359-1.806,4.442-1.518,6.808-.072-5.131-3.137-3.4-4.63-2.622-2.309a5.717,5.717,0,0,1,.218,1.376,27.837,27.837,0,0,1-.333,5.622c-.051.412,1.811,1.988,2.111,2.31s2.209,1.855,2.157,2.268c.269-2.168.817-4.861.115-7-.547-1.667-2.275-3.068-3.416-4.288s-2.263-2.686-3.828-3.377a5.221,5.221,0,0,0-5.478.891c.124-.1,4.07,4.729,4.268,4.577" transform="translate(-101.125 -37.093)" fill="#4e4e4f"/>
        <path id="Path_38006" data-name="Path 38006" d="M359.7,100.883c-3.991,2.957-5.042,8.957-5.446,13.581-.324,3.706-.474,8.015,1.944,11.1,1.3,1.658,3.672,4.89,5.729,5.687,2.335.9,7.34-1.156,8.1-3.622.317-1.031-4.562-3.624-4.268-4.577-1.026,3.333-7.107,4.946-9.515,2.544l4.186,4.5c-2.364-3.126-2.234-7.333-1.909-11.057.406-4.649,1.448-10.62,5.446-13.582-.152.113-4.042-4.745-4.268-4.577" transform="translate(-107.855 -30.729)" fill="#4e4e4f"/>
        <path id="Path_38007" data-name="Path 38007" d="M366.429,128.994a39.6,39.6,0,0,0,5.272-.791l-4.268-4.577c.987,3.749.177,8.322.063,12.153-.058,1.933-.846,6.186.465,7.877,1.274,1.645,3,2.939,4.268,4.577-1.291-1.666-.522-5.991-.465-7.877.115-3.839.926-8.4-.063-12.153-.147-.56-3.884-4.649-4.268-4.577a39.525,39.525,0,0,1-5.272.791c1.3-.067,2.892,4.648,4.268,4.577" transform="translate(-110.32 -37.658)" fill="#4e4e4f"/>
        <path id="Path_38008" data-name="Path 38008" d="M384.884,119.638c3.271-.273,6.971.329,10.164-.355,1.4-.3.894.389,1.41-.968a9.7,9.7,0,0,0,.188-2.659,6.151,6.151,0,0,0-1.232-3.932,27.966,27.966,0,0,0-4.521-4.777c-3.246-2.581-8.2-2.294-9.905,1.779-2.266,5.4-.4,12.7,3.373,16.922,1.616,1.809,3.316,4.054,5.4,5.359a9.439,9.439,0,0,0,4.53,1.312c1.025.045,3.715-.758,4.461-.216-1.648-1.2-2.6-3.368-4.268-4.577-.738-.536-2.907.225-3.94.228a9.967,9.967,0,0,1-4.386-.95c-3.535-1.763,1.426,1.118.913,1.515a19.17,19.17,0,0,1-1.134-2.113,18.131,18.131,0,0,1-1.225-4.4c-.462-2.958-.613-6.658.94-9.329,2.08-3.576,7.011-3.179,9.836-.668l-4.268-4.577a6.925,6.925,0,0,1,1.129,4.727,5.972,5.972,0,0,1-.2,2.215c-.417.624-.83.5-1.763.549-3.254.161-6.521.066-9.77.338,1.25-.1,2.946,4.688,4.268,4.577" transform="translate(-115.755 -32.07)" fill="#4e4e4f"/>
        <path id="Path_38009" data-name="Path 38009" d="M416.361,82.693v49.285c0,1.556,4.268,3.085,4.268,4.578V135.5c0-1.556-4.268-3.085-4.268-4.578v1.054c0,1.556,4.268,3.085,4.268,4.578V87.27c0-1.556-4.268-3.085-4.268-4.577" transform="translate(-126.83 -25.19)" fill="#4e4e4f"/>
        <path id="Path_38010" data-name="Path 38010" d="M413.807,107.737h9.751c-.382,0-1.814-1.991-2.112-2.31-.348-.373-1.629-2.267-2.156-2.267h-9.751c.382,0,1.814,1.991,2.111,2.31.348.373,1.629,2.267,2.157,2.267" transform="translate(-124.752 -31.424)" fill="#4e4e4f"/>
        <path id="Path_38011" data-name="Path 38011" d="M235.216,417.055a23.355,23.355,0,0,1,3.545-11.945,16.469,16.469,0,0,1,3.327-3.958,4.91,4.91,0,0,1,3.131-1.343,1.707,1.707,0,0,1,1.136.636,5.127,5.127,0,0,1,.948,2.213,12.762,12.762,0,0,1-.232,5.439,43.161,43.161,0,0,1-4.164,10.632c-2.14,4.046-4.8,7.777-7.258,11.63-.524.821-1.038,1.649-1.533,2.487-.261.443-.617.886-.837,1.347-.031.064-.2.075-.161.163a.539.539,0,0,1,.5-.115.916.916,0,0,1-.218-.134,24.972,24.972,0,0,1-1.451-2.127,30.457,30.457,0,0,1-1.31-2.777c-.783-1.862-1.531-3.722-2.411-5.542-1-2.06-1.964-4.133-2.764-6.278a44.281,44.281,0,0,1-1.775-5.963,9.846,9.846,0,0,1-.163-4.547,3.11,3.11,0,0,1,.9-1.419c-.006.006.41-.258.181-.128a2.033,2.033,0,0,1,.261-.075c-.15.015-.141.017.026.007.046,0,.272.017.029-.015.053.008.516.145.336.073a7.25,7.25,0,0,1,2.851,2.839c.408.606.784,1.234,1.131,1.875.15.277.294.558.431.841.06.124.118.25.176.374.035.076.068.152.1.229-.065-.156-.069-.164-.013-.026.885,2.329.879,4.886,2.24,7.039.954,1.51,3.362.115,2.4-1.4-1.275-2.019-1.193-4.562-2.111-6.74a21.09,21.09,0,0,0-2.063-3.751c-1.643-2.39-4.8-5.722-7.79-3.229-3.159,2.632-1.985,7.4-1.09,10.813,1.309,4.987,3.842,9.4,5.768,14.136a34.92,34.92,0,0,0,3.006,6.324,4.888,4.888,0,0,0,2.583,2.288,2.438,2.438,0,0,0,2.564-1.017,32.223,32.223,0,0,0,1.9-3.024c.65-1.049,1.323-2.085,2-3.116,1.421-2.165,2.866-4.316,4.2-6.535a53.85,53.85,0,0,0,5.806-12.834,19.544,19.544,0,0,0,.883-6.674c-.144-2-.725-4.3-2.33-5.64-2.941-2.46-6.844-.12-8.986,2.262a25.18,25.18,0,0,0-6.141,12.922,29.678,29.678,0,0,0-.348,3.788c-.047,1.791,2.735,1.789,2.782,0" transform="translate(-67.183 -120.943)" fill="#e96849"/>
        <path id="Path_38012" data-name="Path 38012" d="M228.428,433.026a44.446,44.446,0,0,1,5.9,2.653c.961.512,1.9,1.066,2.844,1.6.919.518,1.907.9,2.853,1.362l.351-1.3h-.1a.7.7,0,0,0,0,1.391h.1a.7.7,0,0,0,.351-1.3c-1.012-.5-2.06-.906-3.038-1.469-.944-.544-1.887-1.085-2.85-1.594a46.767,46.767,0,0,0-6.039-2.692c-.844-.3-1.208,1.041-.37,1.341" transform="translate(-69.438 -131.484)" fill="#e96849"/>
        <path id="Path_38013" data-name="Path 38013" d="M225.564,425.644c2.921,1.452,5.874,2.8,8.7,4.435,1.328.771,2.7,1.445,4.042,2.178a14.111,14.111,0,0,0,3.6,1.592c.871.2,1.243-1.141.37-1.341a15.333,15.333,0,0,1-3.6-1.631c-1.337-.692-2.654-1.39-3.957-2.145-2.741-1.588-5.614-2.88-8.447-4.288-.8-.4-1.5.8-.7,1.2" transform="translate(-68.602 -129.268)" fill="#e96849"/>
        <path id="Path_38014" data-name="Path 38014" d="M223.451,418.6c.9.446,1.846.753,2.782,1.115a29.14,29.14,0,0,1,2.915,1.371c.984.513,1.977,1.009,2.97,1.505.613.306,1.439.956,2.158.784.871-.207.5-1.549-.369-1.341.234-.056.046-.05-.113-.136-.112-.06-.22-.127-.332-.186-.483-.258-.98-.49-1.47-.735-.889-.444-1.769-.906-2.655-1.356-.841-.426-1.694-.825-2.567-1.179s-1.768-.623-2.618-1.042c-.8-.395-1.5.8-.7,1.2" transform="translate(-67.959 -127.121)" fill="#e96849"/>
        <path id="Path_38015" data-name="Path 38015" d="M224.888,413.966a57.059,57.059,0,0,1,8.459,4.046.7.7,0,0,0,.7-1.2,59.3,59.3,0,0,0-8.791-4.186c-.841-.31-1.2,1.034-.37,1.341" transform="translate(-68.36 -125.678)" fill="#e96849"/>
        <path id="Path_38016" data-name="Path 38016" d="M238.4,425.1a5.617,5.617,0,0,0,2.044,1.275c.934.4,1.814.976,2.723,1.438A39.629,39.629,0,0,0,249,430.275c.855.272,1.22-1.07.37-1.341a37.238,37.238,0,0,1-5.5-2.324c-.871-.442-1.712-.971-2.594-1.383a5.45,5.45,0,0,1-1.891-1.113c-.6-.668-1.58.318-.983.983" transform="translate(-72.564 -129.124)" fill="#e96849"/>
        <path id="Path_38017" data-name="Path 38017" d="M240.643,417.471c1.789.845,3.671,1.451,5.528,2.124,1.9.688,3.735,1.527,5.615,2.259.835.325,1.2-1.019.37-1.341-1.818-.707-3.592-1.519-5.425-2.189-1.8-.66-3.646-1.232-5.386-2.053-.8-.38-1.511.818-.7,1.2" transform="translate(-73.194 -126.78)" fill="#e96849"/>
        <path id="Path_38018" data-name="Path 38018" d="M244.481,409.644a10.951,10.951,0,0,1,2.465.891c.88.369,1.757.75,2.626,1.145a22.571,22.571,0,0,0,5.3,2.081q.093-.683.185-1.366l.057,0c-.734-.516-1.43.689-.7,1.2a1.126,1.126,0,0,0,.645.193c.768.028.967-1.226.185-1.366a23.263,23.263,0,0,1-5.309-2.094c-.871-.389-1.747-.776-2.629-1.14a11.163,11.163,0,0,0-2.451-.882.718.718,0,0,0-.855.486.7.7,0,0,0,.485.855" transform="translate(-74.318 -124.371)" fill="#e96849"/>
        <path id="Path_38019" data-name="Path 38019" d="M248.042,404.718c3.115,1.344,6.044,3.09,9.158,4.432a.721.721,0,0,0,.952-.25.7.7,0,0,0-.25-.951c-3.115-1.343-6.044-3.088-9.159-4.432a.719.719,0,0,0-.951.25.7.7,0,0,0,.25.951" transform="translate(-75.454 -122.893)" fill="#e96849"/>
        <path id="Path_38020" data-name="Path 38020" d="M165.877,395.073v32.762c0,1.556,4.268,3.085,4.268,4.577V399.65c0-1.556-4.268-3.085-4.268-4.577" transform="translate(-50.529 -120.345)" fill="#4e4e4f"/>
        <path id="Path_38021" data-name="Path 38021" d="M159.06,418.588h14.454c-.382,0-1.814-1.991-2.111-2.31-.348-.373-1.629-2.267-2.157-2.267H154.792c.382,0,1.814,1.991,2.111,2.31.348.373,1.629,2.267,2.157,2.267" transform="translate(-47.152 -126.114)" fill="#4e4e4f"/>
        <path id="Path_38022" data-name="Path 38022" d="M183.314,418.247a10.49,10.49,0,0,0-4.464,7.605c-.2,2.394.862,3.9,2.4,5.569,2.7,2.936,6.8,7.785,10.774,3.455,2.111-2.3,2.52-5.536,2.307-8.519a8.884,8.884,0,0,0-2.786-5.914c-1.132-1.232-3.2-4.453-5.24-4.1-1.268.22-1.853,1.478-2.526,2.414-.561.78-2.162,2.023-1.745,3.022.759,1.819,3.522,2.788,4.268,4.577-.362-.869.318-1.212.843-1.83.54-.636.919-1.314,1.413-1.994,1.1-1.518,2.392-2.169,4.026-.937l-3.989-4.254c3.419,3.763,1.695,14.2-4.158,14.634-1.145.086-1.946-.455-2.989-.714q-2.349-1.605,2.389,2.718a3.921,3.921,0,0,1-.361-.755,12.776,12.776,0,0,1-.385-2.049,10.372,10.372,0,0,1,4.5-8.352c-.207.144-3.985-4.774-4.268-4.577" transform="translate(-54.473 -126.817)" fill="#4e4e4f"/>
        <path id="Path_38023" data-name="Path 38023" d="M296.19,412.571c-2.663-.727-7.649,1.881-5.629,4.992a29.66,29.66,0,0,0,4.418,4.8,32.141,32.141,0,0,0,3.238,2.432c2.777,2.06-1.065-1.142-.984-1.177.258-.111.578,1.859.542,2.174-.364,3.209-5.06,3.777-7.368,2.525l4.268,4.577v-.643c0-.51-1.754-1.927-2.111-2.31s-2.157-1.749-2.157-2.267v.643c0,.764,3.556,4.191,4.268,4.577a6.4,6.4,0,0,0,6.1-.321c2.174-1.686,1.06-4.131-.357-5.822-1.168-1.394-2.467-2.7-3.726-4.011-1.775-1.85-3.967-3.068-5.822-4.8l4.186,4.5c-2.5-3.151,2.515-6.071,5.4-5.286-1.687-.46-2.533-4.1-4.268-4.577" transform="translate(-88.366 -125.638)" fill="#4e4e4f"/>
        <path id="Path_38024" data-name="Path 38024" d="M309.025,412.164V429.83c0,1.556,4.268,3.085,4.268,4.577v-.962c0-1.556-4.268-3.085-4.268-4.577v.962c0,1.556,4.268,3.085,4.268,4.577V416.741c0-1.556-4.268-3.085-4.268-4.577" transform="translate(-94.134 -125.551)" fill="#4e4e4f"/>
        <path id="Path_38025" data-name="Path 38025" d="M314.215,424.571c2.195-1.458,5.266-7.114,8.2-4.621l-4.2-4.489c1.484,1.75,1.157,4.474.985,6.59a33.709,33.709,0,0,0,.056,6.936c.071.62,4.427,4.419,4.268,4.578l.321-.321c.084-.084-4.286-4.56-4.268-4.577l-.321.321,4.268,4.578a42.937,42.937,0,0,1,.016-7.876c.131-2.153.12-4.222-1.3-5.944-1.238-1.5-3-4.129-4.858-4.914-2.626-1.109-5.5,3.876-7.44,5.163.246-.163,3.945,4.792,4.268,4.577" transform="translate(-94.414 -126.315)" fill="#4e4e4f"/>
        <path id="Path_38026" data-name="Path 38026" d="M327.789,425.706a38.717,38.717,0,0,0,4.451-2.907c1.4-.924,3.029-2.47,4.473-1.073l-4.186-4.5c1.407,1.933,1.138,4.547,1.073,6.833-.072,2.546-.311,5.086-.344,7.633-.006.5,1.761,1.934,2.111,2.31s2.163,1.76,2.157,2.267c.056-4.4,1.907-11.078-1.009-14.789-1.044-1.329-2.956-4-4.517-4.765-2.149-1.054-6.492,3.457-8.478,4.416.517-.25,3.67,4.866,4.268,4.577" transform="translate(-98.549 -126.889)" fill="#4e4e4f"/>
        <path id="Path_38027" data-name="Path 38027" d="M346.9,415.4c.029,2.687.226,5.356.484,8.03.2,2.049-.227,4.247.8,6.1.985,1.779,3.293,2.818,4.268,4.577-1.028-1.856-.6-4.054-.8-6.1-.258-2.674-.455-5.343-.484-8.03-.006-.519-1.749-1.921-2.111-2.31s-2.152-1.739-2.157-2.267" transform="translate(-105.671 -126.536)" fill="#4e4e4f"/>
        <path id="Path_38028" data-name="Path 38028" d="M354.753,394.611c.325,4.085,1.131,8.115,1.48,12.205.337,3.954.459,7.923,1.108,11.845.392,2.371.721,5.053,2.277,6.934,1.081,1.307,2.6,3.486,4.222,4.108-1.731-.665-2.5-3.9-4.268-4.577l-.563-.216,4.268,4.578c-2.281-3.885-2.2-9.869-2.491-14.239-.362-5.39-1.337-10.691-1.764-16.06-.132-1.656-4.141-2.979-4.268-4.577" transform="translate(-108.063 -120.204)" fill="#4e4e4f"/>
        <path id="Path_38029" data-name="Path 38029" d="M377.1,420.918a52.807,52.807,0,0,0,6.626-.135c.413-.027,3.71.054,3.975-.186.318-.289.3-1.364.334-1.742a7.188,7.188,0,0,0-2.134-6.017c-1.341-1.461-2.8-3.564-4.652-4.434-3.244-1.524-6.622,1.072-8.158,3.823-3.138,5.624.611,9.782,4.294,13.668a11.445,11.445,0,0,0,5.567,3.74c4,.987,7.669-.764,11.494-1.65-.975.226-3.213-4.821-4.268-4.577-3.517.815-6.89,2.4-10.583,1.832-1.283-.2-2.607-1.323-3.752-1.432q-1.71-1.183,1.588,1.855-.2-.37-.41-.74c-.173-.682-.53-1.3-.677-2.01-1.139-5.469,5.042-13.8,10.594-8.924l-4.268-4.577c.9,1.278,1.993,4.845.85,6.292-.577.729-3.6.475-4.724.549a47,47,0,0,1-5.963.088c1.476.088,2.728,4.486,4.268,4.577" transform="translate(-113.29 -124.268)" fill="#4e4e4f"/>
        <path id="Path_38030" data-name="Path 38030" d="M348.4,409.65h.642l-4.268-4.577a6.726,6.726,0,0,0,.321,2.57,3.772,3.772,0,0,0,.608.686c.5.544,1,1.085,1.5,1.624s1.007,1.078,1.516,1.612c.1.107.643.542.641.655a39.909,39.909,0,0,0,0-6.1c-.019-.135-.595-.67-.609-.686q-.746-.817-1.5-1.624c-.5-.539-1.007-1.078-1.516-1.612-.123-.129-.62-.5-.641-.655a39.909,39.909,0,0,1,0,6.1l4.268,4.577a6.725,6.725,0,0,1-.321-2.57c0-.1-.63-.708-.609-.686q-.746-.817-1.5-1.624c-.5-.539-1.007-1.078-1.516-1.612-.108-.114-.5-.655-.641-.655h-.642a7.3,7.3,0,0,1,.609.685q.746.818,1.5,1.625t1.516,1.612c.108.114.5.655.641.655" transform="translate(-104.827 -122.315)" fill="#4e4e4f"/>
        <path id="Path_38031" data-name="Path 38031" d="M411.68,390.447c.035,8.234.722,16.426,1.407,24.626.14,1.661,4.135,2.974,4.268,4.577-.685-8.2-1.372-16.392-1.407-24.626-.007-1.562-4.262-3.078-4.268-4.577" transform="translate(-125.404 -118.936)" fill="#ff6b73"/>
        <path id="Path_38032" data-name="Path 38032" d="M413.987,440.358l.117.131-.279-.323a5.8,5.8,0,0,1,.586,3.387c0,.1.63.709.609.685q.746.818,1.5,1.624t1.515,1.613c.1.108.641.539.641.655,0-1.442.014-2.723-.983-3.841-.949-1.065-1.932-2.1-2.912-3.139-.328-.347-.643-.718-.994-1.039-.26-.238.257.313.2.247l.117.131-.279-.323a5.8,5.8,0,0,1,.586,3.387c0,.1.63.709.609.685q.746.818,1.5,1.624t1.515,1.613c.1.108.641.539.641.655,0-1.442.014-2.723-.983-3.841-.949-1.065-1.932-2.1-2.912-3.139-.328-.347-.643-.718-.994-1.039-.26-.238.257.313.2.247" transform="translate(-126.024 -134.046)" fill="#ff6b73"/>
      </g>
    </g>
    <g id="Group_17394" data-name="Group 17394" transform="translate(21.125 5.777)">
      <g id="Group_17393" data-name="Group 17393" clip-path="url(#clip-path-3)">
        <path id="Path_38033" data-name="Path 38033" d="M272.712,343.547c.081-.079.164-.153.248-.228.193-.172-.092.06.044-.034.188-.13.38-.253.581-.365q.173-.1.35-.182c.027-.013.336-.156.206-.1s.193-.077.223-.088c.134-.051.27-.1.406-.145a12.768,12.768,0,0,1,6.124-.46q.352.071.7.17.2.057.4.125c.009,0,.414.157.17.054a5.25,5.25,0,0,1,.576.289c.107.063.211.129.314.2.245.163-.143-.128.1.077a1.427,1.427,0,0,0,1.967,0,1.4,1.4,0,0,0,0-1.967c-1.985-1.684-4.795-2.048-7.314-1.871-2.455.172-5.231.788-7.055,2.56-1.286,1.25.681,3.215,1.967,1.967" transform="translate(-103.471 -109.036)" fill="#f6b507"/>
        <path id="Path_38034" data-name="Path 38034" d="M90.9,279.776l22.229-7.886c1.675-.594.953-3.283-.74-2.682l-22.229,7.886c-1.676.595-.954,3.283.739,2.682" transform="translate(-48.299 -87.756)" fill="#ff6b73"/>
        <path id="Path_38035" data-name="Path 38035" d="M118.764,272.683c-.786,4.566-1.381,9.167-2.325,13.705a63.909,63.909,0,0,1-1.719,6.63c-.3.93-.637,1.845-.994,2.754-.107.273-.206.549-.312.823a2.433,2.433,0,0,1-.116.3c-.072.3-.436.35.248-.1l1.072-.14-.033-.007.831.64-.026-.044a1.392,1.392,0,0,0-2.4,1.4,1.484,1.484,0,0,0,2.6-.115,13.829,13.829,0,0,0,.822-2.019q.1-.262.006-.017c.072-.158.137-.319.2-.481.116-.3.224-.6.331-.9q.347-.974.653-1.964c.391-1.268.735-2.551,1.042-3.843,1.245-5.236,1.9-10.587,2.81-15.886a1.431,1.431,0,0,0-.971-1.711,1.4,1.4,0,0,0-1.711.971" transform="translate(-55.479 -88.532)" fill="#ff6b73"/>
        <path id="Path_38036" data-name="Path 38036" d="M115.571,308.211l18.657-6.619c1.675-.594.954-3.282-.739-2.682l-18.656,6.619c-1.676.595-.954,3.283.739,2.682" transform="translate(-55.815 -96.803)" fill="#ff6b73"/>
        <path id="Path_38037" data-name="Path 38037" d="M123.718,294.093c-3.049,5.81-5.7,11.816-8.284,17.842A86.988,86.988,0,0,0,112.11,321c-.46,1.515-.951,3.037-1.325,4.576a22.628,22.628,0,0,1-.91,3.821h2.4c-2.041-4.682-2.447-9.92-3.621-14.846a23.952,23.952,0,0,0-.68-2.791,1.958,1.958,0,0,0-1.871-1.375,6.753,6.753,0,0,0-2.167.659,12.7,12.7,0,0,0-2.772,1.681,13.749,13.749,0,0,1-3.409,1.945c-.7.23-1.4.409-2.1.655h.74c.4.095.3.367.291.168a5.7,5.7,0,0,0-.161-.716c-.072-.417-.1-.843-.187-1.257-.284-1.386-.542-2.779-.84-4.163-.665-3.085-1.45-6.142-2.263-9.19-.84-3.146-1.526-6.332-2.415-9.466a44.911,44.911,0,0,1-1.326-4.664c-.241-1.421-.712-2.8-.871-4.236L86.534,283q.156.07.305.152.331.2-.266-.33c.611,1.667,3.3.946,2.682-.74a2.4,2.4,0,0,0-1.317-1.484c-.842-.407-2.22.06-2.092,1.2a31.093,31.093,0,0,0,.67,3.529c.131.572.26,1.147.346,1.729a13.357,13.357,0,0,0,.6,2.138c.821,2.557,1.47,5.166,2.089,7.778,1.237,5.219,2.769,10.354,3.776,15.63.15.782.322,1.557.433,2.346a4.406,4.406,0,0,0,.866,2.447,1.875,1.875,0,0,0,2.128.485c.7-.248,1.427-.4,2.121-.667a15.086,15.086,0,0,0,3.01-1.617,27.44,27.44,0,0,1,2.672-1.827,10.632,10.632,0,0,1,1.174-.45c.094-.034.2-.063.289-.1.314-.131.166.048.081-.051a5.517,5.517,0,0,0-.718-.427c-.087-.007-.034-.189.027.137.1.56.234,1.1.374,1.659,1.38,5.428,1.829,11.086,4.087,16.266a1.4,1.4,0,0,0,2.4,0,19.736,19.736,0,0,0,1.069-3.939c.326-1.521.815-3.016,1.261-4.5a83.6,83.6,0,0,1,3.229-9.016c2.589-6.026,5.236-12.031,8.285-17.841.831-1.584-1.569-2.992-2.4-1.4" transform="translate(-47.272 -91.207)" fill="#ff6b73"/>
        <path id="Path_38038" data-name="Path 38038" d="M109.886,277.491q.482.2.963.4l.244.1c-.129-.054-.118-.049.035.015l.491.211c.64.277,1.277.562,1.906.863a27.811,27.811,0,0,1,3.662,2.064,1.4,1.4,0,0,0,1.9-.5,1.425,1.425,0,0,0-.5-1.9,43.307,43.307,0,0,0-7.966-3.936,1.4,1.4,0,0,0-1.711.971,1.435,1.435,0,0,0,.971,1.711" transform="translate(-54.289 -89.466)" fill="#ff6b73"/>
        <path id="Path_38039" data-name="Path 38039" d="M98.178,280.468c2.395,1.254,4.957,2.131,7.457,3.146,2.531,1.028,4.8,2.563,7.346,3.566a1.4,1.4,0,0,0,1.711-.971,1.423,1.423,0,0,0-.971-1.711,28.674,28.674,0,0,1-3.524-1.747,32.027,32.027,0,0,0-3.575-1.718c-2.357-.968-4.777-1.782-7.039-2.967-1.584-.83-2.992,1.57-1.4,2.4" transform="translate(-50.819 -90.428)" fill="#ff6b73"/>
        <path id="Path_38040" data-name="Path 38040" d="M88.874,289.368a19.177,19.177,0,0,0,4.3,2c1.814.7,3.622,1.4,5.417,2.143,1.494.617,2.98,1.243,4.492,1.811a14.13,14.13,0,0,0,3.873,1.077c1.786.129,1.777-2.653,0-2.782a13.982,13.982,0,0,1-3.252-1.022c-1.472-.555-2.919-1.165-4.373-1.766-1.638-.677-3.282-1.339-4.94-1.964a17.929,17.929,0,0,1-4.117-1.9,1.4,1.4,0,0,0-1.9.5,1.42,1.42,0,0,0,.5,1.9" transform="translate(-47.988 -93.131)" fill="#ff6b73"/>
        <path id="Path_38041" data-name="Path 38041" d="M92.606,300.772c5.222,1.706,10.612,3.021,15.543,5.5,1.6.8,3-1.6,1.4-2.4-5.154-2.592-10.751-4-16.207-5.781-1.705-.557-2.436,2.128-.739,2.682" transform="translate(-49.041 -96.557)" fill="#ff6b73"/>
        <path id="Path_38042" data-name="Path 38042" d="M95.031,312.087c.965,1.513,2.769,1.884,4.37,2.382,2.233.693,4.432,1.492,6.669,2.174,2.3.7,4.641,1.268,6.952,1.941,1.083.316,2.163.638,3.254.925s2.076.907,3.193,1.1c.95.164,2.1-.617,1.711-1.711q-.069-.193-.137-.386c-.592-1.677-3.281-.955-2.682.739.045.129.091.257.137.386l1.711-1.711a22.623,22.623,0,0,1-2.733-.981c-1.072-.33-2.17-.592-3.248-.907-2.147-.627-4.319-1.158-6.464-1.791-2.119-.624-4.216-1.32-6.309-2.024-.823-.277-1.652-.524-2.48-.783-.469-.146-1.264-.322-1.542-.758-.96-1.506-3.368-.111-2.4,1.4" transform="translate(-50.005 -100.219)" fill="#ff6b73"/>
        <path id="Path_38043" data-name="Path 38043" d="M492.265,204.292q-8.224-5.94-16.448-11.881a1.4,1.4,0,0,0-1.9.5,1.421,1.421,0,0,0,.5,1.9q8.227,5.936,16.448,11.881a1.4,1.4,0,0,0,1.9-.5,1.421,1.421,0,0,0-.5-1.9" transform="translate(-165.429 -64.327)" fill="#b94da1"/>
        <path id="Path_38044" data-name="Path 38044" d="M472.22,195.611c-.511,4.448-1.232,8.877-1.493,13.349a40.089,40.089,0,0,0,.039,6.608l.05.37c-.022-.152-.026-.167-.014-.047l.033.43c.023.3.047.6.083.894a1.824,1.824,0,0,0,1.158,1.75,1.4,1.4,0,0,0,1.353-.357l.038-.031c1.377-1.147-.6-3.106-1.967-1.967l-.038.031,1.353-.357-.033-.013.831.639c.143.247.067.15.041-.12s-.039-.547-.064-.82c-.068-.755-.124-1.5-.152-2.263a53.815,53.815,0,0,1,.163-6.1c.314-4.014.941-7.995,1.4-11.993a1.4,1.4,0,0,0-1.391-1.391,1.424,1.424,0,0,0-1.391,1.391" transform="translate(-164.48 -64.94)" fill="#b94da1"/>
        <path id="Path_38045" data-name="Path 38045" d="M466.316,222.187l-13.8-9.972a1.4,1.4,0,0,0-1.9.5,1.421,1.421,0,0,0,.5,1.9l13.8,9.972a1.4,1.4,0,0,0,1.9-.5,1.421,1.421,0,0,0-.5-1.9" transform="translate(-158.33 -70.36)" fill="#b94da1"/>
        <path id="Path_38046" data-name="Path 38046" d="M450.9,213.4c1.095,5.446,1.823,10.953,2.492,16.465a72.614,72.614,0,0,1,.51,8.182c.01,1.277.045,2.566-.017,3.843a20.877,20.877,0,0,0-.134,3.632c.133,1.047,1.509,2.021,2.375.983,2.681-3.215,4.352-7.046,6.324-10.7.488-.9,1.042-1.777,1.518-2.686a2.324,2.324,0,0,0,.181-.353c.1-.322.1.2-.639.189-.921-.014-.4-.192-.3-.038a2.789,2.789,0,0,0,.56.406c1.337,1.02,2.18,2.559,3.374,3.74a12.3,12.3,0,0,0,2.085,1.57,4.843,4.843,0,0,0,1.213.776c1.791.493,2.5-1.545,3.126-2.749,2.063-3.979,4.327-7.822,6.637-11.662,1.355-2.251,2.588-4.567,4.03-6.767.358-.545.75-1.069,1.1-1.617.321-.5.543-1.058.827-1.584.583-1.081,1.2-2.12,1.673-3.255.457-1.088-.809-1.862-1.711-1.711a2.245,2.245,0,0,0-1.549,1.015,1.4,1.4,0,0,0,.5,1.9,1.422,1.422,0,0,0,1.9-.5c-.315.427-.7.362-.113.264l-1.711-1.711c-.5,1.179-1.257,2.231-1.8,3.387a31,31,0,0,1-2.052,3.23c-1.474,2.328-2.781,4.756-4.211,7.111s-2.832,4.7-4.145,7.112c-.586,1.075-1.139,2.17-1.709,3.252-.168.318-.31.646-.462.972a4.731,4.731,0,0,0-.315.617c-.108.386-.483-.062.351-.038l.7.19c-.6-.43-1.272-.789-1.837-1.25a16.879,16.879,0,0,1-2.395-2.652c-.992-1.243-3.317-3.906-5.034-2.266a4.483,4.483,0,0,0-.779,1.232c-.33.615-.719,1.2-1.058,1.812-.678,1.223-1.311,2.471-1.949,3.715a37.676,37.676,0,0,1-4.3,7.083l2.374.983a20.877,20.877,0,0,1,.134-3.632c.061-1.276.027-2.565.017-3.843a75.444,75.444,0,0,0-.551-8.516c-.688-5.647-1.43-11.29-2.551-16.869-.353-1.754-3.034-1.012-2.682.739" transform="translate(-158.466 -69.758)" fill="#b94da1"/>
        <path id="Path_38047" data-name="Path 38047" d="M480.681,199.792a37.632,37.632,0,0,0-7.59,1.339,1.391,1.391,0,0,0,.739,2.683,23.9,23.9,0,0,1,3.516-.819c.3-.049.6-.094.905-.137a1.2,1.2,0,0,1,.147-.02l.515-.065c.589-.072,1.179-.136,1.769-.2a1.425,1.425,0,0,0,1.391-1.391,1.405,1.405,0,0,0-1.391-1.391" transform="translate(-164.922 -66.635)" fill="#b94da1"/>
        <path id="Path_38048" data-name="Path 38048" d="M486.186,205.157c-2.144.428-4.332.508-6.5.738a27.891,27.891,0,0,0-3.39.565,24.141,24.141,0,0,1-3.276.577,1.429,1.429,0,0,0-1.391,1.391,1.4,1.4,0,0,0,1.391,1.391c2.343-.213,4.585-.931,6.92-1.168s4.68-.351,6.984-.812a1.391,1.391,0,0,0-.739-2.682" transform="translate(-164.79 -68.261)" fill="#b94da1"/>
        <path id="Path_38049" data-name="Path 38049" d="M490.645,214.742a16.282,16.282,0,0,1-4.008.574c-1.532.12-3.061.273-4.588.439-1.286.139-2.567.283-3.856.38-.53.04-1.06.077-1.592.092a8.218,8.218,0,0,1-1.22-.037c-1.746-.373-2.492,2.307-.74,2.682a11.852,11.852,0,0,0,3.324.06c1.366-.1,2.723-.249,4.085-.4,1.631-.177,3.264-.339,4.9-.462a18.012,18.012,0,0,0,4.434-.649c1.685-.575.962-3.263-.739-2.682" transform="translate(-165.403 -71.166)" fill="#b94da1"/>
        <path id="Path_38050" data-name="Path 38050" d="M486.172,223.2c-4.96.154-9.934-.026-14.84.872a1.4,1.4,0,0,0-.971,1.711,1.42,1.42,0,0,0,1.711.971c4.647-.851,9.4-.627,14.1-.773,1.786-.055,1.793-2.837,0-2.782" transform="translate(-164.391 -73.766)" fill="#b94da1"/>
        <path id="Path_38051" data-name="Path 38051" d="M476.531,232.679c-.3.259-1.087.171-1.453.175-.751.007-1.5.022-2.25.051-1.9.075-3.805.141-5.709.141-1.815,0-3.628-.083-5.443-.083-.915,0-1.83-.012-2.745-.025-.942-.014-1.87.238-2.811.14q.6,1.047,1.2,2.093l.205-.285a1.4,1.4,0,0,0-.5-1.9,1.422,1.422,0,0,0-1.9.5l-.206.285c-.681.945.266,2,1.2,2.092s1.869-.154,2.811-.14q1.535.022,3.071.025c2.044,0,4.085.1,6.129.077,1.971-.022,3.938-.136,5.908-.183,1.579-.038,3.179.1,4.459-.993,1.366-1.161-.61-3.12-1.967-1.967" transform="translate(-159.63 -76.548)" fill="#b94da1"/>
        <path id="Path_38052" data-name="Path 38052" d="M68.082,75.3c-4.93-7.967-1.631-19.414,6.767-23.587,2.3-1.144,4.8-1.682,7.2-.476A14.555,14.555,0,0,1,84.526,53.1c2.558,2.019-1.286-2.637-.089-.124.928,1.948,2.442,4,1.8,6.317-.795,2.875-3.624,3.028-5.592,1.4L84.3,64.583l-.631-.691.609.685c-6.6-8.984-6.731-22.535-4.438-33.134C82.462,19.344,90.091,9.1,101.793,4.59c-.686.265-3.5-4.873-4.268-4.577C77.377,7.784,70.682,32.3,75.882,51.873c1.121,4.22,3.4,7.38,6.308,10.519a23.281,23.281,0,0,0,3.063,3.158A3.245,3.245,0,0,0,90.6,63.1c.255-3.939-3.122-7.272-5.589-9.934s-5.571-6.642-9.36-7.158c-5.414-.738-10.527,4.554-12.548,9.035a16.681,16.681,0,0,0,.706,15.679c1.081,1.747,3.2,2.846,4.268,4.577" transform="translate(-39.857 -5.777)" fill="#ff8124"/>
        <path id="Path_38053" data-name="Path 38053" d="M381.082,540.3c-4.929-7.967-1.631-19.414,6.766-23.588,2.3-1.144,4.8-1.682,7.2-.476a14.518,14.518,0,0,1,2.479,1.863c2.558,2.019-1.286-2.638-.089-.124.928,1.948,2.441,4,1.8,6.318-.795,2.875-3.624,3.028-5.592,1.4l3.659,3.891-.631-.691.608.686c-6.6-8.982-6.73-22.537-4.437-33.135,2.617-12.1,10.246-22.339,21.949-26.852-.686.264-3.5-4.873-4.268-4.578-20.148,7.772-26.843,32.291-21.644,51.86,1.121,4.22,3.4,7.38,6.308,10.52a23.28,23.28,0,0,0,3.063,3.158A3.246,3.246,0,0,0,403.6,528.1c.255-3.939-3.122-7.272-5.589-9.934s-5.571-6.643-9.361-7.159c-5.414-.738-10.526,4.554-12.547,9.036a16.681,16.681,0,0,0,.706,15.679c1.081,1.747,3.2,2.846,4.268,4.577" transform="translate(-135.201 -147.423)" fill="#ff8124"/>
        <g id="Group_17368" data-name="Group 17368" transform="translate(-1.824 290.068)" opacity="0.7">
          <g id="Group_17367" data-name="Group 17367">
            <g id="Group_17366" data-name="Group 17366" clip-path="url(#clip-path-4)">
              <path id="Path_38054" data-name="Path 38054" d="M28.855,433.786h72.817c1.449,0,1.48-8.345,0-8.345h-.519c-1.448,0-1.48,8.345,0,8.345h.519c1.449,0,1.48-8.345,0-8.345H28.855c-1.448,0-1.48,8.345,0,8.345" transform="translate(-27.757 -425.441)" fill="#f9be06"/>
            </g>
          </g>
        </g>
        <g id="Group_17371" data-name="Group 17371" transform="translate(45.672 289.456)" opacity="0.7">
          <g id="Group_17370" data-name="Group 17370">
            <g id="Group_17369" data-name="Group 17369" clip-path="url(#clip-path-5)">
              <path id="Path_38055" data-name="Path 38055" d="M97.323,453.065q12.925-10.047,25.649-20.346c1.079-.873.786-3.929.7-5.133-.033-.456-.312-3.658-1.232-2.914q-12.725,10.3-25.649,20.346c-1.6,1.245-.183,8.6.533,8.046" transform="translate(-96.057 -424.561)" fill="#f9be06"/>
            </g>
          </g>
        </g>
        <g id="Group_17374" data-name="Group 17374" transform="translate(45.606 269.107)" opacity="0.7">
          <g id="Group_17373" data-name="Group 17373">
            <g id="Group_17372" data-name="Group 17372" clip-path="url(#clip-path-6)">
              <path id="Path_38056" data-name="Path 38056" d="M96.761,403.459q12.924,10.048,25.649,20.347c.965.78,1.2-2.533,1.232-2.914.085-1.127.372-4.266-.7-5.133q-12.723-10.3-25.649-20.346c-.978-.761-1.2,2.515-1.232,2.914-.083,1.1-.375,4.3.7,5.133" transform="translate(-95.963 -395.298)" fill="#f9be06"/>
            </g>
          </g>
        </g>
        <g id="Group_17377" data-name="Group 17377" transform="translate(283.775 290.068)" opacity="0.7">
          <g id="Group_17376" data-name="Group 17376" transform="translate(0)">
            <g id="Group_17375" data-name="Group 17375" clip-path="url(#clip-path-7)">
              <path id="Path_38057" data-name="Path 38057" d="M512.378,425.441H439.56c-1.448,0-1.48,8.345,0,8.345h.519c1.449,0,1.48-8.345,0-8.345h-.519c-1.448,0-1.48,8.345,0,8.345h72.818c1.448,0,1.48-8.345,0-8.345" transform="translate(-438.462 -425.441)" fill="#10bbd2"/>
            </g>
          </g>
        </g>
        <g id="Group_17380" data-name="Group 17380" transform="translate(283.581 289.449)" opacity="0.7">
          <g id="Group_17379" data-name="Group 17379">
            <g id="Group_17378" data-name="Group 17378" clip-path="url(#clip-path-8)">
              <path id="Path_38058" data-name="Path 38058" d="M465.163,445.016q-12.925-10.047-25.649-20.346c-.965-.78-1.2,2.533-1.232,2.914-.085,1.127-.372,4.266.7,5.133q12.725,10.3,25.649,20.345c.978.761,1.2-2.515,1.232-2.914.083-1.1.375-4.3-.7-5.133" transform="translate(-438.183 -424.551)" fill="#10bbd2"/>
            </g>
          </g>
        </g>
        <g id="Group_17383" data-name="Group 17383" transform="translate(283.579 269.191)" opacity="0.7">
          <g id="Group_17382" data-name="Group 17382">
            <g id="Group_17381" data-name="Group 17381" clip-path="url(#clip-path-9)">
              <path id="Path_38059" data-name="Path 38059" d="M464.629,395.449Q451.706,405.5,438.98,415.8c-1.079.873-.785,3.929-.7,5.132.033.457.312,3.659,1.232,2.914q12.724-10.3,25.649-20.347c1.6-1.245.183-8.6-.533-8.046" transform="translate(-438.18 -395.419)" fill="#10bbd2"/>
            </g>
          </g>
        </g>
        <path id="Path_38060" data-name="Path 38060" d="M45.251,200.757A7.863,7.863,0,0,1,47.7,196.7c1.4-1.063,3.226-1.358,4.864-1.862a12.607,12.607,0,0,0,4.905-2.514,8.582,8.582,0,0,0,2.475-5.482,41.05,41.05,0,0,0,0-6.169c-.036-1.394-.116-2.808,1.059-3.752a2.606,2.606,0,0,1,1.962-.755,7.263,7.263,0,0,1,2.617,1.152,5.439,5.439,0,0,1,1.759,1.5,10.209,10.209,0,0,1,1.209,2.773c.728,2.3,1.268,4.782-.079,6.973-1.086,1.767-2.933,2.976-4.562,4.192a1.435,1.435,0,0,0-.5,1.9,1.4,1.4,0,0,0,1.9.5,24.551,24.551,0,0,0,4.912-4.279,9.061,9.061,0,0,0,1.725-7.131,15.437,15.437,0,0,0-2.431-6.648,10.366,10.366,0,0,0-5.583-3.563,5.555,5.555,0,0,0-5.539,2.074c-1.308,1.6-1.289,3.647-1.216,5.611.084,2.27.353,4.647-.3,6.86-.6,2.026-2.207,3.1-4.121,3.766-2.2.772-4.631,1.108-6.553,2.515a10.658,10.658,0,0,0-3.642,5.651c-.546,1.709,2.139,2.441,2.682.739" transform="translate(-34.07 -58.599)" fill="#b94da1"/>
        <path id="Path_38061" data-name="Path 38061" d="M71.567,201.627c-3.748-.259-7.123,3.619-7.4,7.14-.378,4.8,5.238,6.187,8.974,6.064a54.964,54.964,0,0,0,6.987-.783,25.532,25.532,0,0,0,7.553-2.263c1.733-.887,3.672-2.406,3.658-4.549-.013-2.24-1.889-3.761-3.786-4.529a22.6,22.6,0,0,0-7.964-1.325c-3.339-.063-6.662.342-9.986.6-1.773.14-1.788,2.922,0,2.782,4.724-.371,9.559-1.083,14.267-.2a8.356,8.356,0,0,1,4.037,1.5,1.591,1.591,0,0,1,.623,1.375c-.13.58-.775,1.038-1.243,1.35-3.348,2.232-7.781,2.6-11.666,3.053a18.823,18.823,0,0,1-4.985.1c-1.234-.188-2.965-.712-3.528-1.914-.546-1.165.16-2.7.928-3.686a4.367,4.367,0,0,1,3.53-1.937c1.786.123,1.779-2.659,0-2.782" transform="translate(-40.666 -67.119)" fill="#b94da1"/>
        <path id="Path_38062" data-name="Path 38062" d="M85.827,216.487a4.955,4.955,0,0,1,2.006.374,2.089,2.089,0,0,1,1.065.889,2.8,2.8,0,0,1-.806,2.323,7.191,7.191,0,0,1-3.254,1.585,38.261,38.261,0,0,1-4.176,1.262,21.438,21.438,0,0,1-4.21.309,25.636,25.636,0,0,1-4.267-.161,15.962,15.962,0,0,1-2.954-1.017,3.023,3.023,0,0,1-.827-.356c.078.049-.021.008-.07-.086.055.1-.056-.212-.065-.283a3.725,3.725,0,0,1,1.518-3.281,1.392,1.392,0,0,0-1.4-2.4c-2.364,1.335-4.188,5.934-1.881,8.076a9.183,9.183,0,0,0,2.565,1.271,13.055,13.055,0,0,0,5.419,1.015,38.923,38.923,0,0,0,5.485-.177,29.909,29.909,0,0,0,5.607-1.487,9.952,9.952,0,0,0,4.573-2.4,5.8,5.8,0,0,0,1.578-4.084c-.214-2.927-3.355-4.125-5.9-4.155a1.392,1.392,0,0,0,0,2.782" transform="translate(-41.059 -70.875)" fill="#b94da1"/>
        <path id="Path_38063" data-name="Path 38063" d="M72.955,226.778a8.4,8.4,0,0,0-5.061,6.867c-.187,3.567,3.579,5.062,6.558,5.258a31.3,31.3,0,0,0,10.238-.843c2.649-.721,5.65-2.085,6.885-4.715,1.5-3.207-.2-7.372-3.866-7.932a1.436,1.436,0,0,0-1.711.971,1.4,1.4,0,0,0,.971,1.711,2.776,2.776,0,0,1,2.147,3.969c-.8,1.782-2.987,2.67-4.725,3.188a25.336,25.336,0,0,1-7.065.951,15.911,15.911,0,0,1-4.268-.353c-.859-.229-1.93-.5-2.29-1.421-.672-1.715,1.434-4.351,2.925-4.969a1.436,1.436,0,0,0,.971-1.711,1.4,1.4,0,0,0-1.711-.971" transform="translate(-41.805 -74.434)" fill="#b94da1"/>
        <path id="Path_38064" data-name="Path 38064" d="M71,240.561c-.843.312-1.257,1.077-1.89,1.658l-.115.113q-.218.229,0-.092a5.313,5.313,0,0,0-1.022.146c-.774.111-1.547.235-2.323.328a32.851,32.851,0,0,1-8.417-.015,11.742,11.742,0,0,1-6.578-3.226,23.925,23.925,0,0,0-4.342-3.03c-1.524-.95-2.921,1.455-1.4,2.4.56.35,1.12.707,1.7,1.026a15.04,15.04,0,0,1,2.7,2.164,14.429,14.429,0,0,0,7.539,3.4,35.314,35.314,0,0,0,8.955.043c.8-.1,1.6-.221,2.4-.336a6.425,6.425,0,0,0,2.244-.432,4.453,4.453,0,0,0,.944-.859c.152-.163.3-.332.451-.5.282-.3.6-.371-.1-.111,1.665-.615.945-3.305-.739-2.682" transform="translate(-34.606 -77.735)" fill="#b94da1"/>
        <path id="Path_38065" data-name="Path 38065" d="M42.783,233.19a74.544,74.544,0,0,1-.926-9.39c-.154-3.094-.542-6.167-.735-9.259-.152-2.427.023-4.82.013-7.242-.008-1.936-.713-3.959-2.86-4.329-1.4-.241-2.819-.106-4.223-.252-1.035-.106-2.184-.289-3,.53a3.4,3.4,0,0,0-.689,3.028c.159,1.131.306,1.858.455,3.037.188,1.493.318,2.993.436,4.492.122,1.541.392,3.074.606,4.6.416,2.971.921,5.943,1.261,8.922A46.053,46.053,0,0,1,33.449,232a7.7,7.7,0,0,0,.732,3.787c.749,1.286,2.034,1.524,3.413,1.492a15.083,15.083,0,0,0,2.475-.412c.881-.169,1.763-.329,2.636-.54,1.74-.419,1-3.1-.739-2.682-1.293.312-2.638.624-3.953.813a6.214,6.214,0,0,1-1.193.049c-.346-.019-.344-.305-.446-.741a15.2,15.2,0,0,1-.172-2.5c-.087-1.366-.156-2.739-.316-4.1-.613-5.22-1.544-10.388-2.041-15.622-.124-1.308-.3-2.606-.47-3.909a18.179,18.179,0,0,1-.315-2.179c0,.047-.031-.417.026-.382.041.025-.261.38-.307.305a6.376,6.376,0,0,0,1.2.11,28.657,28.657,0,0,1,3.718.184c.25.061.295.054.427.2a2.943,2.943,0,0,1,.172.531,9.018,9.018,0,0,1,.022,2.013,55.367,55.367,0,0,0,.082,6.953c.224,3.036.551,6.054.712,9.095a77.008,77.008,0,0,0,.992,9.457,1.4,1.4,0,0,0,1.711.971,1.422,1.422,0,0,0,.971-1.711" transform="translate(-30.352 -67.499)" fill="#b94da1"/>
        <path id="Path_38066" data-name="Path 38066" d="M24.811,203.5a18.738,18.738,0,0,1-.225-4.386,2.813,2.813,0,0,0-1.814-3.215,5.711,5.711,0,0,0-1.884-.058c-.77.057-1.546.041-2.317.065-1.745.056-3.513.225-5.258.124-1.822-.105-3.644-.268-5.464-.4a18.829,18.829,0,0,0-4.3-.146c-3.1.488-3.736,3.653-3.514,6.322.139,1.676.172,3.355.361,5.03.21,1.866.449,3.734.716,5.592.533,3.691,1.254,7.353,2.01,11,.647,3.124,1.334,6.168,1.762,9.263.307,2.22,1.016,4.667,3.333,5.516,1.488.546,3.286.134,4.8-.07a48.527,48.527,0,0,1,5.841-.385c1.854-.024,3.692.036,5.544.09a9.289,9.289,0,0,0,5.115-1.006,1.383,1.383,0,0,0,.689-1.2c-.094-1.688-1.12-2.964-1.8-4.45a1.4,1.4,0,0,0-1.9-.5,1.424,1.424,0,0,0-.5,1.9c.433.953,1.357,1.972,1.416,3.046l.688-1.2a6.5,6.5,0,0,1-3.571.63c-1.455-.037-2.9-.11-4.358-.1-1.6.006-3.206.029-4.806.131-1.437.091-2.854.361-4.286.5-.857.081-1.914.3-2.521-.383a4.8,4.8,0,0,1-.853-2.267c-.168-.884-.238-1.782-.357-2.672-.207-1.545-.617-3.081-.938-4.606a185.759,185.759,0,0,1-3.321-19.5c-.147-1.451-.168-2.905-.288-4.356-.079-.944-.224-2.3.358-3.131.5-.706,1.7-.531,2.444-.46,1.455.138,2.913.247,4.372.355a52.015,52.015,0,0,0,5.448.237c1.67-.051,3.344-.086,5.013-.153a11.533,11.533,0,0,0,1.577-.071l-.15-.129q-.279-.264-.041.013.217.26,0,.04l-.009.055c-.01.293-.036.579-.068.87a19.417,19.417,0,0,0,.36,4.809,1.4,1.4,0,0,0,1.71.971,1.428,1.428,0,0,0,.972-1.711" transform="translate(-21.125 -65.299)" fill="#b94da1"/>
        <path id="Path_38067" data-name="Path 38067" d="M495.231,333a11.112,11.112,0,0,0-2.935-5.087c-1.641-1.453-3.679-1.994-5.733-2.6-1.779-.521-3.879-1.145-4.993-2.757-1.256-1.818-1.112-4.433-1.032-6.528.075-1.99.415-4.232-.361-6.128a6.009,6.009,0,0,0-4.648-3.533c-2.122-.195-4.437,1.151-6.039,2.43-1.811,1.446-2.563,3.754-3.193,5.9-.817,2.779-.915,5.843.7,8.363,1.366,2.141,3.493,3.59,5.492,5.083a1.4,1.4,0,0,0,1.9-.5,1.424,1.424,0,0,0-.5-1.9,19.159,19.159,0,0,1-4.281-3.768,6.86,6.86,0,0,1-.8-5.914c.434-1.721.978-3.973,2.446-5.131,1.023-.807,3.065-2.211,4.442-1.7a3.189,3.189,0,0,1,2.15,2.931c.117,2.043-.179,4.092-.113,6.137a10.376,10.376,0,0,0,1.758,6.094,9.935,9.935,0,0,0,4.574,3.044c1.857.68,3.964.928,5.654,2a7.461,7.461,0,0,1,2.828,4.308c.542,1.7,3.229.973,2.683-.739" transform="translate(-162.99 -99.097)" fill="#ff6b73"/>
        <path id="Path_38068" data-name="Path 38068" d="M467.3,337.412c2.289-.158,4.694,2.54,4.634,4.8-.031,1.193-1.18,2.026-2.334,2.406a12.824,12.824,0,0,1-5.042.363c-3.943-.317-8.3-.759-11.879-2.553-.907-.454-2.788-1.385-2.242-2.65.531-1.232,2.2-1.666,3.378-1.955,5.064-1.248,10.331-.459,15.448-.056,1.785.14,1.776-2.642,0-2.782-5.48-.431-11.093-1.213-16.5.236-1.877.5-3.944,1.424-4.8,3.295-1.04,2.276.138,4.226,2.026,5.558a18.455,18.455,0,0,0,6.63,2.572,60.889,60.889,0,0,0,7.6,1.088,14.8,14.8,0,0,0,6.338-.508c1.841-.67,3.643-2.008,4.046-4.035.791-3.982-3.162-8.849-7.3-8.563-1.776.122-1.79,2.905,0,2.782" transform="translate(-157.465 -107.637)" fill="#ff6b73"/>
        <path id="Path_38069" data-name="Path 38069" d="M453.412,346.707c-2.218.026-4.88.873-5.7,3.156a4.967,4.967,0,0,0,.63,4.057,7,7,0,0,0,4.039,3,50.4,50.4,0,0,0,5.308,1.656,26.674,26.674,0,0,0,5.7.439,18.747,18.747,0,0,0,5.529-.523,9.526,9.526,0,0,0,1.131-.437c.15-.069.293-.151.444-.218.243-.108-.3.115.126-.051a13.239,13.239,0,0,0,1.388-.551c3.3-1.728,1.471-7.109-1.145-8.587a1.392,1.392,0,0,0-1.4,2.4,3.675,3.675,0,0,1,1.5,2.818,1.354,1.354,0,0,1-.124.866c.063-.088-.07.006-.052,0-.057.025-.409.2-.231.127a23.357,23.357,0,0,1-2.51.99,14.724,14.724,0,0,1-4.046.384,40.344,40.344,0,0,1-4.262-.131,20.667,20.667,0,0,1-4.169-1.063c-1.967-.633-5.109-1.222-5.278-3.825a.939.939,0,0,1,.148-.653,1.817,1.817,0,0,1,.779-.6,5,5,0,0,1,2.2-.469,1.392,1.392,0,0,0,0-2.782" transform="translate(-157.441 -111.389)" fill="#ff6b73"/>
        <path id="Path_38070" data-name="Path 38070" d="M466.447,362.46a5.506,5.506,0,0,1,3.024,4.385c-.06,2.238-3.756,2.305-5.305,2.346a28.069,28.069,0,0,1-7.533-.7c-1.878-.467-4.066-1.2-5.252-2.836a2.819,2.819,0,0,1,1.791-4.562,1.4,1.4,0,0,0,.971-1.711,1.427,1.427,0,0,0-1.711-.971,5.478,5.478,0,0,0-4.278,6.752c.654,2.987,3.629,4.7,6.307,5.6a28.421,28.421,0,0,0,9.705,1.211c2.948-.078,7.247-.66,7.984-4.175.686-3.276-2.076-6.823-4.965-8.02a1.4,1.4,0,0,0-1.71.971,1.425,1.425,0,0,0,.971,1.711" transform="translate(-157.597 -114.948)" fill="#ff6b73"/>
        <path id="Path_38071" data-name="Path 38071" d="M466.569,376.243c-.7-.259-.386-.192-.1.111.131.14.257.284.385.425a4.969,4.969,0,0,0,.972.907,5.6,5.6,0,0,0,2.111.431c.8.115,1.608.24,2.414.342a35.228,35.228,0,0,0,9.11-.025,14.6,14.6,0,0,0,7.426-3.305,18.01,18.01,0,0,1,2.77-2.236c.591-.332,1.168-.689,1.743-1.048,1.517-.944.122-3.352-1.4-2.4a23.783,23.783,0,0,0-4.342,3.03,11.735,11.735,0,0,1-6.578,3.226,32.731,32.731,0,0,1-8.418.015c-.776-.094-1.549-.218-2.323-.328a4.971,4.971,0,0,0-1.022-.146c-.022,0,.239.3-.112-.021-.63-.583-1.05-1.348-1.891-1.659-1.681-.621-2.407,2.066-.739,2.682" transform="translate(-162.961 -118.249)" fill="#ff6b73"/>
        <path id="Path_38072" data-name="Path 38072" d="M504.785,366.935a72.641,72.641,0,0,0,.935-8.447c.16-2.706.353-5.4.6-8.1a63.848,63.848,0,0,0,.3-7.9c-.022-.665-.077-1.331-.084-2a7.712,7.712,0,0,1,.027-.9,2.449,2.449,0,0,1,.115-.494c.024-.067.134-.257.089-.207.379-.419,1.689-.283,2.37-.289.547,0,1.083-.035,1.626-.088a6.249,6.249,0,0,0,1.347-.117c-.046.075-.347-.28-.307-.305.057-.035.025.429.025.382a6.126,6.126,0,0,1-.155,1.071c-.188,1.024-.3,2.069-.426,3.1-.308,2.571-.5,5.142-.857,7.707-.366,2.617-.709,5.239-1.1,7.853-.225,1.494-.395,2.977-.492,4.485-.074,1.159-.073,2.337-.188,3.491-.037.364-.065,1.04-.355,1.306.114-.105-.006.022-.184.032a7.024,7.024,0,0,1-.775-.01,26.288,26.288,0,0,1-4.371-.852c-1.74-.419-2.482,2.263-.739,2.683.709.17,1.424.311,2.141.446a24.708,24.708,0,0,0,2.511.494,4.266,4.266,0,0,0,3.339-.781,4.989,4.989,0,0,0,1.2-3.2c.127-1.247.131-2.518.211-3.77.189-2.955.708-5.884,1.117-8.814.426-3.053.828-6.09,1.12-9.158.122-1.295.3-2.791.471-3.957a9.113,9.113,0,0,0,.243-2.988c-.546-2.781-3.726-1.809-5.72-1.8a6.275,6.275,0,0,0-3.512.677,3.552,3.552,0,0,0-1.428,2.355c-.366,2.056.026,4.272-.015,6.348-.069,3.494-.617,6.948-.779,10.432A81.876,81.876,0,0,1,502.1,366.2a1.43,1.43,0,0,0,.971,1.711,1.4,1.4,0,0,0,1.711-.971" transform="translate(-173.795 -108.018)" fill="#ff6b73"/>
        <path id="Path_38073" data-name="Path 38073" d="M515.393,337.239a23.854,23.854,0,0,0,.4-4.37,11.729,11.729,0,0,1-.122-1.364c-.025.35-.092-.274.006-.04l.109-.141-.3.257c.008.015.771.011.8.013a63.7,63.7,0,0,0,8.757.156q2.395-.174,4.79-.353a16.488,16.488,0,0,1,3.612-.2c2.061.32,1.195,4.029,1.145,5.433a80.411,80.411,0,0,1-1.129,9.728c-.526,3.292-1.177,6.563-1.857,9.827-.59,2.841-1.291,5.667-1.635,8.551-.147,1.235-.325,3.587-1.77,3.9a6.5,6.5,0,0,1-1.93-.063c-.837-.084-1.67-.206-2.5-.316a44.068,44.068,0,0,0-5.282-.29c-1.609-.019-3.21,0-4.818.07a7.558,7.558,0,0,1-4.27-.6l.688,1.2c.059-1.069.983-2.1,1.416-3.046a1.433,1.433,0,0,0-.5-1.9,1.4,1.4,0,0,0-1.9.5c-.677,1.486-1.7,2.761-1.8,4.45a1.383,1.383,0,0,0,.689,1.2c2.709,1.606,6.176.895,9.167.9,1.821.006,3.654.01,5.469.166,1.6.136,3.184.469,4.794.535,2.68.11,4.329-1.713,4.928-4.184a31.522,31.522,0,0,0,.5-3.367c.2-1.512.655-3.241.988-4.822.768-3.646,1.526-7.295,2.142-10.97a95.058,95.058,0,0,0,1.378-11.133c.12-2.538.78-6.12-1.668-7.833a5.611,5.611,0,0,0-3.688-.715q-2.566.221-5.137.414a51.729,51.729,0,0,1-5.9.148c-1.706-.067-3.426-.179-5.133-.195a2.705,2.705,0,0,0-2.935,2.772c-.012.661.131,1.3.1,1.971a29.116,29.116,0,0,1-.3,2.969,1.437,1.437,0,0,0,.971,1.711,1.4,1.4,0,0,0,1.711-.971" transform="translate(-175.658 -105.808)" fill="#ff6b73"/>
        <g id="Group_17386" data-name="Group 17386" transform="translate(304.277 5.508)" opacity="0.7">
          <g id="Group_17385" data-name="Group 17385">
            <g id="Group_17384" data-name="Group 17384" clip-path="url(#clip-path-10)">
              <path id="Path_38074" data-name="Path 38074" d="M473.129,30.267c1.554-3.645,8.9-5.217,12.363-5.568a27.572,27.572,0,0,1,12.742,1.962c8.573,3.346,14.407,12.057,12.916,21.45A26.73,26.73,0,0,1,497.479,66.8c-8.621,4.473-19.193,2.735-28.459,4.727-1.835.395-.966,8.553,0,8.345,11.3-2.428,23.88-.03,33.355-7.967,7.423-6.22,10.9-15.9,10.949-25.4.049-10.18-2.155-21.258-11.719-26.6a27.871,27.871,0,0,0-16.664-3.487c-4.181.523-11,2.371-12.821,6.651a11.136,11.136,0,0,0-.359,5.708c.093.594.675,3.127,1.37,1.5" transform="translate(-467.945 -16.229)" fill="#b94da1"/>
            </g>
          </g>
        </g>
        <g id="Group_17389" data-name="Group 17389" transform="translate(302.235 45.473)" opacity="0.7">
          <g id="Group_17388" data-name="Group 17388">
            <g id="Group_17387" data-name="Group 17387" clip-path="url(#clip-path-11)">
              <path id="Path_38075" data-name="Path 38075" d="M475.207,73.843c-3.9,4.828-6.272,10.56-9.435,15.85-.866,1.449-.816,3.5-.7,5.133.021.3.686,3.827,1.232,2.914,3.159-5.284,5.543-11.03,9.436-15.85.99-1.225.8-3.668.7-5.132-.024-.331-.518-3.8-1.232-2.915" transform="translate(-465.009 -73.7)" fill="#b94da1"/>
            </g>
          </g>
        </g>
        <g id="Group_17392" data-name="Group 17392" transform="translate(303.734 61.473)" opacity="0.7">
          <g id="Group_17391" data-name="Group 17391" transform="translate(0)">
            <g id="Group_17390" data-name="Group 17390" clip-path="url(#clip-path-12)">
              <path id="Path_38076" data-name="Path 38076" d="M467.958,104.9c2.323,2.4,5.771,2.784,8.667,4.179,3.218,1.551,6.357,3.256,9.566,4.82.307.15,2.056-7.341,0-8.345-2.855-1.392-5.645-2.924-8.507-4.31-2.926-1.416-6.893-2.019-9.192-4.391-.869-.9-1.211,2.634-1.232,2.914-.1,1.3-.336,4.065.7,5.133" transform="translate(-467.164 -96.709)" fill="#b94da1"/>
            </g>
          </g>
        </g>
        <path id="Path_38077" data-name="Path 38077" d="M57.839,346.21a64.66,64.66,0,0,0-6.2,6.159c-.61.7-1.362,1.251-2.036,1.883a5.232,5.232,0,0,0-1.786,2.537,1.429,1.429,0,0,0,.971,1.711,1.4,1.4,0,0,0,1.711-.971c.015-.077.051-.158.063-.233-.04.272-.07.145.027,0,.049-.074.1-.147.147-.219s.042-.059-.045.058c.038-.046.076-.091.115-.136.323-.349.654-.683,1.006-1a25.821,25.821,0,0,0,2.039-1.938,64.591,64.591,0,0,1,5.948-5.88,1.4,1.4,0,0,0,0-1.967,1.418,1.418,0,0,0-1.967,0" transform="translate(-35.683 -111.117)" fill="#10bbd2"/>
        <path id="Path_38078" data-name="Path 38078" d="M48.182,362.448a4.346,4.346,0,0,0,2.263,1.731c1.041.462,2.115.835,3.195,1.194,2.213.734,4.336,1.93,6.7,2.111a1.4,1.4,0,0,0,1.391-1.391,1.419,1.419,0,0,0-1.391-1.391c-.417-.032.266.066-.174-.016-.147-.027-.292-.056-.437-.09-.259-.061-.516-.133-.77-.211-.59-.182-1.17-.4-1.745-.624-.873-.342-1.735-.708-2.625-1s-1.775-.588-2.64-.94c-.143-.058.133.063-.094-.041-.115-.053-.232-.1-.346-.16-.193-.093-.385-.193-.57-.3-.075-.045-.147-.1-.225-.14-.254-.135.154.183-.019-.01a2.252,2.252,0,0,0-.173-.172c.091.077.17.26.068.051a1.4,1.4,0,0,0-1.9-.5,1.42,1.42,0,0,0-.5,1.9" transform="translate(-35.75 -115.55)" fill="#10bbd2"/>
        <path id="Path_38079" data-name="Path 38079" d="M63.338,349.686c6.633,6.625,13.6,12.907,20.228,19.532l1.967-1.967-.153-.152a1.392,1.392,0,0,0-1.967,1.967l.154.153a1.392,1.392,0,0,0,1.967-1.967c-6.633-6.624-13.6-12.906-20.228-19.531a1.391,1.391,0,0,0-1.967,1.967" transform="translate(-40.294 -111.573)" fill="#10bbd2"/>
        <path id="Path_38080" data-name="Path 38080" d="M86.638,366.978c-1.936.062-3.845.691-5.764.939-2.058.266-4.1.482-6.176.588a45.944,45.944,0,0,0-6.081.676,5.4,5.4,0,0,0-1.2.336l.73.168c-.309-.253-.371-.3-.183-.124.195.4.038-.223.04-.081a5.9,5.9,0,0,0-.56-1.965l.19.7c-.218-1.716-.832-3.331-1.079-5.033s-.3-3.4-.377-5.106c-.166-3.585-.333-7.139-.69-10.714a1.43,1.43,0,0,0-1.391-1.391,1.4,1.4,0,0,0-1.391,1.391c.334,3.352.491,6.684.658,10.044.08,1.6.127,3.21.291,4.808a37.666,37.666,0,0,0,.96,4.786c.377,1.6.526,5.4,3.046,5.288a14.918,14.918,0,0,0,1.691-.426c.768-.129,1.553-.238,2.321-.351,1.586-.234,3.216-.223,4.814-.319,1.74-.1,3.492-.368,5.218-.606a49.036,49.036,0,0,1,4.93-.827c1.786-.056,1.793-2.838,0-2.782" transform="translate(-40.226 -111.166)" fill="#10bbd2"/>
        <path id="Path_38081" data-name="Path 38081" d="M86.813,363.025a95.515,95.515,0,0,0-9.8-13.536c-1.846-2.062-3.793-4.03-5.654-6.079-1.546-1.7-3-3.483-4.526-5.206a50.405,50.405,0,0,0-4.816-4.993c-.954-.818-2.846-.065-2.325,1.353a42.877,42.877,0,0,1,2.222,10.272,1.43,1.43,0,0,0,1.391,1.391,1.4,1.4,0,0,0,1.391-1.391,45.862,45.862,0,0,0-2.321-11.011l-2.325,1.353c3.135,2.686,5.681,6.044,8.393,9.137,1.789,2.04,3.692,3.974,5.533,5.966a71,71,0,0,1,5.144,6.343c1.856,2.537,3.633,5.131,5.286,7.806.939,1.52,3.346.124,2.4-1.4" transform="translate(-39.283 -107.176)" fill="#10bbd2"/>
        <path id="Path_38082" data-name="Path 38082" d="M175.224,34.619c-.1,1.516-.163,3.034-.163,4.554,0,1.538.147,3.072.162,4.606.016,1.709-.616,3.881.408,5.419.987,1.483,3.4.092,2.4-1.4-.19-.286-.042.029-.091-.2-.023-.09-.042-.182-.056-.275q.028.18,0-.092a11.686,11.686,0,0,1,0-1.387,23.02,23.02,0,0,0,.094-2.524,64.875,64.875,0,0,1,.028-8.693,1.391,1.391,0,0,0-2.782,0" transform="translate(-74.446 -15.899)" fill="#10bbd2"/>
        <path id="Path_38083" data-name="Path 38083" d="M176.946,53.875a4.472,4.472,0,0,0,2.931-.4c1.059-.414,2.079-.915,3.1-1.425,2.058-1.033,4.372-1.676,6.146-3.2a1.4,1.4,0,0,0,0-1.967,1.42,1.42,0,0,0-1.967,0c-.3.259.224-.136-.125.1-.116.079-.232.159-.35.234-.234.148-.476.284-.72.414-.541.287-1.1.543-1.66.789-.85.373-1.711.717-2.542,1.132-.38.19-.76.382-1.143.569q-.354.173-.712.338-.182.084-.365.166c-.049.022-.4.168-.155.068a10.09,10.09,0,0,1-1.261.439c-.1.026-.207.04-.3.07-.271.084.259.02,0,0a1.414,1.414,0,0,1-.239,0c0-.019.4.1.106-.007a1.391,1.391,0,0,0-.739,2.682" transform="translate(-74.714 -19.937)" fill="#10bbd2"/>
        <path id="Path_38084" data-name="Path 38084" d="M178.687,35.962c9.374,0,18.74-.487,28.114-.492V32.688h-.216a1.392,1.392,0,0,0,0,2.782h.216a1.392,1.392,0,0,0,0-2.782c-9.374.006-18.74.487-28.114.492a1.392,1.392,0,0,0,0,2.782" transform="translate(-75.147 -15.735)" fill="#10bbd2"/>
        <path id="Path_38085" data-name="Path 38085" d="M207.343,31.443c-1.362,1.45-2.3,3.3-3.512,4.868-1.274,1.649-2.58,3.243-3.974,4.79-1.283,1.425-2.435,2.927-3.569,4.465a3.7,3.7,0,0,0-.663,1.1c-.131.563.965-.453.375-.207-.385.161,0-.045.064,0a9.726,9.726,0,0,0-1.894-1.057l.613.357c-1.312-1.019-2.818-1.7-4.151-2.673a47.793,47.793,0,0,1-3.975-3.4c-2.675-2.441-5.331-4.858-8.135-7.153-1.374-1.125-3.353.832-1.967,1.967,2.556,2.092,4.971,4.3,7.421,6.505,1.182,1.066,2.339,2.163,3.569,3.175a29.639,29.639,0,0,0,3.818,2.6c1.114.661,2.015,1.364,3.113,1.983a2.612,2.612,0,0,0,3.207-.14,12.7,12.7,0,0,0,.852-1.434c.4-.574.841-1.116,1.236-1.693a36.538,36.538,0,0,1,3.1-3.576c1.227-1.369,2.341-2.855,3.456-4.316,1.027-1.346,1.828-2.953,2.985-4.186,1.225-1.3-.739-3.275-1.967-1.967" transform="translate(-74.762 -15.224)" fill="#10bbd2"/>
        <path id="Path_38086" data-name="Path 38086" d="M204.7,28.946a95.613,95.613,0,0,0-16.47-2.647c-2.839-.159-5.683-.17-8.523-.312-2.236-.112-4.465-.335-6.7-.472a50.316,50.316,0,0,0-6.936-.125c-1.236.1-2.068,1.96-.7,2.592a43,43,0,0,1,8.85,5.7,1.432,1.432,0,0,0,1.967,0,1.4,1.4,0,0,0,0-1.967,45.805,45.805,0,0,0-9.413-6.136l-.7,2.592c4.032-.31,8.128.231,12.148.509,2.834.2,5.677.213,8.515.329a71.156,71.156,0,0,1,8.128.862c3.053.477,6.09,1.047,9.1,1.757,1.741.412,2.483-2.27.739-2.682" transform="translate(-71.284 -13.488)" fill="#10bbd2"/>
        <path id="Path_38087" data-name="Path 38087" d="M358.653,48.669c6.843-9.461,10.732-20.6,15.9-30.971.8-1.6-1.6-3.008-2.4-1.4-5.172,10.374-9.062,21.51-15.9,30.971a1.4,1.4,0,0,0,.5,1.9,1.421,1.421,0,0,0,1.9-.5" transform="translate(-129.583 -10.526)" fill="#ffb726"/>
        <path id="Path_38088" data-name="Path 38088" d="M354.346,25.422c6.924,5.167,14.735,9.053,22.6,12.556a1.434,1.434,0,0,0,1.9-.5,1.4,1.4,0,0,0-.5-1.9c-7.867-3.5-15.678-7.389-22.6-12.556a1.4,1.4,0,0,0-1.9.5,1.424,1.424,0,0,0,.5,1.9" transform="translate(-128.855 -12.727)" fill="#ffb726"/>
        <path id="Path_38089" data-name="Path 38089" d="M192.653,502.669c6.843-9.461,10.732-20.6,15.9-30.971.8-1.6-1.6-3.008-2.4-1.4-5.172,10.374-9.062,21.51-15.9,30.971a1.4,1.4,0,0,0,.5,1.9,1.421,1.421,0,0,0,1.9-.5" transform="translate(-79.017 -148.821)" fill="#b94da1"/>
        <path id="Path_38090" data-name="Path 38090" d="M188.346,479.422c6.923,5.167,14.735,9.053,22.6,12.557a1.434,1.434,0,0,0,1.9-.5,1.4,1.4,0,0,0-.5-1.9c-7.867-3.5-15.678-7.39-22.6-12.557a1.4,1.4,0,0,0-1.9.5,1.425,1.425,0,0,0,.5,1.9" transform="translate(-78.288 -151.023)" fill="#b94da1"/>
        <path id="Path_38091" data-name="Path 38091" d="M393.152,361.671c3.238-.818,6.412-1.874,9.692-2.531,3-.6,6.541-1.077,9.4.3,1.6.775,3.017-1.622,1.4-2.4-3.367-1.627-7.18-1.378-10.764-.734-3.556.64-6.978,1.8-10.474,2.68a1.392,1.392,0,0,0,.739,2.682" transform="translate(-140.358 -114.164)" fill="#10bbd2"/>
        <path id="Path_38092" data-name="Path 38092" d="M402.789,334.09a75.417,75.417,0,0,1,12.147,1.341,1.433,1.433,0,0,0,1.711-.971,1.4,1.4,0,0,0-.971-1.711,80.246,80.246,0,0,0-12.887-1.44,1.392,1.392,0,0,0,0,2.782" transform="translate(-143.412 -106.699)" fill="#10bbd2"/>
        <path id="Path_38093" data-name="Path 38093" d="M415.435,306.071a13.338,13.338,0,0,0,3,5.6,26.888,26.888,0,0,0,4.588,4.273,1.4,1.4,0,0,0,1.9-.5,1.425,1.425,0,0,0-.5-1.9c.007.006-.282-.215-.168-.126s-.148-.118-.171-.136q-.267-.212-.529-.431-.546-.457-1.067-.942a23.489,23.489,0,0,1-2-2.088,13.772,13.772,0,0,1-1.5-2.169q-.171-.307-.324-.623c-.04-.083-.079-.167-.117-.251-.181-.4.076.234-.07-.172a9.6,9.6,0,0,1-.372-1.269,1.391,1.391,0,0,0-2.682.739" transform="translate(-147.662 -98.476)" fill="#10bbd2"/>
        <path id="Path_38094" data-name="Path 38094" d="M86.577,137.634c2.021-.524,4.251-1.211,5.561-2.956,1.289-1.717,1.377-4.024,1.393-6.084,0-.5-1.758-1.93-2.111-2.31s-2.161-1.755-2.157-2.267c-.016,2.06-.1,4.366-1.393,6.084-1.309,1.745-3.541,2.432-5.561,2.957a17.794,17.794,0,0,1,2.111,2.31c.242.259,1.828,2.352,2.157,2.266" transform="translate(-46.198 -43.555)" fill="#10bbd2"/>
        <path id="Path_38095" data-name="Path 38095" d="M479.809,153.517a13.082,13.082,0,0,0,1.725,4.275,41.22,41.22,0,0,0,4.042,4.457c2.156,2.272,4.441,2.775,7.541,2.8-.388,0-1.81-1.987-2.111-2.31-.352-.377-1.622-2.263-2.157-2.267a11.169,11.169,0,0,1-5.554-1.043c-2.005-1.166.366-1.512,2.508,2.941-.181-.376-.449-.719-.636-1.1a16.59,16.59,0,0,1-1.09-3.177c-.186-.715-1.608-1.77-2.111-2.31s-1.006-1.079-1.516-1.612c-.141-.147-.595-.476-.641-.655" transform="translate(-167.282 -52.541)" fill="#10bbd2"/>
        <path id="Path_38096" data-name="Path 38096" d="M156.276,342.015a5.5,5.5,0,0,0-2.086,6.258c.554,1.855,2.174,3.276,3.447,4.646a21.165,21.165,0,0,0,4.368,4.065,19.732,19.732,0,0,0,6.189,2.125c-.547-.113-1.711-1.88-2.111-2.31-.459-.492-1.474-2.126-2.157-2.267a26.339,26.339,0,0,1-3.953-1.075,14.056,14.056,0,0,1-1.967-.9,8.45,8.45,0,0,1-.789-.478q-2.258-1.7,2.086,2.469c-.6-1.559-1.32-2.639-1.051-4.455a5.227,5.227,0,0,1,2.293-3.5c-.151.112-4.043-4.745-4.268-4.577" transform="translate(-68.011 -109.959)" fill="#10bbd2"/>
        <path id="Path_38097" data-name="Path 38097" d="M71.577,485.285c6.29,1.763,11.915,1.3,18.08-.7-.8.259-3.387-4.862-4.268-4.577-6.165,1.994-11.79,2.458-18.08.7,1.692.474,2.53,4.09,4.268,4.577" transform="translate(-41.628 -151.993)" fill="#10bbd2"/>
        <path id="Path_38098" data-name="Path 38098" d="M503.564,293.633c-.5-5.564,5.428-7.6,9.735-9.04a21.164,21.164,0,0,1-2.111-2.31c-.221-.236-1.878-2.359-2.157-2.267-4.309,1.439-10.233,3.474-9.735,9.041.052.584,1.706,1.876,2.111,2.31s2.1,1.673,2.157,2.266" transform="translate(-173.209 -91.073)" fill="#ff8124"/>
        <path id="Path_38099" data-name="Path 38099" d="M493.309,471.017c1.928,2.56,4.461,5.616,7.354,7.109,3.943,2.035,8.6,2.343,12.908,3.031-1.6-.255-2.615-4.313-4.268-4.577-5.061-.808-11.141-1.042-15.175-4.59l1.589,1.659-.439-.469,2.679,2.918-.38-.5c-1.251-1.66-3.024-2.925-4.268-4.577" transform="translate(-171.394 -149.256)" fill="#10bbd2"/>
        <path id="Path_38100" data-name="Path 38100" d="M417.279,32.017c-.477,3.117,1.646,5.784,3.618,7.927,2.129,2.313,4.692,6.107,8.3,5.69-.3.034-1.858-2.038-2.111-2.31-.295-.316-1.72-2.318-2.157-2.267a4.83,4.83,0,0,1-2.687-.44c-.453-.213-.821-.533-1.247-.78q-1.974-1.549,2.766,3.107a10.5,10.5,0,0,1-.738-1,7.883,7.883,0,0,1-1.475-5.345c.06-.391-1.822-2-2.111-2.31s-2.217-1.878-2.157-2.267" transform="translate(-148.214 -15.53)" fill="#ff8124"/>
        <path id="Path_38101" data-name="Path 38101" d="M279.74,45.017c-.846,5.4-5.644,6.939-10.431,7.649.273-.04,1.868,2.05,2.111,2.31.282.3,1.746,2.328,2.157,2.267,4.786-.711,9.584-2.246,10.431-7.649.061-.388-1.823-2-2.111-2.31s-2.218-1.88-2.157-2.267" transform="translate(-103.161 -19.49)" fill="#10bbd2"/>
        <path id="Path_38102" data-name="Path 38102" d="M355.74,463.017c-.846,5.4-5.644,6.939-10.431,7.649.273-.04,1.868,2.05,2.111,2.31.282.3,1.746,2.328,2.157,2.267,4.786-.711,9.584-2.246,10.431-7.649.06-.388-1.823-2-2.111-2.31s-2.218-1.88-2.157-2.267" transform="translate(-126.311 -146.819)" fill="#10bbd2"/>
      </g>
    </g>
  </g>
</svg>
