<svg id="Group_22" data-name="Group 22" xmlns="http://www.w3.org/2000/svg" xmlns:xlink="http://www.w3.org/1999/xlink" width="16.236" height="18.793" viewBox="0 0 16.236 18.793">
  <defs>
    <clipPath id="clip-path">
      <rect id="Rectangle_12" data-name="Rectangle 12" width="16.236" height="18.793" fill="none"/>
    </clipPath>
  </defs>
  <g id="Group_21" data-name="Group 21" clip-path="url(#clip-path)">
    <path id="Path_104" data-name="Path 104" d="M196.4,7.906a6.937,6.937,0,0,1-2.035-.272.829.829,0,0,0-.638.053c-.777.365-1.564.71-2.346,1.063-.025.011-.05.033-.074.012s-.008-.06,0-.087q.161-.361.324-.722c.188-.414.374-.829.569-1.241.04-.084.011-.122-.047-.169a3.79,3.79,0,0,1-1.03-1.237,2.919,2.919,0,0,1-.241-2.079,3.294,3.294,0,0,1,.766-1.4A5.157,5.157,0,0,1,193.666.479,6.831,6.831,0,0,1,195.46.047a7.409,7.409,0,0,1,3.161.316,5.227,5.227,0,0,1,2.321,1.454,3.211,3.211,0,0,1,.815,1.594,3.055,3.055,0,0,1-.777,2.621,5.217,5.217,0,0,1-2.02,1.378,6.843,6.843,0,0,1-1.67.427,4.6,4.6,0,0,1-.892.069m-.087-3.48a.536.536,0,0,0,.525-.535.562.562,0,0,0-.533-.525.524.524,0,0,0-.53.532.511.511,0,0,0,.537.528M194.6,3.913a.562.562,0,0,0-.514-.55.569.569,0,0,0-.551.532.534.534,0,0,0,.526.531.527.527,0,0,0,.538-.514m3.935.513a.528.528,0,0,0,.538-.547.554.554,0,0,0-.538-.516.572.572,0,0,0-.531.524.529.529,0,0,0,.531.539" transform="translate(-185.567 0)" fill="#8acdec"/>
    <path id="Path_105" data-name="Path 105" d="M0,357.123a2.719,2.719,0,0,1,.548-1.775,1.886,1.886,0,0,1,.325-.33.638.638,0,0,1,.752,0,3.535,3.535,0,0,1,.828.786,3.577,3.577,0,0,1,.544.829.682.682,0,0,1-.016.658,10.708,10.708,0,0,0-.494,1.076,1.135,1.135,0,0,0,.161,1.062,5.828,5.828,0,0,0,1.834,1.912,1.393,1.393,0,0,0,1.306.226,1.546,1.546,0,0,0,.537-.34.793.793,0,0,1,.964-.158,4.86,4.86,0,0,1,1.549,1,.69.69,0,0,1,.228.8,1.577,1.577,0,0,1-.407.556,2.133,2.133,0,0,1-1.163.513,4.238,4.238,0,0,1-1.98-.263,6.831,6.831,0,0,1-2.074-1.152,14.693,14.693,0,0,1-1.908-1.771A6.766,6.766,0,0,1,.358,358.9a4.456,4.456,0,0,1-.336-1.314c-.014-.155-.02-.308-.022-.463" transform="translate(0 -345.178)" fill="#8acdec"/>
    <path id="Path_106" data-name="Path 106" d="M381.205,260.589q0,2.223,0,4.445c0,.1.026.241-.056.277s-.161-.09-.232-.155q-.771-.7-1.536-1.414c-.387-.358-.769-.721-1.156-1.079q-1.107-1.023-2.219-2.04c-.076-.069-.038-.107.011-.153l.831-.77q.52-.482,1.04-.964.968-.892,1.938-1.783.592-.546,1.183-1.093c.032-.03.058-.084.109-.071s.053.076.068.123a.706.706,0,0,1,.021.216q0,2.229,0,4.459" transform="translate(-365.668 -248.785)" fill="#8acdec"/>
    <path id="Path_107" data-name="Path 107" d="M168.262,452.5c-.77,0-1.541,0-2.311,0a.257.257,0,0,1-.223-.1,4.012,4.012,0,0,0-1.219-.948,3.26,3.26,0,0,0-.891-.4,1.28,1.28,0,0,0-1.253.3,1.671,1.671,0,0,1-.244.2.8.8,0,0,1-.907-.062,1.992,1.992,0,0,1-.4-.28c-.054-.051-.05-.081,0-.129.31-.288.618-.578.926-.868l1.281-1.2q.478-.449.954-.9a.123.123,0,0,1,.2-.01c.251.2.516.387.767.59a.142.142,0,0,0,.212,0c.258-.2.522-.394.78-.6.059-.046.092-.052.147,0,.27.257.544.51.816.766q.925.869,1.85,1.738.821.77,1.645,1.538c.086.081.176.158.261.24.03.029.091.057.067.1s-.083.019-.126.019h-2.325" transform="translate(-156.37 -435.788)" fill="#8acdec"/>
    <path id="Path_108" data-name="Path 108" d="M67.081,262.346a1.444,1.444,0,0,1,.2-.559c.122-.279.264-.55.394-.825a.953.953,0,0,0,.019-.68,3.16,3.16,0,0,0-.636-1.119,4.165,4.165,0,0,0-.991-.963.383.383,0,0,1-.192-.389c.009-.542,0-1.085,0-1.627a1.459,1.459,0,0,1,.031-.284c.021-.108.061-.119.143-.044q.328.3.654.6l2.321,2.152,1.442,1.333c.194.179.386.359.585.533.076.067.081.109,0,.181-.586.539-1.168,1.082-1.751,1.623q-.49.455-.98.908c-.134.123-.27.243-.407.363-.032.028-.062.064-.11.005a4.552,4.552,0,0,1-.686-.995.459.459,0,0,1-.041-.212" transform="translate(-64.073 -248.803)" fill="#8acdec"/>
    <path id="Path_109" data-name="Path 109" d="M217.962,299.458c-.216.206-.431.414-.648.618-.258.243-.518.485-.777.727-.6.559-1.186,1.127-1.794,1.674-.286.257-.609.474-.913.712a.134.134,0,0,1-.193,0,14.714,14.714,0,0,1-1.2-.963c-.5-.481-1.011-.954-1.516-1.431-.13-.123-.123-.147.042-.222l2.458-1.1a.439.439,0,0,1,.306-.022,7.852,7.852,0,0,0,2.429.257,5.681,5.681,0,0,0,1.305-.175c.158-.044.322-.066.484-.1l.013.026" transform="translate(-205.061 -291.232)" fill="#8acdec"/>
    <path id="Path_110" data-name="Path 110" d="M108.679,248.581H111.3c.068,0,.137,0,.2,0,.106-.007.133.039.092.131q-.241.531-.485,1.061c-.1.227-.214.451-.312.681-.045.106-.092.088-.156.028q-.541-.509-1.082-1.019c-.267-.253-.531-.508-.8-.761a.22.22,0,0,1-.085-.121" transform="translate(-105.703 -241.773)" fill="#8acdec"/>
  </g>
</svg>
