<svg xmlns="http://www.w3.org/2000/svg" width="26.213" height="26.213" viewBox="0 0 26.213 26.213">
  <g id="Group_130" data-name="Group 130" transform="translate(0)" style="isolation: isolate">
    <g id="Vector_31" data-name="Vector 31" transform="translate(13.107 0) rotate(45)" fill="none" style="isolation: isolate">
      <path d="M.654,9.268A7.608,7.608,0,0,0,.226,6.826a1.647,1.647,0,0,1,.841-1.942A7.676,7.676,0,0,0,3.346,3.346,7.676,7.676,0,0,0,4.883,1.067,1.647,1.647,0,0,1,6.826.226,7.608,7.608,0,0,0,9.268.654,7.607,7.607,0,0,0,12.013.1a1.433,1.433,0,0,1,1.76.626A9.994,9.994,0,0,0,15.435,3.1a9.994,9.994,0,0,0,2.38,1.661,1.433,1.433,0,0,1,.626,1.76,7.606,7.606,0,0,0-.559,2.746,7.609,7.609,0,0,0,.428,2.442,1.647,1.647,0,0,1-.841,1.942,7.2,7.2,0,0,0-3.816,3.816,1.647,1.647,0,0,1-1.942.841,7.609,7.609,0,0,0-2.442-.428,7.607,7.607,0,0,0-2.746.559,1.433,1.433,0,0,1-1.76-.626A9.994,9.994,0,0,0,3.1,15.435,9.994,9.994,0,0,0,.721,13.773,1.433,1.433,0,0,1,.1,12.013,7.607,7.607,0,0,0,.654,9.268Z" stroke="none"/>
      <path d="M 6.038702964782715 17.01886940002441 C 7.13223123550415 16.59577369689941 8.218232154846191 16.38130950927734 9.267677307128906 16.38130950927734 C 10.21824836730957 16.38129997253418 11.19637107849121 16.55014801025391 12.17527103424072 16.88320541381836 C 12.21350193023682 16.88015937805176 12.26881408691406 16.85480499267578 12.29348754882812 16.83299446105957 C 12.76813316345215 15.78187274932861 13.38561058044434 14.87211608886719 14.12885665893555 14.12893962860107 C 14.87197971343994 13.38574695587158 15.78164386749268 12.76830291748047 16.8331298828125 12.29342079162598 C 16.85649108886719 12.26727485656738 16.88078308105469 12.21038246154785 16.88334655761719 12.17566394805908 C 16.55019760131836 11.19661235809326 16.38131713867188 10.21840667724609 16.38131713867188 9.267679214477539 C 16.38132667541504 8.218185424804688 16.59578323364258 7.132237434387207 17.01886177062988 6.038737773895264 C 15.93350315093994 5.462884902954102 15.04402637481689 4.831658840179443 14.37386703491211 4.161519527435303 C 13.70369815826416 3.491302013397217 13.07249927520752 2.601839065551758 12.4967565536499 1.51661741733551 C 11.40319061279297 1.939723610877991 10.31721210479736 2.154189348220825 9.267807006835938 2.154189348220825 C 8.317214965820312 2.154199123382568 7.339081764221191 1.985333442687988 6.360289573669434 1.652276515960693 C 6.322052001953125 1.655288338661194 6.266668796539307 1.680658340454102 6.241968631744385 1.702484607696533 C 5.767313480377197 2.753625631332397 5.149893283843994 3.663343191146851 4.406636714935303 4.406599521636963 C 3.663335084915161 5.149910926818848 2.753637790679932 5.767332553863525 1.702375769615173 6.242009162902832 C 1.678988456726074 6.268195152282715 1.654686450958252 6.325167655944824 1.652151823043823 6.359901428222656 C 1.985299944877625 7.338833808898926 2.154206991195679 8.317060470581055 2.154206991195679 9.267788887023926 C 2.154197216033936 10.31722450256348 1.939720988273621 11.40322017669678 1.516624212265015 12.49675750732422 C 2.602044582366943 13.07271957397461 3.491552352905273 13.70397567749023 4.161536693572998 14.37397956848145 C 4.831647396087646 15.04409980773926 5.462877750396729 15.93357563018799 6.038702964782715 17.01886940002441 M 6.01301383972168 18.53548049926758 C 5.505293369293213 18.53548049926758 5.000250816345215 18.27054023742676 4.762176990509033 17.81413841247559 C 4.377067089080811 17.07575988769531 3.808066844940186 16.1418399810791 3.100867033004761 15.43462944030762 C 2.393676996231079 14.72741889953613 1.459726929664612 14.15842914581299 0.7213969230651855 13.77329921722412 C 0.1095669269561768 13.45419883728027 -0.1582430750131607 12.65531921386719 0.0950569286942482 12.01339912414551 C 0.3768269121646881 11.29935932159424 0.6541969180107117 10.32736968994141 0.6542069315910339 9.267779350280762 C 0.6542069315910339 8.339009284973145 0.4539269208908081 7.490359306335449 0.2261269241571426 6.825569152832031 C -0.02082307450473309 6.104779243469238 0.371836930513382 5.195109367370605 1.066906929016113 4.88309907913208 C 1.769856929779053 4.567539215087891 2.613306999206543 4.078619480133057 3.345966815948486 3.345949411392212 C 4.078627109527588 2.613289356231689 4.567556858062744 1.769839286804199 4.883116722106934 1.06688928604126 C 5.195126533508301 0.3718294203281403 6.104798793792725 -0.02083084173500538 6.825576782226562 0.2261192947626114 C 7.490376949310303 0.4539192914962769 8.339016914367676 0.6541993021965027 9.267786979675293 0.6541892886161804 C 10.32737731933594 0.6541892886161804 11.29936695098877 0.3768192827701569 12.01341724395752 0.09504929929971695 C 12.65525531768799 -0.1582412570714951 13.45421695709229 0.1095797345042229 13.77331733703613 0.7214093208312988 C 14.15837669372559 1.45975935459137 14.72742652893066 2.393709182739258 15.43456649780273 3.100899219512939 C 16.14177703857422 3.808089256286621 17.07570648193359 4.377079486846924 17.81407737731934 4.762179374694824 C 18.42591667175293 5.081289291381836 18.6937370300293 5.880199432373047 18.44043731689453 6.522079467773438 C 18.15866661071777 7.236109256744385 17.88132667541504 8.208099365234375 17.88131713867188 9.26768970489502 C 17.88131713867188 10.19645977020264 18.08157730102539 11.04509925842285 18.30936622619629 11.70996952056885 C 18.55633735656738 12.43068885803223 18.16364669799805 13.34035968780518 17.46855735778809 13.6523494720459 C 16.76562690734863 13.96796894073486 15.92220687866211 14.4568395614624 15.18956661224365 15.18954944610596 C 14.45684719085693 15.92219924926758 13.9679069519043 16.7656192779541 13.65235710144043 17.46854972839355 C 13.34036636352539 18.16363906860352 12.43070220947266 18.55632781982422 11.70997714996338 18.30935859680176 C 11.04510688781738 18.0815601348877 10.19646739959717 17.88129997253418 9.267697334289551 17.88130950927734 C 8.208106994628906 17.88130950927734 7.236116886138916 18.15865898132324 6.522077083587646 18.4404296875 C 6.359063148498535 18.50475692749023 6.185853958129883 18.53548049926758 6.01301383972168 18.53548049926758 Z" stroke="none" fill="#5fa8d3"/>
    </g>
    <g id="Group_131" data-name="Group 131" transform="translate(10.201 8.748)" style="isolation: isolate">
      <g id="Ellipse_59" data-name="Ellipse 59" transform="translate(0.002)" fill="none" style="isolation: isolate">
        <path d="M1.453,2.906A1.453,1.453,0,1,1,2.906,1.453,1.454,1.454,0,0,1,1.453,2.906Z" stroke="none"/>
        <path d="M 1.452794790267944 1.90556013584137 C 1.702464818954468 1.90556013584137 1.905584812164307 1.702440142631531 1.905584812164307 1.45278012752533 C 1.905584812164307 1.203120112419128 1.702464818954468 1.00000011920929 1.452794790267944 1.00000011920929 C 1.203124761581421 1.00000011920929 1.000004768371582 1.203120112419128 1.000004768371582 1.45278012752533 C 1.000004768371582 1.702440142631531 1.203124761581421 1.90556013584137 1.452794790267944 1.90556013584137 M 1.452794790267944 2.90556001663208 C 0.6511647701263428 2.90556001663208 4.790268121723784e-06 2.254400014877319 4.790268121723784e-06 1.45278012752533 C 4.790268121723784e-06 0.6511601209640503 0.6511647701263428 1.275253254107156e-07 1.452794790267944 1.275253254107156e-07 C 2.254424810409546 1.275253254107156e-07 2.905584812164307 0.6511601209640503 2.905584812164307 1.45278012752533 C 2.905584812164307 2.254400014877319 2.254424810409546 2.90556001663208 1.452794790267944 2.90556001663208 Z" stroke="none" fill="#5fa8d3"/>
      </g>
      <g id="Ellipse_60" data-name="Ellipse 60" transform="translate(2.907 6.538)" fill="none" style="isolation: isolate">
        <path d="M1.453,2.906A1.453,1.453,0,1,1,2.906,1.453,1.454,1.454,0,0,1,1.453,2.906Z" stroke="none"/>
        <path d="M 1.452794790267944 1.90556013584137 C 1.702464818954468 1.90556013584137 1.905584812164307 1.702440142631531 1.905584812164307 1.45278012752533 C 1.905584812164307 1.203120112419128 1.702464818954468 1.00000011920929 1.452794790267944 1.00000011920929 C 1.203124761581421 1.00000011920929 1.000004768371582 1.203120112419128 1.000004768371582 1.45278012752533 C 1.000004768371582 1.702440142631531 1.203124761581421 1.90556013584137 1.452794790267944 1.90556013584137 M 1.452794790267944 2.90556001663208 C 0.6511647701263428 2.90556001663208 4.790268121723784e-06 2.254400014877319 4.790268121723784e-06 1.45278012752533 C 4.790268121723784e-06 0.6511601209640503 0.6511647701263428 1.275253254107156e-07 1.452794790267944 1.275253254107156e-07 C 2.254424810409546 1.275253254107156e-07 2.905584812164307 0.6511601209640503 2.905584812164307 1.45278012752533 C 2.905584812164307 2.254400014877319 2.254424810409546 2.90556001663208 1.452794790267944 2.90556001663208 Z" stroke="none" fill="#5fa8d3"/>
      </g>
      <path id="Vector_32" data-name="Vector 32" d="M0,0H8.721" transform="translate(6.167 1.451) rotate(135)" fill="none" stroke="#5fa8d3" stroke-linecap="round" stroke-width="1" style="isolation: isolate"/>
    </g>
  </g>
</svg>
