<svg id="Group" xmlns="http://www.w3.org/2000/svg" width="24" height="24" viewBox="0 0 24 24">
  <path id="Vector" d="M0,0H24V24H0Z" fill="none"/>
  <path id="Vector-2" data-name="Vector" d="M18.938,7H20a2,2,0,0,1,2,2v4a2,2,0,0,1-2,2H18.938A8,8,0,0,1,11,22V20a6,6,0,0,0,6-6V8A6,6,0,0,0,5,8v7H2a2,2,0,0,1-2-2V9A2,2,0,0,1,2,7H3.062A8,8,0,0,1,18.938,7ZM2,9v4H3V9ZM19,9v4h1V9ZM6.76,14.784l1.06-1.7a6.006,6.006,0,0,0,6.36,0l1.06,1.7a8.006,8.006,0,0,1-8.48,0Z" transform="translate(1 1.001)" fill="#effffa"/>
</svg>
