<svg xmlns="http://www.w3.org/2000/svg" width="20.454" height="17.421" viewBox="0 0 20.454 17.421">
  <path id="Icon" d="M425.73,138.786a1.2,1.2,0,0,1,0,1.7l-9.773,9.78a1.2,1.2,0,0,1-.612.328l-4.366.879.881-4.361a1.2,1.2,0,0,1,.328-.61l9.774-9.78a1.2,1.2,0,0,1,1.7,0Zm-5.193,12.457.742-.831a2.062,2.062,0,0,1,3.279.266,2.062,2.062,0,0,0,3.118.427l1.345-1.208" transform="translate(-409.979 -135.234)" fill="none" stroke="#1b4965" stroke-linecap="round" stroke-linejoin="round" stroke-width="2"/>
</svg>
