<svg id="Group_4" data-name="Group 4" xmlns="http://www.w3.org/2000/svg" xmlns:xlink="http://www.w3.org/1999/xlink" width="19.446" height="17.725" viewBox="0 0 19.446 17.725">
  <defs>
    <clipPath id="clip-path">
      <rect id="Rectangle_3" data-name="Rectangle 3" width="19.446" height="17.725" fill="none"/>
    </clipPath>
  </defs>
  <g id="Group_3" data-name="Group 3" clip-path="url(#clip-path)">
    <path id="Path_27" data-name="Path 27" d="M14.12,0A5.046,5.046,0,0,1,15.606.29a5.505,5.505,0,0,1,1.635.883,5.749,5.749,0,0,1,1.444,1.65,5.566,5.566,0,0,1,.629,1.619,3.864,3.864,0,0,1,.106.683c.007.068-.021.139.021.2q0,.145,0,.29,0,.069,0,.138t0,.154v.025a5.658,5.658,0,0,1-1.253,3.32,11.072,11.072,0,0,1-.846.894c-.383.382-.763.766-1.146,1.148-.4.4-.811.8-1.214,1.207-.314.314-.625.631-.938.945q-.5.5-1.006,1.005-.581.582-1.163,1.163c-.336.335-.674.667-1.009,1s-.7.7-1.039,1.05c-.087.091-.132.054-.2-.015Q5.986,14.009,2.34,10.365,1.979,10,1.619,9.642A5.544,5.544,0,0,1,.463,7.91,5.7,5.7,0,0,1,.063,6.5,5.333,5.333,0,0,1,.039,5.032,5.7,5.7,0,0,1,3.661.363,4.213,4.213,0,0,1,4.528.108,4.125,4.125,0,0,1,5.357,0h.609a5.445,5.445,0,0,1,2.67.8,5.321,5.321,0,0,1,1.008.775.109.109,0,0,0,.18,0A5.406,5.406,0,0,1,11.787.334,5.01,5.01,0,0,1,13.443,0h.676" transform="translate(0 0)" fill="#8acded"/>
  </g>
</svg>
