<svg xmlns="http://www.w3.org/2000/svg" width="16.584" height="20" viewBox="0 0 16.584 20">
  <g id="filter_5_" data-name="filter (5)" transform="translate(-8.581)">
    <path id="Path_296" data-name="Path 296" d="M18.225,20a1.8,1.8,0,0,1-.72-.1l-2.64-1.02a2.2,2.2,0,0,1-1.42-2.04v-5.2l-4.6-8.46a2.312,2.312,0,0,1,0-2.14A1.933,1.933,0,0,1,10.665,0h12.36a2.274,2.274,0,0,1,1.84,1.02,2.056,2.056,0,0,1,0,2.14l-4.6,8.58v6.12a2,2,0,0,1-.92,1.74A1.551,1.551,0,0,1,18.225,20ZM10.665,2.14h-.1l4.6,8.58a1.752,1.752,0,0,1,.3,1.02v5.2a.1.1,0,0,0,.1.1l2.66,1.02.1-.1V11.84a2,2,0,0,1,.3-1.02l4.6-8.58-.1-.1Z" transform="translate(0 0)" fill="#838f77"/>
  </g>
</svg>
