<svg xmlns="http://www.w3.org/2000/svg" width="21.465" height="21.465" viewBox="0 0 21.465 21.465"><path d="M276.155,213.9H267.4a.7.7,0,0,0-.7.7v2.8a.7.7,0,0,0,.7.7h4.932a6.574,6.574,0,0,1-2.831,3.319l2.1,3.64a10.526,10.526,0,0,0,5.364-9.2,7.25,7.25,0,0,0-.12-1.374A.707.707,0,0,0,276.155,213.9Z" transform="translate(-255.499 -205.034)" fill="#167ee6"/><path d="M63.689,328.768A6.531,6.531,0,0,1,58.04,325.5l-3.64,2.1a10.723,10.723,0,0,0,14.658,3.934v0l-2.1-3.64A6.476,6.476,0,0,1,63.689,328.768Z" transform="translate(-52.957 -311.504)" fill="#12b347"/><path d="M261.864,381.045v0l-2.1-3.64a6.493,6.493,0,0,1-3.263.882v4.2A10.685,10.685,0,0,0,261.864,381.045Z" transform="translate(-245.768 -361.019)" fill="#0f993e"/><path d="M27.2,143.259A6.493,6.493,0,0,1,28.084,140l-3.64-2.1a10.672,10.672,0,0,0,0,10.719l3.64-2.1A6.446,6.446,0,0,1,27.2,143.259Z" transform="translate(-23 -132.527)" fill="#ffd500"/><path d="M63.689,25.2a6.5,6.5,0,0,1,4.146,1.489.7.7,0,0,0,.938-.041l1.981-1.981a.7.7,0,0,0-.041-1.03A10.7,10.7,0,0,0,54.4,26.373l3.64,2.1A6.531,6.531,0,0,1,63.689,25.2Z" transform="translate(-52.957 -21)" fill="#ff4b26"/><path d="M260.646,26.69a.7.7,0,0,0,.938-.041l1.981-1.981a.7.7,0,0,0-.041-1.03A10.665,10.665,0,0,0,256.5,21v4.2A6.479,6.479,0,0,1,260.646,26.69Z" transform="translate(-245.768 -21)" fill="#d93f21"/></svg>