<svg id="Group_31249" data-name="Group 31249" xmlns="http://www.w3.org/2000/svg" width="31.5" height="32.138" viewBox="0 0 31.5 32.138">
  <path id="Path_36603" data-name="Path 36603" d="M30.072,12.748c-3.5.054-7,.054-10.5.054-1,0-2.026-.054-3,0-.208,0-.523.236-.523.368-.026,2.028-.026,4.053-.026,6.159h8.55a4.33,4.33,0,0,1-.288,1.025c-1.29,3.9-5.318,5.817-9.658,5.106A9.407,9.407,0,0,1,6.915,14.249a9.939,9.939,0,0,1,.631-2.183,9.445,9.445,0,0,1,10.525-5.29A8.679,8.679,0,0,1,22.1,8.855c1.578-1.58,3.078-3.078,4.71-4.71a2.322,2.322,0,0,1-.394-.342,15.394,15.394,0,0,0-13-3.554A15.923,15.923,0,0,0,.257,13.354a15.839,15.839,0,0,0,.789,8.5,16.2,16.2,0,0,0,16.92,10.184,14.336,14.336,0,0,0,9.291-4.343c3.708-3.945,4.68-8.682,4.077-13.919-.106-.869-.447-1.027-1.262-1.027" transform="translate(0 0)" fill="#1b4965" fill-rule="evenodd"/>
</svg>
