<svg xmlns="http://www.w3.org/2000/svg" width="23.956" height="21.463" viewBox="0 0 23.956 21.463">
  <path id="favorite_fill" data-name="favorite fill" d="M31.609,51.745c-.483.863-.484.863-.484.863h0l-.008,0-.027-.015-.1-.057c-.086-.05-.209-.123-.365-.218-.312-.19-.754-.467-1.283-.824a35.691,35.691,0,0,1-3.887-3.018c-2.775-2.5-5.822-6.159-5.822-10.35a6.7,6.7,0,0,1,11.978-4.137,6.7,6.7,0,0,1,11.978,4.137c0,4.191-3.047,7.853-5.822,10.35a35.706,35.706,0,0,1-3.887,3.018c-.529.356-.971.634-1.283.824-.156.095-.279.168-.365.218l-.1.057-.021.012-.006,0-.008,0h0S32.092,52.608,31.609,51.745Zm0,0,.483.863-.483.271-.483-.271Z" transform="translate(-19.631 -31.416)" fill="#a30000" fill-rule="evenodd"/>
</svg>
