<svg xmlns="http://www.w3.org/2000/svg" xmlns:xlink="http://www.w3.org/1999/xlink" width="38" height="38" viewBox="0 0 38 38">
  <defs>
    <clipPath id="clip-path">
      <rect id="Bold_Building_Infrastructure_Home" data-name="Bold / Building, Infrastructure / Home" width="38" height="38" rx="3" transform="translate(0 -0.095)" fill="#5fa8d3"/>
    </clipPath>
  </defs>
  <g id="Group_36565" data-name="Group 36565" transform="translate(0 0.095)" clip-path="url(#clip-path)">
    <path id="Vector" d="M5272.228,7948h-3.939a.78.78,0,0,0-.788.788v.095l5.516,4.412v-4.507A.78.78,0,0,0,5272.228,7948Z" transform="translate(-5243.072 -7943.271)" fill="#5fa8d3"/>
    <path id="Vector-2" data-name="Vector" d="M5262.749,7955.22a1.97,1.97,0,1,1,1.971,1.97A1.971,1.971,0,0,1,5262.749,7955.22Z" transform="translate(-5245.807 -7940.248)" fill="#5fa8d3" fill-rule="evenodd"/>
    <path id="Vector-3" data-name="Vector" d="M5283.982,7960.491l1.229.992a1.189,1.189,0,1,0,1.482-1.858l-12.813-10.244a5.919,5.919,0,0,0-7.375,0l-12.814,10.244a1.189,1.189,0,1,0,1.482,1.858l1.229-.992v16.217h-1.971a1.182,1.182,0,0,0,0,2.364h31.521a1.182,1.182,0,0,0,0-2.364h-1.97Zm-18.124-2.3a4.334,4.334,0,1,1,4.334,4.334A4.332,4.332,0,0,1,5265.858,7958.19Zm4.412,5.91a22.5,22.5,0,0,1,2.68.095,3.247,3.247,0,0,1,3.058,3.057,19.6,19.6,0,0,1,.094,2.49v6.966h-2.363v-6.7a19.574,19.574,0,0,0-.079-2.443c-.062-.5-.174-.662-.269-.756s-.251-.206-.756-.269a37.761,37.761,0,0,0-4.886,0c-.5.063-.662.174-.756.269s-.206.252-.269.756a19.574,19.574,0,0,0-.079,2.443v6.7h-2.363v-6.776a22.506,22.506,0,0,1,.095-2.68,3.245,3.245,0,0,1,3.057-3.057,22.506,22.506,0,0,1,2.68-.095Z" transform="translate(-5251.28 -7943.218)" fill="#5fa8d3" fill-rule="evenodd"/>
    <path id="Vector-4" data-name="Vector" d="M5262.749,7955.22a1.97,1.97,0,1,1,1.971,1.97A1.971,1.971,0,0,1,5262.749,7955.22Z" transform="translate(-5245.807 -7940.248)" fill="#5fa8d3" fill-rule="evenodd"/>
  </g>
</svg>
