<svg xmlns="http://www.w3.org/2000/svg" width="22.192" height="22.192" viewBox="0 0 22.192 22.192">
  <g id="Group_23701" data-name="Group 23701" transform="translate(-1607.33 -323.105)">
    <path id="Path_38592" data-name="Path 38592" d="M484.426,154.1c2.963,0,3.314.011,4.484.064a6.144,6.144,0,0,1,2.06.382,3.674,3.674,0,0,1,2.106,2.106,6.143,6.143,0,0,1,.382,2.06c.053,1.17.064,1.521.064,4.484s-.011,3.314-.064,4.484a6.143,6.143,0,0,1-.382,2.06,3.674,3.674,0,0,1-2.106,2.106,6.138,6.138,0,0,1-2.06.382c-1.17.053-1.521.064-4.484.064s-3.314-.011-4.484-.064a6.137,6.137,0,0,1-2.06-.382,3.674,3.674,0,0,1-2.106-2.106,6.137,6.137,0,0,1-.382-2.06c-.053-1.17-.064-1.521-.064-4.484s.011-3.314.064-4.484a6.137,6.137,0,0,1,.382-2.06,3.674,3.674,0,0,1,2.106-2.106,6.144,6.144,0,0,1,2.06-.382c1.17-.053,1.521-.064,4.484-.064m0-2c-3.013,0-3.392.013-4.575.067a8.146,8.146,0,0,0-2.693.516,5.674,5.674,0,0,0-3.245,3.245,8.146,8.146,0,0,0-.516,2.693c-.054,1.184-.067,1.562-.067,4.575s.013,3.392.067,4.575a8.146,8.146,0,0,0,.516,2.693,5.674,5.674,0,0,0,3.245,3.245,8.146,8.146,0,0,0,2.693.516c1.184.054,1.562.067,4.575.067s3.391-.013,4.575-.067a8.146,8.146,0,0,0,2.693-.516,5.674,5.674,0,0,0,3.245-3.245,8.146,8.146,0,0,0,.516-2.693c.054-1.184.067-1.562.067-4.575s-.013-3.392-.067-4.575a8.146,8.146,0,0,0-.516-2.693,5.673,5.673,0,0,0-3.245-3.245,8.146,8.146,0,0,0-2.693-.516c-1.184-.054-1.562-.067-4.575-.067" transform="translate(1134 171.004)" fill="#effffa"/>
    <path id="Path_38593" data-name="Path 38593" d="M499.7,172.777a5.7,5.7,0,1,0,5.7,5.7,5.7,5.7,0,0,0-5.7-5.7m0,9.4a3.7,3.7,0,1,1,3.7-3.7,3.7,3.7,0,0,1-3.7,3.7" transform="translate(1118.722 155.726)" fill="#effffa"/>
    <path id="Path_38594" data-name="Path 38594" d="M536.08,168.146a1.332,1.332,0,1,1-1.332-1.332,1.331,1.331,0,0,1,1.332,1.332" transform="translate(1089.601 160.132)" fill="#effffa"/>
  </g>
</svg>
