<svg id="Group_12" data-name="Group 12" xmlns="http://www.w3.org/2000/svg"
  xmlns:xlink="http://www.w3.org/1999/xlink" width="18.571" height="16.026"
  viewBox="0 0 18.571 16.026">
  <defs>
    <clipPath id="clip-path">
      <rect id="Rectangle_7" data-name="Rectangle 7" width="18.571" height="16.026" fill="none" />
    </clipPath>
  </defs>
  <g id="Group_11" data-name="Group 11" clip-path="url(#clip-path)">
    <path id="Path_60" data-name="Path 60"
      d="M25.847,11.825c1.377,0,2.754.015,4.131-.007a.963.963,0,0,1,.964.96c-.018,1.285,0,2.571-.009,3.857,0,.137.035.175.174.175,2.2,0,4.4,0,6.606-.008a.97.97,0,0,1,1,.992c-.011,2.125,0,4.249,0,6.374a.925.925,0,0,1-.656.933,1.128,1.128,0,0,1-.322.043c-.2.007-.4.006-.6,0-.086,0-.115.023-.122.114-.046.624-.008,1.248-.02,1.872a.353.353,0,0,1-.312.385.423.423,0,0,1-.37-.167c-.258-.256-.51-.519-.768-.776-.447-.446-.9-.889-1.343-1.337a.31.31,0,0,0-.244-.091q-2.243,0-4.486,0a.941.941,0,0,1-.893-.516.791.791,0,0,1-.093-.379q0-1.963,0-3.925c0-.182,0-.182-.181-.182-.935,0-1.869,0-2.8,0a.36.36,0,0,0-.278.113q-1.014,1.019-2.033,2.034a.618.618,0,0,1-.342.232c-.261.034-.43-.147-.431-.468,0-.574,0-1.149,0-1.723,0-.185,0-.185-.185-.185H21.6a.9.9,0,0,1-.9-.892c-.006-.989,0-1.979,0-2.968q0-1.771,0-3.542a.916.916,0,0,1,.712-.9,1.021,1.021,0,0,1,.245-.014h4.185m-.03.713H21.77c-.284,0-.354.068-.351.356.013,1.18-.018,2.359.018,3.539.022.719.008,1.44,0,2.16,0,.154-.033.308-.019.463.025.275.02.382.379.376.314-.005.63.014.943-.006a.38.38,0,0,1,.4.407c-.012.419,0,.839,0,1.258,0,.047-.028.113.028.136s.085-.041.118-.075q.761-.765,1.52-1.533a.591.591,0,0,1,.456-.194c1.545.007,3.09,0,4.635,0,.248,0,.324-.076.324-.328q0-3.124,0-6.249c0-.243-.073-.316-.317-.316H25.817M34.41,17.52h-3.3c-.169,0-.178.01-.178.178,0,.515,0,1.03,0,1.546a.832.832,0,0,1-.08.356.889.889,0,0,1-.855.543c-.214,0-.429.009-.643,0-.137-.007-.173.046-.173.173,0,1.272,0,2.544,0,3.816,0,.218.067.283.284.283q2.346,0,4.692,0a.532.532,0,0,1,.4.17q.791.795,1.586,1.585c.027.027.051.08.1.061s.023-.074.023-.112c0-.424,0-.848,0-1.272,0-.3.132-.429.437-.43.351,0,.7,0,1.053,0a.2.2,0,0,0,.208-.14.443.443,0,0,0,.023-.188q0-2.223,0-4.445,0-.889,0-1.778c0-.265-.079-.343-.339-.343H34.41"
      transform="translate(-20.137 -11.494)" fill="#8ccdec" />
    <path id="Path_61" data-name="Path 61"
      d="M460.839,3.43a4.114,4.114,0,0,0-.572-.881,5.486,5.486,0,0,0-1.133-1.056,5.162,5.162,0,0,0-1.459-.725c-.271-.083-.274-.082-.19-.352a1.6,1.6,0,0,0,.076-.289c.017-.149.113-.138.207-.11.147.044.29.1.434.157a6.243,6.243,0,0,1,2.245,1.479,6.954,6.954,0,0,1,1,1.324c.021.036.026.1.088.084s.025-.071.029-.109c.029-.275.058-.55.083-.826.007-.08.052-.1.12-.093.171.018.343.037.514.06.081.011.107.052.1.142-.041.315-.068.631-.1.947-.043.383-.078.767-.119,1.151a.364.364,0,0,1-.566.306c-.33-.16-.659-.32-.987-.484-.377-.189-.75-.384-1.128-.571-.09-.045-.112-.087-.06-.177.074-.131.137-.267.2-.4.051-.1.114-.119.22-.063.3.159.605.307.908.459.019.009.04.014.094.032"
      transform="translate(-444.912 0)" fill="#8ccdec" />
    <path id="Path_62" data-name="Path 62"
      d="M.005,388.368c.015-.45.02-.9.049-1.349.015-.237.01-.473.023-.709.016-.3.175-.439.419-.428a.578.578,0,0,1,.261.112c.518.311,1.033.627,1.551.937.1.058.123.106.049.207s-.142.241-.214.362c-.05.085-.109.129-.21.063-.129-.084-.264-.159-.4-.238-.024-.014-.051-.035-.074-.016-.039.031,0,.055.017.079a4.782,4.782,0,0,0,.751.841A5.444,5.444,0,0,0,4.254,389.4c.232.077.473.13.71.19.056.014.094.025.08.1-.033.173-.067.347-.091.522-.013.095-.064.11-.142.093a6.709,6.709,0,0,1-2.166-.849,6.394,6.394,0,0,1-1.793-1.671c-.018-.025-.029-.069-.065-.06s-.029.06-.031.094a5.424,5.424,0,0,0-.027.586c.006.095-.035.133-.129.127-.172-.011-.345-.018-.517-.026-.1,0-.088-.073-.078-.137m1.42-1.1s0-.008-.006-.01-.008,0-.012,0l.008.015.01-.007"
      transform="translate(0 -375.315)" fill="#8ccdec" />
    <path id="Path_63" data-name="Path 63"
      d="M51.432,436.033l-.01.007-.008-.015s.009,0,.012,0,0,.006.006.009"
      transform="translate(-50.006 -424.084)" fill="#fbfcfe" />
    <path id="Path_64" data-name="Path 64"
      d="M134.561,80.124h.027c.408,0,.412,0,.551.375.245.665.484,1.332.728,2,.229.627.459,1.253.693,1.878.121.324.126.322-.221.32a1.549,1.549,0,0,0-.273,0c-.152.027-.205-.054-.249-.178-.119-.338-.249-.673-.37-1.011a.123.123,0,0,0-.135-.1c-.5,0-.994,0-1.491,0a.138.138,0,0,0-.152.1c-.122.357-.25.711-.373,1.067a.143.143,0,0,1-.157.117c-.168-.006-.337,0-.506,0-.1,0-.116-.05-.088-.13.237-.676.473-1.353.714-2.028s.5-1.374.741-2.062c.124-.348.121-.349.492-.349Zm-.008.773-.033,0c-.008.02-.017.04-.024.06-.19.572-.379,1.145-.571,1.716-.034.1.028.1.089.1q.52,0,1.039,0c.111,0,.158-.038.113-.16-.123-.333-.236-.669-.355-1-.085-.239-.172-.476-.259-.714"
      transform="translate(-128.904 -77.93)" fill="#8ccdec" />
    <path id="Path_65" data-name="Path 65"
      d="M405.408,263.6c.287,0,.574,0,.862,0,.089,0,.121-.029.118-.118-.005-.187,0-.374,0-.561,0-.086.023-.124.115-.12.159.006.319.006.479,0,.1,0,.124.037.122.129-.005.182,0,.365,0,.547,0,.1.033.124.126.123.552,0,1.1,0,1.655,0,.171,0,.185.015.187.189,0,.132,0,.265,0,.4.005.11-.031.157-.148.152-.182-.008-.365,0-.547,0a.148.148,0,0,0-.176.14,3.619,3.619,0,0,1-.658,1.494c-.057.076-.115.152-.175.226s-.052.116.026.165a4.418,4.418,0,0,0,1.417.581c.31.067.307.064.264.37a1.84,1.84,0,0,0-.048.253c0,.171-.1.155-.209.131a5.387,5.387,0,0,1-1.958-.828.165.165,0,0,0-.228,0,5.531,5.531,0,0,1-1.957.83c-.11.026-.2.029-.217-.129s-.058-.284-.087-.426c-.018-.087.015-.131.108-.149a4.571,4.571,0,0,0,1.578-.614c.144-.091.141-.092.035-.219a3.615,3.615,0,0,1-.8-1.638c-.026-.129-.068-.2-.219-.187-.172.015-.346,0-.519,0-.1,0-.142-.028-.138-.132.006-.159.005-.319,0-.479,0-.1.037-.128.13-.127.287,0,.574,0,.862,0m1.348.737h0c-.214,0-.428,0-.642,0-.091,0-.127.028-.1.12a3.041,3.041,0,0,0,.646,1.26c.073.085.117.065.18-.009a3.148,3.148,0,0,0,.638-1.251c.02-.077,0-.121-.09-.12-.209,0-.419,0-.628,0"
      transform="translate(-393.29 -255.603)" fill="#8ccdec" />
  </g>
</svg>