<svg xmlns="http://www.w3.org/2000/svg" width="38" height="38" viewBox="0 0 38 38">
  <g id="right_arrow_unactive" data-name="right arrow unactive" transform="translate(-369 -833.821)">
    <rect id="Rectangle_49" data-name="Rectangle 49" width="38" height="38" rx="10" transform="translate(369 833.821)" fill="#4f5748"/>
    <g id="send_1_" data-name="send (1)" transform="translate(271.27 725.284)">
      <path id="Path_310" data-name="Path 310" d="M110.061,134.537a1.334,1.334,0,0,1-1.206-1.892l2.37-5.109-2.37-5.109a1.332,1.332,0,0,1,1.207-1.89,1.337,1.337,0,0,1,.549.118l12.551,5.668a1.331,1.331,0,0,1,0,2.425l-12.55,5.668A1.35,1.35,0,0,1,110.061,134.537Zm0-13.38a.711.711,0,0,0-.505.212.7.7,0,0,0-.139.8l2.387,5.145a.543.543,0,0,1,0,.445l-2.388,5.148a.7.7,0,0,0,.139.8.711.711,0,0,0,.5.214.721.721,0,0,0,.3-.066l12.548-5.667a.7.7,0,0,0,.417-.647.688.688,0,0,0-.415-.647l-12.552-5.669A.72.72,0,0,0,110.062,121.157Z" fill="#fff"/>
    </g>
  </g>
</svg>
