<svg id="Group_14" data-name="Group 14" xmlns="http://www.w3.org/2000/svg" xmlns:xlink="http://www.w3.org/1999/xlink" width="19.973" height="18.188" viewBox="0 0 19.973 18.188">
  <defs>
    <clipPath id="clip-path">
      <rect id="Rectangle_8" data-name="Rectangle 8" width="19.973" height="18.188" fill="none"/>
    </clipPath>
  </defs>
  <g id="Group_13" data-name="Group 13" clip-path="url(#clip-path)">
    <path id="Path_66" data-name="Path 66" d="M2.507,15.177H.374c-.224,0-.306-.046-.358-.2a.383.383,0,0,1,.154-.408c.569-.458,1.136-.919,1.707-1.375a.39.39,0,0,0,.158-.338c0-1.746-.013-3.493,0-5.239a4.7,4.7,0,0,1,.669-2.344,5.421,5.421,0,0,1,.982-1.231,6.039,6.039,0,0,1,1.87-1.2c.265-.108.261-.106.251-.4A2.282,2.282,0,0,1,6.386.793,2.209,2.209,0,0,1,8.165,0a2.245,2.245,0,0,1,1.955,1.147,2.2,2.2,0,0,1,.286,1.481.108.108,0,0,0,.083.132,5.652,5.652,0,0,1,.837.387.152.152,0,0,0,.2-.038,5.314,5.314,0,0,1,.856-.65,5,5,0,0,1,1.524-.6,4.814,4.814,0,0,1,1.287-.111,5.131,5.131,0,0,1,1.464.292,4.975,4.975,0,0,1,1.926,1.247,4.905,4.905,0,0,1,1.006,1.544,5.31,5.31,0,0,1,.369,1.539A4.724,4.724,0,0,1,19.8,8.054a4.863,4.863,0,0,1-1.022,1.934A5.039,5.039,0,0,1,17.247,11.2a4.749,4.749,0,0,1-1.63.5,4.331,4.331,0,0,1-.747.048c-.163-.009-.325-.029-.487-.049-.111-.013-.164.01-.16.142.009.365.006.729,0,1.094a.245.245,0,0,0,.1.212q.762.617,1.522,1.236c.109.089.219.177.322.273a.284.284,0,0,1,.068.326.268.268,0,0,1-.258.189c-.2,0-.392,0-.588,0H11.654c-.223,0-.234.01-.267.231a3.229,3.229,0,0,1-.813,1.692,3.264,3.264,0,0,1-1.614.985,3.19,3.19,0,0,1-1.176.083A3.277,3.277,0,0,1,5.316,16.63a3.143,3.143,0,0,1-.467-1.3c-.014-.115-.056-.159-.18-.158-.72.006-1.441,0-2.161,0m12.528-.624a.85.85,0,0,0-.063-.072c-.36-.291-.723-.579-1.08-.874-.123-.1-.28-.186-.291-.375a3.839,3.839,0,0,1-.018-.6c.03-.3-.021-.591,0-.885.012-.167-.068-.221-.2-.263a4.805,4.805,0,0,1-1.816-1.072A5.036,5.036,0,0,1,10.6,9.185a4.938,4.938,0,0,1-.586-3.142,4.941,4.941,0,0,1,.536-1.648c.114-.213.263-.4.381-.614.041-.072.048-.118-.043-.156s-.2-.1-.306-.149a5.716,5.716,0,0,0-2.176-.5,7.813,7.813,0,0,0-.887.02,5.878,5.878,0,0,0-2.661.923A4.931,4.931,0,0,0,3.212,5.646,4.343,4.343,0,0,0,2.655,7.84c0,1.764,0,3.529,0,5.293a.42.42,0,0,1-.159.357q-.419.337-.835.679a3.833,3.833,0,0,0-.441.384ZM14.971,2.37a4.38,4.38,0,1,0,4.374,4.424A4.388,4.388,0,0,0,14.971,2.37M8.129,15.177H5.655c-.191,0-.191,0-.179.187a.356.356,0,0,0,.008.068A2.818,2.818,0,0,0,6.6,17.087a2.61,2.61,0,0,0,1.631.471,2.552,2.552,0,0,0,1.68-.68,2.655,2.655,0,0,0,.856-1.529c.029-.16.026-.171-.14-.171h-2.5M6.43,2.3a1.564,1.564,0,0,0,.012.163c.009.05.035.076.1.063a9.427,9.427,0,0,1,1.088-.165,6.261,6.261,0,0,1,.954,0,7.119,7.119,0,0,1,1.128.172c.054.013.082,0,.092-.064a1.287,1.287,0,0,0-.012-.473A1.7,1.7,0,0,0,6.43,2.3" transform="translate(0 0)" fill="#8dcdeb"/>
    <path id="Path_67" data-name="Path 67" d="M508.669,100.546c0-.583,0-1.167,0-1.75a1,1,0,0,1,.617-.962.977.977,0,0,1,1.071.146.87.87,0,0,1,.364.684c.051,1.056.016,2.114.023,3.17a4.384,4.384,0,0,1-.017.586,1.022,1.022,0,0,1-.931.887,1.034,1.034,0,0,1-1.116-.834.955.955,0,0,1-.012-.19q0-.868,0-1.737m1.452-.012h0c0-.588,0-1.176,0-1.764a.414.414,0,0,0-.8-.142.846.846,0,0,0-.044.295q0,1.354,0,2.708c0,.2,0,.4,0,.6a.454.454,0,0,0,.438.467.439.439,0,0,0,.412-.47c-.013-.565,0-1.131,0-1.7" transform="translate(-494.74 -95.058)" fill="#8dcdeb"/>
    <path id="Path_68" data-name="Path 68" d="M510.75,304.665a1.326,1.326,0,0,1-.187.826,1.05,1.05,0,0,1-1.185.394,1.014,1.014,0,0,1-.7-.983,3.952,3.952,0,0,1,.021-.627.965.965,0,0,1,.646-.765,1.03,1.03,0,0,1,1.363.686,1.471,1.471,0,0,1,.044.469m-.624.04c0-.089,0-.157,0-.225a.416.416,0,0,0-.823-.1,1.668,1.668,0,0,0-.016.557.435.435,0,0,0,.4.385.428.428,0,0,0,.423-.3,1.275,1.275,0,0,0,.017-.319" transform="translate(-494.745 -295.13)" fill="#8dcdeb"/>
  </g>
</svg>
