<svg xmlns="http://www.w3.org/2000/svg" xmlns:xlink="http://www.w3.org/1999/xlink" width="37.824" height="37.824" viewBox="0 0 37.824 37.824">
  <defs>
    <clipPath id="clip-path">
      <rect id="Bold_Building_Infrastructure_Buildings" data-name="Bold / Building, Infrastructure / Buildings" width="37.824" height="37.824" rx="3" transform="translate(0 0)" fill="#5fa8d3"/>
    </clipPath>
  </defs>
  <g id="Group_36561" data-name="Group 36561" clip-path="url(#clip-path)">
    <path id="Vector" d="M5014.92,7947h3.152c2.979,0,4.46,0,5.375.93.93.914.93,2.4.93,5.374v24.034h1.576a1.182,1.182,0,1,1,0,2.364h-31.52a1.182,1.182,0,1,1,0-2.364h1.576v-19.306c0-2.979,0-4.46.93-5.374.914-.93,2.4-.93,5.374-.93h6.3c2.979,0,4.46,0,5.375.93.93.914.93,2.4.93,5.374v19.306h2.364V7957.89a28.063,28.063,0,0,0-.142-3.625,5.06,5.06,0,0,0-4.759-4.76,27.184,27.184,0,0,0-3.562-.142,2.6,2.6,0,0,1,.725-1.435C5010.459,7947,5011.941,7947,5014.92,7947Zm-15.366,9.456a1.19,1.19,0,0,1,1.182-1.182h9.456a1.182,1.182,0,0,1,0,2.363h-9.456A1.19,1.19,0,0,1,4999.554,7956.456Zm0,4.729a1.191,1.191,0,0,1,1.182-1.183h9.456a1.182,1.182,0,0,1,0,2.364h-9.456A1.19,1.19,0,0,1,4999.554,7961.184Zm0,4.728a1.19,1.19,0,0,1,1.182-1.182h9.456a1.182,1.182,0,0,1,0,2.363h-9.456A1.19,1.19,0,0,1,4999.554,7965.912Zm5.91,6.7a1.19,1.19,0,0,1,1.182,1.182v3.546h-2.364v-3.546A1.19,1.19,0,0,1,5005.464,7972.61Z" transform="translate(-4991.279 -7943.848)" fill="#5fa8d3" fill-rule="evenodd"/>
  </g>
</svg>
