<svg id="Group_6" data-name="Group 6" xmlns="http://www.w3.org/2000/svg" xmlns:xlink="http://www.w3.org/1999/xlink" width="17.592" height="17.563" viewBox="0 0 17.592 17.563">
  <defs>
    <clipPath id="clip-path">
      <rect id="Rectangle_4" data-name="Rectangle 4" width="17.592" height="17.563" fill="none"/>
    </clipPath>
  </defs>
  <g id="Group_5" data-name="Group 5" clip-path="url(#clip-path)">
    <path id="Path_28" data-name="Path 28" d="M17.59,6.746q0,3.139,0,6.279a.55.55,0,0,1-.171.415c-.432.425-.862.852-1.294,1.277q-.842.826-1.688,1.648-.517.506-1.029,1.017a.594.594,0,0,1-.44.182H.5c-.332,0-.493-.169-.493-.513Q0,11.668,0,6.285c0-.57,0-1.14,0-1.71a.652.652,0,0,1,.215-.506q.88-.85,1.749-1.71C2.5,1.832,3.027,1.3,3.568.778q.325-.313.646-.629A.484.484,0,0,1,4.579,0q5.978,0,11.955,0h.629a.4.4,0,0,1,.426.425q0,3.16,0,6.32M.821,10.781q0,2.859,0,5.717c0,.242.005.247.243.247h11.38c.2,0,.218-.02.218-.218q0-5.738,0-11.475c0-.17-.011-.18-.177-.18-1.185,0-2.371,0-3.556,0-.121,0-.154.032-.153.153.006.739,0,1.477,0,2.216q0,1.908,0,3.816c0,.183-.008.19-.166.1q-.509-.3-1.013-.618a.136.136,0,0,0-.2.027c-.2.2-.412.386-.607.589-.1.1-.154.081-.242,0-.2-.189-.4-.37-.606-.55-.054-.048-.1-.107-.2-.036-.258.193-.525.374-.792.555-.054.036-.1.124-.168.092s-.03-.124-.03-.189q0-2.975,0-5.95c0-.193,0-.193-.2-.193H1.019c-.2,0-.2,0-.2.193q0,2.859,0,5.717M16.769,7.128q0-2.837,0-5.675c0-.038.021-.093-.018-.112s-.066.033-.1.059c-.266.236-.5.507-.748.757-.779.773-1.541,1.563-2.314,2.342a.436.436,0,0,0-.131.329q0,5.565,0,11.131c0,.043-.022.1.03.124s.091-.024.126-.059q1.526-1.5,3.052-2.995a.328.328,0,0,0,.1-.255q0-2.824,0-5.648M3.288,4.051c.556,0,1.112,0,1.668,0a.317.317,0,0,0,.243-.1c.387-.384.779-.764,1.168-1.147Q7.3,1.887,8.231.962C8.267.927,8.349.9,8.322.844s-.1-.022-.151-.022c-1.112,0-2.224,0-3.337,0a.289.289,0,0,0-.216.086c-.469.438-.91.905-1.376,1.347C2.669,2.8,2.115,3.364,1.552,3.921c-.031.031-.084.06-.059.11s.075.02.114.02H3.288M14.232.821h0c-.556,0-1.112,0-1.668,0a.282.282,0,0,0-.222.08q-.665.687-1.332,1.371-.806.824-1.616,1.645c-.032.032-.084.065-.071.109s.079.025.12.025c1.094,0,2.187,0,3.281,0a.331.331,0,0,0,.255-.1Q14.465,2.443,15.954.94c.027-.027.08-.052.059-.1S15.938.823,15.9.822q-.834,0-1.668,0" transform="translate(0 0)" fill="#8bcdec"/>
  </g>
</svg>
