<svg id="box" xmlns="http://www.w3.org/2000/svg" width="24" height="24" viewBox="0 0 24 24">
  <rect id="vuesax_linear_box" data-name="vuesax/linear/box" width="24" height="24" fill="none"/>
  <g id="vuesax_linear_box-2" data-name="vuesax/linear/box">
    <g id="box-2" data-name="box">
      <g id="Group">
        <g id="Group-2" data-name="Group">
          <path id="Vector" d="M17.6.03,8.83,5.11,0,0" transform="translate(3.17 7.44)" fill="none" stroke="#5fa8d3" stroke-linecap="round" stroke-linejoin="round" stroke-width="2"/>
          <path id="Vector-2" data-name="Vector" d="M0,9.07V0" transform="translate(12 12.54)" fill="none" stroke="#5fa8d3" stroke-linecap="round" stroke-linejoin="round" stroke-width="2"/>
        </g>
        <path id="Vector-3" data-name="Vector" d="M11.69.48l5.34,2.97a4.719,4.719,0,0,1,2.2,3.73v5.65a4.719,4.719,0,0,1-2.2,3.73l-5.34,2.97a4.792,4.792,0,0,1-4.15,0L2.2,16.56A4.719,4.719,0,0,1,0,12.83V7.18A4.719,4.719,0,0,1,2.2,3.45L7.54.48a4.725,4.725,0,0,1,4.15,0Z" transform="translate(2.39 2)" fill="none" stroke="#5fa8d3" stroke-linecap="round" stroke-linejoin="round" stroke-width="2"/>
      </g>
      <path id="Vector-4" data-name="Vector" d="M0,0,9.49,5.48V9.14" transform="translate(7.51 4.1)" fill="none" stroke="#5fa8d3" stroke-linecap="round" stroke-linejoin="round" stroke-width="2"/>
      <path id="Vector-5" data-name="Vector" d="M0,0H24V24H0Z" fill="none" opacity="0"/>
    </g>
  </g>
</svg>
