<svg xmlns="http://www.w3.org/2000/svg" width="361" height="83" viewBox="0 0 361 83">
  <g id="Group_39190" data-name="Group 39190" transform="translate(-35 -119)">
    <g id="Group_36259" data-name="Group 36259" transform="translate(-5 -6)">
      <g id="Group_36257" data-name="Group 36257" transform="translate(40.499 128)">
        <text id="Address" transform="matrix(1, 0, 0, 1, 3.501, 77)" fill="#1b4965" font-size="12" font-family="WorkSans-Medium, Work Sans" font-weight="500" style="isolation: isolate"><tspan x="0" y="0">Address</tspan></text>
        <g id="Group_36228" data-name="Group 36228">
          <rect id="Rectangle_20378" data-name="Rectangle 20378" width="57" height="57" rx="9" transform="translate(-0.499)" fill="#5fa8d3"/>
          <path id="Icon" d="M748,241.6s-7.513-6.678-7.513-11.687a7.513,7.513,0,0,1,15.026,0C755.513,234.922,748,241.6,748,241.6Zm0-9.6a2.4,2.4,0,1,1,2.4-2.4A2.4,2.4,0,0,1,748,232Z" transform="translate(-720.576 -203.5)" fill="none" stroke="#fff" stroke-width="2"/>
        </g>
      </g>
      <g id="Group_36256" data-name="Group 36256" transform="translate(344 125)">
        <text id="payment" transform="matrix(1, 0, 0, 1, 4, 77)" fill="#1b4965" font-size="12" font-family="WorkSans-Medium, Work Sans" font-weight="500" style="isolation: isolate"><tspan x="0" y="0">Payment</tspan></text>
        <g id="Group_36229" data-name="Group 36229">
          <rect id="Rectangle_20379" data-name="Rectangle 20379" width="57" height="57" rx="9" fill="#5fa8d3"/>
          <path id="Icon-2" data-name="Icon" d="M1409.76,531.04h-13.87a1.723,1.723,0,0,0-1.49,1.8c0,1.2.67,2.387,1.49,2.387h15.58c1.17,0,2.13-.245,2.13.933V546.4a2.562,2.562,0,0,1-2.56,2.56h-14.08a2.562,2.562,0,0,1-2.56-2.56V533.44m14.1,7.823-.02.017" transform="translate(-1376.153 -511.5)" fill="none" stroke="#fff" stroke-linejoin="round" stroke-width="2"/>
        </g>
      </g>
      <g id="Group_36258" data-name="Group 36258" transform="translate(192 125)">
        <text id="delivery" transform="matrix(1, 0, 0, 1, 4, 77)" fill="#1b4965" font-size="12" font-family="WorkSans-Medium, Work Sans" font-weight="500" style="isolation: isolate"><tspan x="0" y="0">Delivery</tspan></text>
        <g id="Group_36231" data-name="Group 36231">
          <rect id="Rectangle_20381" data-name="Rectangle 20381" width="57" height="57" rx="9" fill="#5fa8d3"/>
          <path id="Icon-3" data-name="Icon" d="M1397.14,281.029h-.91a1.83,1.83,0,0,1-1.83-1.829v-8.228a1.83,1.83,0,0,1,1.83-1.829h8.23a1.83,1.83,0,0,1,1.83,1.829V279.2a1.83,1.83,0,0,1-1.83,1.829h-.92m4.12,0h-.46a.914.914,0,0,1-.91-.914v-7.772a.913.913,0,0,1,.91-.914h2.3a.932.932,0,0,1,.72.343l3.18,3.978a.911.911,0,0,1,.2.571v3.794a.914.914,0,0,1-.91.914m-12.35,1.828a2.285,2.285,0,1,1,2.29-2.285A2.282,2.282,0,0,1,1400.34,282.857Zm9.6,0a2.285,2.285,0,1,1,2.29-2.285A2.282,2.282,0,0,1,1409.94,282.857Z" transform="translate(-1375.5 -247.643)" fill="none" stroke="#fff" stroke-width="2"/>
        </g>
      </g>
    </g>
    <g id="Group_36275" data-name="Group 36275" transform="translate(-16 -391)">
      <circle id="Ellipse_32" data-name="Ellipse 32" cx="3.5" cy="3.5" r="3.5" transform="translate(113 536)" fill="#5fa8d3"/>
      <circle id="Ellipse_32-2" data-name="Ellipse 32" cx="3.5" cy="3.5" r="3.5" transform="translate(132 536)" fill="#5fa8d3"/>
      <circle id="Ellipse_32-3" data-name="Ellipse 32" cx="3.5" cy="3.5" r="3.5" transform="translate(150 536)" fill="#5fa8d3"/>
      <circle id="Ellipse_32-4" data-name="Ellipse 32" cx="3.5" cy="3.5" r="3.5" transform="translate(169 536)" fill="#5fa8d3"/>
      <circle id="Ellipse_32-5" data-name="Ellipse 32" cx="3.5" cy="3.5" r="3.5" transform="translate(187 536)" fill="#5fa8d3"/>
    </g>
    <g id="Group_36276" data-name="Group 36276" transform="translate(139 -391)">
      <circle id="Ellipse_32-6" data-name="Ellipse 32" cx="3.5" cy="3.5" r="3.5" transform="translate(113 536)" fill="#5fa8d3"/>
      <circle id="Ellipse_32-7" data-name="Ellipse 32" cx="3.5" cy="3.5" r="3.5" transform="translate(132 536)" fill="#5fa8d3"/>
      <circle id="Ellipse_32-8" data-name="Ellipse 32" cx="3.5" cy="3.5" r="3.5" transform="translate(150 536)" fill="#5fa8d3"/>
      <circle id="Ellipse_32-9" data-name="Ellipse 32" cx="3.5" cy="3.5" r="3.5" transform="translate(169 536)" fill="#5fa8d3"/>
      <circle id="Ellipse_32-10" data-name="Ellipse 32" cx="3.5" cy="3.5" r="3.5" transform="translate(187 536)" fill="#5fa8d3"/>
    </g>
  </g>
</svg>
