<svg id="Group_20" data-name="Group 20" xmlns="http://www.w3.org/2000/svg" xmlns:xlink="http://www.w3.org/1999/xlink" width="9.28" height="18.535" viewBox="0 0 9.28 18.535">
  <defs>
    <clipPath id="clip-path">
      <rect id="Rectangle_11" data-name="Rectangle 11" width="9.28" height="18.535" fill="none"/>
    </clipPath>
  </defs>
  <g id="Group_19" data-name="Group 19" clip-path="url(#clip-path)">
    <path id="Path_102" data-name="Path 102" d="M4.691,12.843a2.828,2.828,0,0,0-.147-1.02,2.845,2.845,0,0,0-.667-.974C3.339,10.293,2.8,9.741,2.234,9.208A9.4,9.4,0,0,1,1.2,8.062,5.79,5.79,0,0,1,.046,5.4,3.35,3.35,0,0,1,0,4.724q0-.154,0-.307t.006-.3c.041-.034.026-.08.026-.123a3.587,3.587,0,0,1,.445-1.5A4.594,4.594,0,0,1,3.253.277,6.116,6.116,0,0,1,5.574.019,6.351,6.351,0,0,1,9,1.352c.095.073.185.152.277.229q0,1.024,0,2.048,0,.746,0,1.491c0,.066.023.151-.092.147a.177.177,0,0,1-.1-.064A5.759,5.759,0,0,0,7.132,3.968,3.626,3.626,0,0,0,6.2,3.749C6.188,3.7,6.149,3.7,6.107,3.7H5.344a.113.113,0,0,0-.113.057,1.2,1.2,0,0,0-.937.657A.828.828,0,0,0,4.2,4.72c-.061.013-.055.061-.055.106,0,.134,0,.268,0,.4a.126.126,0,0,0,.055.129,2.22,2.22,0,0,0,.423.887A12.7,12.7,0,0,0,6.005,7.664,11.3,11.3,0,0,1,7.618,9.582a5.092,5.092,0,0,1,.741,1.888,6.468,6.468,0,0,1,.074,1.289c0,.043,0,.082-.059.087H4.841l-.149,0" transform="translate(0 0.001)" fill="#8acdec"/>
    <path id="Path_103" data-name="Path 103" d="M142.439,451.778a2.252,2.252,0,0,1,1.23.268,2.159,2.159,0,0,1,1.124,1.329,2.61,2.61,0,0,1-.254,2.218,2.241,2.241,0,0,1-1.66,1.023,2.889,2.889,0,0,1-1.589-.186,2.232,2.232,0,0,1-1.249-1.352,2.613,2.613,0,0,1-.1-1.379,2.3,2.3,0,0,1,.892-1.437,2.424,2.424,0,0,1,1.609-.484" transform="translate(-135.661 -438.116)" fill="#8acdec"/>
  </g>
</svg>
