<svg xmlns="http://www.w3.org/2000/svg" width="17.541" height="22.349" viewBox="0 0 17.541 22.349">
  <path id="About_Us" data-name="About Us" d="M3.975,2H19.567a.93.93,0,0,1,.689.315,1.135,1.135,0,0,1,.285.761V23.811a.582.582,0,0,1-.059.257.522.522,0,0,1-.163.195.458.458,0,0,1-.227.085.447.447,0,0,1-.237-.045l-8.085-3.983L3.686,24.3a.446.446,0,0,1-.236.045.457.457,0,0,1-.227-.085.521.521,0,0,1-.163-.194A.583.583,0,0,1,3,23.811V3.076a1.135,1.135,0,0,1,.285-.761A.93.93,0,0,1,3.975,2ZM18.592,21.325V4.151H4.949V21.325l6.822-3.36ZM11.771,14.37,8.907,16.032l.547-3.52L7.137,10.019l3.2-.514,1.432-3.2,1.433,3.2,3.2.514-2.316,2.493.546,3.52Z" transform="translate(-3 -2)" fill="#5fa8d3"/>
</svg>
