<svg xmlns="http://www.w3.org/2000/svg" width="38" height="38" viewBox="0 0 38 38">
  <g id="Group_23458" data-name="Group 23458" transform="translate(-377 -835)">
    <rect id="Rectangle_49" data-name="Rectangle 49" width="38" height="38" rx="10" transform="translate(377 835)" fill="#4f5748"/>
    <g id="refresh" transform="translate(384 843.913)">
      <path id="Path_320" data-name="Path 320" d="M89.721,7.63a.528.528,0,0,0-.746,0L87.729,8.876A9.487,9.487,0,0,0,70.217,4.558a.528.528,0,1,0,.895.559A8.436,8.436,0,0,1,86.671,8.8L85.5,7.63a.528.528,0,0,0-.746.746l2.111,2.111a.527.527,0,0,0,.746,0l2.111-2.111A.528.528,0,0,0,89.721,7.63Zm0,0" transform="translate(-66.665 0)" fill="#f3f3f3"/>
      <path id="Path_321" data-name="Path 321" d="M19.485,176.122a.529.529,0,0,0-.728.168A8.436,8.436,0,0,1,3.2,172.605l1.171,1.171a.528.528,0,0,0,.746-.746L3,170.919a.527.527,0,0,0-.746,0L.148,173.03a.528.528,0,0,0,.746.746L2.14,172.53a9.487,9.487,0,0,0,17.512,4.318A.528.528,0,0,0,19.485,176.122Zm0,0" transform="translate(0 -162.234)" fill="#f3f3f3"/>
    </g>
  </g>
</svg>
