<svg xmlns="http://www.w3.org/2000/svg" width="20" height="20" viewBox="0 0 20 20">
  <path id="Icon" d="M1074.32,708.316a1.74,1.74,0,0,1-.36.715,1.762,1.762,0,0,1-.65.472,1.709,1.709,0,0,1-.79.126,1.747,1.747,0,0,1-.77-.246,1.724,1.724,0,0,0-2.37,2.369,1.724,1.724,0,0,1-1.06,2.573,1.723,1.723,0,0,0,0,3.35,1.7,1.7,0,0,1,.71.366,1.636,1.636,0,0,1,.47.65,1.661,1.661,0,0,1,.13.793,1.726,1.726,0,0,1-.25.764,1.725,1.725,0,0,0,2.37,2.37,1.749,1.749,0,0,1,.77-.248,1.723,1.723,0,0,1,.79.126,1.762,1.762,0,0,1,.65.472,1.627,1.627,0,0,1,.36.715,1.73,1.73,0,0,0,3.36,0,1.627,1.627,0,0,1,.36-.715,1.759,1.759,0,0,1,.65-.471,1.709,1.709,0,0,1,.79-.126,1.748,1.748,0,0,1,.77.247,1.725,1.725,0,0,0,2.37-2.37,1.726,1.726,0,0,1-.25-.764,1.663,1.663,0,0,1,.13-.793,1.634,1.634,0,0,1,.47-.649,1.689,1.689,0,0,1,.71-.367,1.723,1.723,0,0,0,0-3.35,1.687,1.687,0,0,1-.71-.366,1.636,1.636,0,0,1-.47-.65,1.659,1.659,0,0,1-.13-.793,1.735,1.735,0,0,1,.25-.764,1.724,1.724,0,0,0-2.37-2.369,1.747,1.747,0,0,1-.77.247,1.71,1.71,0,0,1-.79-.126,1.75,1.75,0,0,1-.65-.472,1.627,1.627,0,0,1-.36-.715h0A1.73,1.73,0,0,0,1074.32,708.316ZM1076,718a2,2,0,1,1,2-2A2,2,0,0,1,1076,718Z" transform="translate(-1066 -706)" fill="none" stroke="#fff" stroke-width="2"/>
</svg>
