<svg xmlns="http://www.w3.org/2000/svg" width="38.77" height="40" viewBox="0 0 38.77 40">
  <path id="setting" d="M45.5,23.179l-1.664-1.37a2.344,2.344,0,0,1,0-3.619l1.664-1.37a3.115,3.115,0,0,0,.72-3.975L42.936,7.154a3.116,3.116,0,0,0-3.8-1.364l-2.018.756A2.344,2.344,0,0,1,33.98,4.737l-.354-2.126A3.115,3.115,0,0,0,30.544,0H23.972A3.115,3.115,0,0,0,20.89,2.611l-.354,2.126A2.344,2.344,0,0,1,17.4,6.547l-2.018-.756a3.116,3.116,0,0,0-3.8,1.364L8.295,12.845a3.115,3.115,0,0,0,.72,3.975l1.664,1.37a2.344,2.344,0,0,1,0,3.619l-1.664,1.37a3.115,3.115,0,0,0-.72,3.975l3.286,5.691a3.115,3.115,0,0,0,3.8,1.364l2.018-.756a2.344,2.344,0,0,1,3.134,1.809l.354,2.126A3.115,3.115,0,0,0,23.972,40h6.571a3.115,3.115,0,0,0,3.082-2.611l.354-2.126a2.344,2.344,0,0,1,3.134-1.809l2.018.756a3.115,3.115,0,0,0,3.8-1.364l3.286-5.691a3.115,3.115,0,0,0-.72-3.975Zm-5.272,8.1-2.018-.756A5.469,5.469,0,0,0,30.9,34.749l-.354,2.126H23.972l-.354-2.126A5.469,5.469,0,0,0,16.3,30.527l-2.018.756L11,25.592l1.664-1.37a5.469,5.469,0,0,0,0-8.444L11,14.408l3.286-5.691,2.018.756a5.469,5.469,0,0,0,7.313-4.222l.354-2.126h6.571L30.9,5.251a5.469,5.469,0,0,0,7.313,4.222l2.018-.756,3.286,5.69h0l-1.664,1.37a5.469,5.469,0,0,0,0,8.444l1.664,1.37ZM27.258,12.292A7.708,7.708,0,1,0,34.966,20,7.717,7.717,0,0,0,27.258,12.292Zm0,12.292A4.583,4.583,0,1,1,31.841,20,4.589,4.589,0,0,1,27.258,24.583Z" transform="translate(-7.873 0)" fill="#4f5748"/>
</svg>
