<svg xmlns="http://www.w3.org/2000/svg" width="28.476" height="21.963" viewBox="0 0 28.476 21.963">
  <g id="share-post" transform="translate(0.25 0.25)">
    <path id="Path_300" data-name="Path 300" d="M9.038,26.194h-1.2a1.909,1.909,0,0,0-.9.308L2.966,29.44V16.428a1.773,1.773,0,0,1,1.763-1.763H22.5a1.773,1.773,0,0,1,1.763,1.763V17.6a1.483,1.483,0,0,0,2.966,0V16.428A4.671,4.671,0,0,0,22.5,11.7H4.729A4.637,4.637,0,0,0,0,16.428V30.784a2.226,2.226,0,0,0,1.343,2.071,2.923,2.923,0,0,0,1.035.308,2.337,2.337,0,0,0,1.343-.448l4.589-3.554H8.9a1.487,1.487,0,0,0,.14-2.966Z" transform="translate(0 -11.699)" fill="#4f5748" stroke="#fff" stroke-width="0.5"/>
    <path id="Path_301" data-name="Path 301" d="M55.737,50.766a1.464,1.464,0,0,0-2.071,2.071l.9.9H45.383A1.4,1.4,0,0,0,43.9,55.215a1.374,1.374,0,0,0,1.483,1.455h9.178l-.9.9a1.437,1.437,0,0,0,0,2.071,1.421,1.421,0,0,0,2.071,0l3.414-3.414a1.437,1.437,0,0,0,0-2.071Z" transform="translate(-31.615 -39.516)" fill="#4f5748" stroke="#fff" stroke-width="0.5"/>
  </g>
</svg>
