<svg xmlns="http://www.w3.org/2000/svg" width="14.176" height="14.176" viewBox="0 0 14.176 14.176">
  <g id="Size_Guide" data-name="Size Guide" transform="translate(-4.083 -4.083)">
    <path id="Path_306" data-name="Path 306" d="M18.992,14.1a.684.684,0,0,0-.684.684v2.564L8.332,7.368H10.9A.684.684,0,1,0,10.9,6H6.472A.472.472,0,0,0,6,6.472V10.9a.684.684,0,1,0,1.368,0V8.332l9.976,9.976H14.78a.684.684,0,1,0,0,1.368H19.2a.472.472,0,0,0,.472-.472V14.78A.684.684,0,0,0,18.992,14.1Z" transform="translate(-1.667 -1.667)" fill="#4f5748" stroke="#4f5748" stroke-width="0.5"/>
  </g>
</svg>
