<svg xmlns="http://www.w3.org/2000/svg" width="13.333" height="20" viewBox="0 0 13.333 20">
  <g id="sort_1_" data-name="sort (1)" transform="translate(-85.334 -0.001)">
    <g id="Group_30" data-name="Group 30" transform="translate(85.334 0.001)">
      <g id="Group_29" data-name="Group 29" transform="translate(0 0)">
        <path id="Path_297" data-name="Path 297" d="M221.424,3.579,218.091.246h0q-.029-.029-.061-.055L218,.168l-.036-.026L217.928.12,217.894.1l-.038-.018L217.82.065l-.037-.014-.04-.014-.038-.01-.041-.01L217.62.011l-.036-.005a.839.839,0,0,0-.164,0l-.036.005-.044.007-.041.01-.038.01-.04.014-.037.014-.036.017L217.109.1l-.034.02-.036.022L217,.168l-.03.022c-.021.017-.041.036-.061.055h0l-3.333,3.333a.833.833,0,1,0,1.179,1.179l1.911-1.911V12.5a.833.833,0,1,0,1.667,0V2.847l1.911,1.911a.833.833,0,1,0,1.178-1.179Z" transform="translate(-208.335 -0.001)" fill="#838f77"/>
        <path id="Path_298" data-name="Path 298" d="M92.244,179.244l-1.911,1.911V171.5a.833.833,0,0,0-1.667,0v9.655l-1.911-1.911a.833.833,0,0,0-1.179,1.179l3.333,3.333h0c.019.019.04.037.061.055l.03.022.036.026.036.022.034.02.038.018.036.017.037.014.04.014.038.01.041.01.044.007.036.005a.839.839,0,0,0,.164,0l.036-.005.044-.007.041-.01.038-.01.04-.014.037-.014.036-.017.038-.018.033-.02.036-.022.036-.026.03-.022q.031-.026.06-.054h0l3.333-3.333a.833.833,0,1,0-1.178-1.178Z" transform="translate(-85.334 -164)" fill="#838f77"/>
      </g>
    </g>
  </g>
</svg>
