<svg id="file-text-line" xmlns="http://www.w3.org/2000/svg" width="24" height="24" viewBox="0 0 24 24">
  <rect id="file-text-line-2" data-name="file-text-line" width="24" height="24" fill="none"/>
  <g id="Group">
    <path id="Vector" d="M0,0H24V24H0Z" fill="none"/>
    <path id="Vector-2" data-name="Vector" d="M18,6V18.993A1,1,0,0,1,17.007,20H.993A.993.993,0,0,1,0,19.008V.992A1,1,0,0,1,1,0H12ZM16,7H11V2H2V18H16ZM5,5H8V7H5ZM5,9h8v2H5Zm0,4h8v2H5Z" transform="translate(3 2)" fill="#5fa8d3"/>
  </g>
</svg>
