<svg id="Group_18" data-name="Group 18" xmlns="http://www.w3.org/2000/svg" xmlns:xlink="http://www.w3.org/1999/xlink" width="20.883" height="21.076" viewBox="0 0 20.883 21.076">
  <defs>
    <clipPath id="clip-path">
      <rect id="Rectangle_10" data-name="Rectangle 10" width="20.883" height="21.076" fill="none"/>
    </clipPath>
  </defs>
  <g id="Group_17" data-name="Group 17" transform="translate(0 0)" clip-path="url(#clip-path)">
    <path id="Path_98" data-name="Path 98" d="M0,19.976c0-.233,0-.466,0-.7,0-.29.112-.4.4-.4H1.717c.149,0,.169-.014.16-.166-.019-.312-.017-.625-.017-.937a.556.556,0,0,1,.086-.314.251.251,0,0,1,.2-.116,12.161,12.161,0,0,1,1.462-.008c.106,0,.149-.026.15-.132,0-.24,0-.481,0-.721,0-.26.1-.442.422-.424.065,0,.13,0,.195,0,.091.007.123-.034.119-.121-.023-.518-.017-1.037-.032-1.555s-.03-1.043-.044-1.565c-.017-.651-.03-1.3-.048-1.954-.016-.575-.041-1.15-.042-1.725,0-.091-.012-.182-.019-.273,0-.062-.032-.1-.1-.1a.622.622,0,0,1-.136-.013.328.328,0,0,1-.313-.375q0-.372,0-.744c0-.1-.029-.151-.144-.149-.389.006-.779-.008-1.168.008-.232.01-.465.013-.7.013-.179,0-.358-.01-.536-.019a.338.338,0,0,1-.27-.228.362.362,0,0,1,.107-.319l1.8-1.357L5.1,3.9,5.1,3.894a10.751,10.751,0,0,0,.911-.678c.312-.223.611-.464.919-.693.678-.5,1.361-1,2.035-1.508Q9.552.574,10.139.14c.24-.177.354-.187.583-.019.307.225.608.457.912.686.364.274.725.553,1.1.82s.711.535,1.067.8l2.055,1.536,1.563,1.167C18,5.569,18.6,6,19.179,6.448c.207.159.42.309.624.471a.285.285,0,0,1,.13.333.288.288,0,0,1-.3.241c-.431.045-.861-.026-1.29,0-.366.022-.73,0-1.1,0-.1,0-.136.028-.134.132.006.286,0,.572,0,.859a.259.259,0,0,1-.22.265,1.106,1.106,0,0,1-.215.023c-.088,0-.114.041-.113.119s0,.145,0,.218c-.008.442-.006.885-.03,1.326-.018.328,0,.656-.02.983-.034.659-.033,1.318-.049,1.977-.014.579-.028,1.158-.047,1.737a7.083,7.083,0,0,1-.037.8c-.014.1.026.141.128.134s.183,0,.275,0a.323.323,0,0,1,.332.331c.018.266,0,.532,0,.8,0,.116.054.15.149.151.141,0,.282-.01.422-.013a8.353,8.353,0,0,1,1.04.016c.181.019.292.165.289.4,0,.309-.014.617-.018.926,0,.21,0,.214.208.213q.653,0,1.305,0a.323.323,0,0,1,.364.366c0,.416,0,.832,0,1.248,0,.072.018.144.013.215-.022.288-.174.35-.415.366-.115.008-.228-.017-.342-.017-.985,0-1.97-.017-2.954,0-1.481.029-2.961.023-4.441.009-1.251-.012-2.5-.023-3.754-.007-1.324.017-2.648.016-3.972.007-.705-.005-1.412-.023-2.116-.007-.778.018-1.556,0-2.334.012a2.084,2.084,0,0,1-.307-.023A.3.3,0,0,1,0,20.732c0-.252,0-.5,0-.756ZM10.294,6.853q3.876,0,7.751,0a1.247,1.247,0,0,0,.4,0c.037-.012.095.02.107-.037s-.041-.07-.073-.094c-.236-.179-.474-.356-.711-.534-.537-.4-1.073-.81-1.612-1.213-.265-.2-.529-.4-.8-.583s-.509-.41-.783-.592c-.176-.116-.34-.255-.511-.383-.231-.174-.458-.354-.7-.514s-.446-.36-.687-.52c-.391-.261-.758-.559-1.134-.842-.34-.256-.681-.512-1.018-.771a.1.1,0,0,0-.142-.008c-.085.064-.176.12-.261.185-.364.275-.725.554-1.09.828q-.9.674-1.8,1.344-.753.562-1.506,1.124L3.657,5.791q-.643.482-1.289.96c-.028.021-.067.035-.049.077s.05.039.088.034a1,1,0,0,1,.136-.009h7.751M9.283,15.4c-.017-.506-.04-1.013-.048-1.519-.009-.587-.032-1.173-.043-1.76-.012-.652-.035-1.3-.051-1.954-.01-.408.017-.816-.022-1.223-.017-.177-.017-.185-.193-.187a.322.322,0,0,1-.361-.366c0-.248,0-.5,0-.744,0-.092-.026-.157-.146-.153-.259.008-.519.006-.779,0-.1,0-.127.039-.126.129,0,.24,0,.481,0,.721,0,.313-.112.43-.425.428-.11,0-.157.057-.141.143a1.481,1.481,0,0,1-.007.306c-.006.3-.006.609-.017.914C6.9,10.753,6.9,11.374,6.874,12c-.012.3,0,.6-.02.9-.023.349-.015.7-.021,1.051-.008.522-.028,1.044-.035,1.567,0,.14-.019.281-.014.422,0,.09.031.156.148.126a.768.768,0,0,1,.183-.005c.277,0,.4.119.4.4,0,.256,0,.511,0,.767,0,.074.024.1.1.1.255.018.51.015.766.015.167,0,.188-.021.189-.193,0-.248,0-.5,0-.744a.313.313,0,0,1,.254-.321,1.444,1.444,0,0,1,.376-.018c.077,0,.111-.04.1-.106a4.041,4.041,0,0,1-.012-.559m4.073-7.365c0-.157,0-.295,0-.432,0-.057-.013-.107-.079-.1-.271.036-.54-.021-.81-.012-.112,0-.148.04-.147.147,0,.263,0,.527,0,.79a.22.22,0,0,1-.068.2.477.477,0,0,1-.314.134c-.157-.01-.187.03-.188.184,0,.53-.021,1.059-.043,1.588-.017.4.007.808-.022,1.212-.021.289-.014.579-.02.868-.014.663-.028,1.326-.05,1.988-.015.457.008.914-.042,1.37a.089.089,0,0,0,.115.1,1.1,1.1,0,0,1,.228-.011.364.364,0,0,1,.4.4c0,.248,0,.5,0,.744,0,.075.023.113.1.119.273.021.547.014.821.009.088,0,.117-.048.115-.139-.007-.248,0-.5,0-.744a.338.338,0,0,1,.313-.379,1.228,1.228,0,0,1,.251-.011c.169,0,.167,0,.169-.173.006-.484-.039-.967-.047-1.45-.006-.389,0-.777-.016-1.166-.022-.548-.028-1.1-.049-1.645-.013-.339-.007-.678-.019-1.017-.02-.541-.007-1.083-.029-1.624-.009-.206,0-.207-.206-.211a.345.345,0,0,1-.353-.294,3.275,3.275,0,0,1-.012-.448m5.42,12.4h0c.435,0,.87,0,1.306,0,.1,0,.152-.029.147-.144-.008-.21-.006-.42,0-.63,0-.108-.03-.146-.142-.145-.695,0-1.389,0-2.084,0-5.386-.012-10.771.026-16.157-.02-.186,0-.372.024-.559.019s-.351,0-.527,0c-.1,0-.125.038-.123.129.005.214.007.428,0,.641,0,.106.044.148.142.145.125,0,.251-.018.376-.018,3.153.011,6.305-.018,9.458.014q1.785.018,3.571-.009c1.125-.016,2.251-.024,3.376.011.4.013.809,0,1.214,0m-8.324-2.449H2.63c-.07,0-.1.026-.114.107a5.816,5.816,0,0,0-.017.628c0,.134.024.157.163.156.324,0,.648-.006.972-.016.411-.012.823,0,1.235.011,1.515.024,3.029-.021,4.544-.014.194,0,.388.017.582.017h7.719c.172,0,.344,0,.515,0,.1,0,.147-.026.142-.136-.008-.179,0-.359,0-.538,0-.219,0-.219-.221-.219h-7.7M5.083,15.244c.039.236.009.472.045.708.012.08.045.111.126.109.229,0,.458,0,.687,0s.219,0,.218-.228c0-.632.025-1.264.042-1.9s.031-1.279.046-1.919c.013-.533.009-1.067.034-1.6.024-.5.018-1,.04-1.507,0-.092-.024-.138-.131-.137q-.549.008-1.1,0c-.1,0-.126.035-.125.132.009.606.016,1.211.041,1.816.026.635.021,1.272.051,1.907.019.392,0,.784.019,1.177.02.479,0,.96,0,1.44M15.239,8.773h-.515c-.15,0-.183.034-.167.182.019.178.025.358.028.535.01.705.023,1.41.046,2.115.019.6.015,1.2.048,1.794.019.335,0,.67.021,1.006.025.479.021.96.029,1.441,0,.057,0,.115,0,.172,0,.026,0,.064.038.051.064-.021.121.023.18.01a3.118,3.118,0,0,1,.582-.02c.219,0,.224-.006.23-.231,0-.027,0-.053,0-.08.011-.27.007-.541.015-.811.015-.533.024-1.066.05-1.6.019-.388,0-.777.021-1.166.025-.533.017-1.067.031-1.6s.048-1.088.044-1.633c0-.147-.016-.163-.165-.163h-.515m-4.79,0H9.934c-.166,0-.181.014-.175.175,0,.114.02.228.02.341,0,.648.024,1.3.042,1.942.016.571.017,1.142.047,1.713.021.388,0,.777.022,1.166.025.518.02,1.037.028,1.555,0,.088,0,.176,0,.263.006.068.02.132.12.13.267-.006.534,0,.8,0a.088.088,0,0,0,.1-.093c.008-.1.021-.2.021-.307,0-.724.015-1.448.042-2.172.022-.59.021-1.181.049-1.771.019-.419,0-.838.02-1.258.017-.365.037-.731.029-1.1a2.549,2.549,0,0,1,.014-.445c.012-.08-.014-.149-.125-.145-.183.005-.366,0-.549,0m-.007-.643c.366,0,.732,0,1.1,0,.117,0,.147-.045.143-.148s0-.229,0-.343c0-.14-.01-.149-.15-.149H9.393a.472.472,0,0,0-.136.015c-.042.012-.069.033-.068.078,0,.141,0,.282,0,.423,0,.082.044.123.14.122.37-.006.74,0,1.11,0M5.658,16.7v0H4.548c-.137,0-.147.01-.149.151,0,.114,0,.229,0,.343s.044.145.142.145h2.2a.138.138,0,0,0,.157-.154q0-.166,0-.332c0-.143-.009-.151-.147-.151H5.658m4.787.637c.37,0,.74,0,1.111,0,.063,0,.121,0,.123-.082,0-.152,0-.305,0-.458,0-.052-.02-.1-.1-.1q-1.133,0-2.267,0c-.068,0-.095.03-.1.093a1.4,1.4,0,0,0,0,.431c.013.085.041.117.129.116.37,0,.74,0,1.111,0M5.65,7.494h0c-.37,0-.74,0-1.11,0-.1,0-.148.037-.143.142.005.122,0,.244,0,.366,0,.091.035.132.129.132q1.11,0,2.221,0c.086,0,.127-.035.126-.123,0-.118,0-.237,0-.355,0-.16.006-.161-.159-.161H5.65m9.841,9.844c.337,0,.6,0,.856,0,.083,0,.127-.027.123-.12-.006-.122,0-.244,0-.366,0-.144-.009-.151-.148-.151H14.1c-.074,0-.109.032-.106.112.005.141,0,.282,0,.423,0,.057.02.084.08.083.095,0,.189,0,.284,0,.4,0,.807.035,1.133.019m.031-9.207c.326,0,.574,0,.822,0,.091,0,.131-.032.126-.128a3.644,3.644,0,0,1,0-.378c.005-.1-.026-.136-.128-.135q-1.126.015-2.253.021c-.078,0-.1.032-.095.1,0,.126,0,.252,0,.378,0,.089.029.123.12.12.5-.015.99.037,1.408.018" transform="translate(0 -0.001)" fill="#8ccdec"/>
    <path id="Path_99" data-name="Path 99" d="M371.9,109.832a2,2,0,1,1-1.943-1.976,1.992,1.992,0,0,1,1.943,1.976m-.641.011a1.354,1.354,0,0,0-1.365-1.352,1.371,1.371,0,0,0-1.357,1.344,1.349,1.349,0,0,0,.1.545,1.149,1.149,0,0,0,.306.447c.132.106.22.265.423.294a3.56,3.56,0,0,0,.545.106,1.356,1.356,0,0,0,1.35-1.385" transform="translate(-359.46 -105.383)" fill="#8ccdec"/>
    <path id="Path_100" data-name="Path 100" d="M412.52,153.1a.977.977,0,0,0,.979.976.985.985,0,1,0-.014-1.969.973.973,0,0,0-.965.993" transform="translate(-403.062 -148.616)" fill="#f7fafb"/>
    <path id="Path_101" data-name="Path 101" d="M412.52,153.1a.973.973,0,0,1,.965-.993.985.985,0,1,1-.965.993" transform="translate(-403.062 -148.616)" fill="#8ccdec"/>
  </g>
</svg>
