<svg xmlns="http://www.w3.org/2000/svg" width="17.49" height="20" viewBox="0 0 17.49 20">
  <g id="g1948" transform="translate(576.977 169.954)">
    <path id="path1950" d="M-567.6-169.954h3.138a.586.586,0,0,1,.586.586,3.812,3.812,0,0,0,3.807,3.807.586.586,0,0,1,.586.586v3.138a.586.586,0,0,1-.586.586,8.062,8.062,0,0,1-3.807-.946v5.695a6.556,6.556,0,0,1-6.548,6.548,6.556,6.556,0,0,1-6.548-6.548,6.556,6.556,0,0,1,6.548-6.548.586.586,0,0,1,.586.586v3.138a.586.586,0,0,1-.586.586,2.241,2.241,0,0,0-2.238,2.238,2.241,2.241,0,0,0,2.238,2.238,2.241,2.241,0,0,0,2.238-2.238v-12.866A.586.586,0,0,1-567.6-169.954Zm2.586,1.172h-2v12.28a3.414,3.414,0,0,1-3.41,3.41,3.414,3.414,0,0,1-3.41-3.41,3.416,3.416,0,0,1,2.824-3.36v-1.985a5.384,5.384,0,0,0-4.79,5.345,5.382,5.382,0,0,0,5.376,5.376,5.382,5.382,0,0,0,5.376-5.376v-6.748a.586.586,0,0,1,.319-.521.586.586,0,0,1,.609.046,6.885,6.885,0,0,0,3.465,1.279v-1.976A4.989,4.989,0,0,1-565.018-168.782Z" fill="#838f77"/>
  </g>
</svg>
