<svg xmlns="http://www.w3.org/2000/svg" width="21.765" height="20" viewBox="0 0 21.765 20">
  <g id="monitor" transform="translate(0 -4.1)">
    <path id="Path_278" data-name="Path 278" d="M17.451,4.1H4.2A4.2,4.2,0,0,0,0,8.327v7.342a4.25,4.25,0,0,0,4.2,4.2H17.56a4.25,4.25,0,0,0,4.2-4.2V8.327A4.35,4.35,0,0,0,17.451,4.1ZM19.39,15.669a1.962,1.962,0,0,1-1.917,1.808H4.2A1.862,1.862,0,0,1,2.4,15.669V8.327A1.862,1.862,0,0,1,4.2,6.518H17.56a1.862,1.862,0,0,1,1.808,1.808v7.342Z" fill="#838f77"/>
    <path id="Path_279" data-name="Path 279" d="M43.307,85.9H41.389a1.089,1.089,0,0,0,0,2.179h1.917a1.089,1.089,0,0,0,0-2.179Z" transform="translate(-31.52 -63.979)" fill="#838f77"/>
  </g>
</svg>
