<svg xmlns="http://www.w3.org/2000/svg" width="22.923" height="20" viewBox="0 0 22.923 20">
  <g id="twitter_8_" data-name="twitter (8)" transform="translate(0.349 -32.949)">
    <g id="Group_62" data-name="Group 62" transform="translate(-0.349 32.949)">
      <path id="Path_312" data-name="Path 312" d="M22.368,36.645a.67.67,0,0,0-.629-.317l-1.12.1,1.071-2.159a.67.67,0,0,0-.895-.9l-2.834,1.388a4.788,4.788,0,0,0-5.444.721,5.8,5.8,0,0,0-1.794,4.659,9.755,9.755,0,0,1-7.706-5.245.67.67,0,0,0-1.128-.08A4.6,4.6,0,0,0,1.6,39.63c-.22-.056-.455-.131-.715-.218a.67.67,0,0,0-.873.744,5.635,5.635,0,0,0,3.2,4.262,5.626,5.626,0,0,1-.7.195.67.67,0,0,0-.353,1.114,9.073,9.073,0,0,0,4.413,2.349c-1.484,1.162-3.085,1.356-5.412,1.276a.67.67,0,0,0-.519,1.12c.97,1.069,4.5,2.275,8.22,2.365q.22.005.45.005c2.609,0,6.056-.559,8.531-3.034A12.071,12.071,0,0,0,21.32,43.4a12.462,12.462,0,0,0,.023-4.2c-.008-.054-.016-.112-.023-.163l1.048-1.689A.67.67,0,0,0,22.368,36.645Zm-2.352,2.748a10.474,10.474,0,0,1-3.126,9.469c-2.284,2.284-5.612,2.695-8,2.636a18.02,18.02,0,0,1-5.184-.884,8.285,8.285,0,0,0,1.466-.308,7.326,7.326,0,0,0,3.308-2.19A.67.67,0,0,0,8.07,47,9.875,9.875,0,0,1,4,45.552a7.211,7.211,0,0,0,1.257-.667.67.67,0,0,0-.2-1.206,4.854,4.854,0,0,1-3.419-2.67,3.6,3.6,0,0,0,1.428-.019A.67.67,0,0,0,3.4,39.87a3.543,3.543,0,0,1-.9-3.26,11.431,11.431,0,0,0,3.347,3.241,11.115,11.115,0,0,0,5.642,1.673.67.67,0,0,0,.67-.815,4.484,4.484,0,0,1,1.262-4.242,3.436,3.436,0,0,1,4.154-.388.67.67,0,0,0,.655.037l1.384-.678-.724,1.46a.67.67,0,0,0,.658.965l.976-.085-.45.725C19.923,38.747,19.954,38.963,20.016,39.393Z" transform="translate(0.227 -33.071)" fill="#838f77"/>
      <path id="Path_312_-_Outline" data-name="Path 312 - Outline" d="M20.968,32.949a.9.9,0,0,1,.8,1.3l-.89,1.795.716-.062c.026,0,.052,0,.078,0a.9.9,0,0,1,.763,1.371l-1,1.619.01.066,0,.014a12.675,12.675,0,0,1-.024,4.274,12.3,12.3,0,0,1-3.545,6.529c-2.563,2.563-6.141,3.1-8.692,3.1-.15,0-.3,0-.455-.006a20.081,20.081,0,0,1-5.2-.825A7.632,7.632,0,0,1,.346,50.5.9.9,0,0,1,1.041,49c.307.011.581.016.837.016a6.933,6.933,0,0,0,4.044-.968,8.934,8.934,0,0,1-4.056-2.29.9.9,0,0,1,.473-1.493l.156-.035A5.794,5.794,0,0,1-.337,40.071a.9.9,0,0,1,1.171-1l.23.076a4.794,4.794,0,0,1,.521-4.6.9.9,0,0,1,.722-.364l.063,0a.894.894,0,0,1,.727.468,9.973,9.973,0,0,0,3.166,3.558,9.3,9.3,0,0,0,4.1,1.539,5.983,5.983,0,0,1,1.881-4.571,5.045,5.045,0,0,1,3.4-1.321,4.949,4.949,0,0,1,2.2.514l2.731-1.338A.9.9,0,0,1,20.968,32.949Zm-.855,3.617,1.251-2.522a.442.442,0,0,0-.59-.593l-2.938,1.439-.1-.054a4.486,4.486,0,0,0-2.087-.514,4.59,4.59,0,0,0-3.1,1.2A5.546,5.546,0,0,0,10.829,40l.019.27-.269-.027A9.779,9.779,0,0,1,6.006,38.6,10.424,10.424,0,0,1,2.7,34.877a.44.44,0,0,0-.358-.231H2.307a.444.444,0,0,0-.356.179A4.378,4.378,0,0,0,1.679,39.4l.231.449-.49-.124c-.22-.056-.452-.129-.731-.223A.442.442,0,0,0,.113,40a5.406,5.406,0,0,0,3.076,4.1l.488.241-.514.179a5.875,5.875,0,0,1-.732.2.442.442,0,0,0-.233.735,8.843,8.843,0,0,0,4.3,2.284l.455.112-.369.289a7.027,7.027,0,0,1-4.708,1.341c-.262,0-.541-.005-.852-.016H1.013a.442.442,0,0,0-.33.739,7.35,7.35,0,0,0,2.978,1.485,19.612,19.612,0,0,0,5.079.806c.149,0,.3.005.444.005,4.465,0,7.016-1.614,8.37-2.967a11.847,11.847,0,0,0,3.419-6.289,12.25,12.25,0,0,0,.021-4.126l0-.014c-.007-.051-.015-.1-.021-.151l-.011-.081,1.091-1.759a.442.442,0,0,0-.376-.675l-.039,0Zm-.119-1.75-1.023,2.062a.442.442,0,0,0,.434.637l1.43-.125-.69,1.112c-.1.165-.087.308-.025.736A10.689,10.689,0,0,1,16.929,48.9a8.816,8.816,0,0,1-3.816,2.186,13.982,13.982,0,0,1-3.928.522c-.14,0-.282,0-.424-.005a18.225,18.225,0,0,1-5.251-.9l.045-.442a8.068,8.068,0,0,0,1.426-.3A7.107,7.107,0,0,0,8.189,47.84a.442.442,0,0,0-.27-.737,10,10,0,0,1-4.171-1.486L3.4,45.378l.39-.159a7.006,7.006,0,0,0,1.217-.646.442.442,0,0,0-.132-.8,5.1,5.1,0,0,1-3.571-2.8l-.164-.386.413.072a3.721,3.721,0,0,0,.648.059,3.16,3.16,0,0,0,.69-.076.442.442,0,0,0,.221-.738,3.79,3.79,0,0,1-.959-3.474l.123-.491.286.418a11.126,11.126,0,0,0,3.28,3.177,10.886,10.886,0,0,0,5.526,1.639h.009a.442.442,0,0,0,.433-.538,4.716,4.716,0,0,1,1.332-4.46,3.708,3.708,0,0,1,2.5-.972,3.575,3.575,0,0,1,1.93.561.442.442,0,0,0,.432.024Zm-2.181,1.474a.9.9,0,0,1-.484-.141,3.12,3.12,0,0,0-1.684-.489,3.252,3.252,0,0,0-2.193.854,4.253,4.253,0,0,0-1.193,4.024.9.9,0,0,1-.9,1.093A11.343,11.343,0,0,1,5.6,39.923a11.49,11.49,0,0,1-3.087-2.85,3.368,3.368,0,0,0,.927,2.518.9.9,0,0,1-.45,1.5,3.616,3.616,0,0,1-.79.087c-.1,0-.2,0-.3-.011a4.814,4.814,0,0,0,3.087,2.171.9.9,0,0,1,.269,1.617,7.533,7.533,0,0,1-.9.514,10.106,10.106,0,0,0,3.62,1.185.9.9,0,0,1,.549,1.5A7.544,7.544,0,0,1,5.117,50.4c-.178.055-.36.1-.546.148a18.168,18.168,0,0,0,4.2.6c.138,0,.276.005.413.005,4.006,0,6.247-1.4,7.422-2.575A10.26,10.26,0,0,0,19.669,39.3a1.384,1.384,0,0,1,.089-1.042l.21-.338-.522.046c-.026,0-.052,0-.078,0a.9.9,0,0,1-.8-1.3l.426-.859-.781.383A.9.9,0,0,1,17.813,36.291Z" transform="translate(0.349 -32.949)" fill="#838f77"/>
    </g>
  </g>
</svg>
