<svg id="profile" xmlns="http://www.w3.org/2000/svg" width="25" height="25" viewBox="0 0 25 25">
  <rect id="user-6-line" width="25" height="25" fill="none"/>
  <g id="Group">
    <path id="Vector" d="M0,0H25V25H0Z" fill="none"/>
    <path id="Vector-2" data-name="Vector" d="M9.106,15.758a11.333,11.333,0,0,1,9.107,4.123l-1.949.915a9.415,9.415,0,0,0-7.158-2.937A9.415,9.415,0,0,0,1.948,20.8L0,19.88A11.33,11.33,0,0,1,9.106,15.758ZM9.106,0a5.31,5.31,0,0,1,3.741,1.538A5.234,5.234,0,0,1,14.4,5.253V8.4a5.233,5.233,0,0,1-1.469,3.632,5.307,5.307,0,0,1-3.592,1.615l-.23.005a5.31,5.31,0,0,1-3.741-1.538A5.234,5.234,0,0,1,3.815,8.4V5.253A5.233,5.233,0,0,1,5.285,1.62,5.307,5.307,0,0,1,8.876.005Zm0,2.1a3.187,3.187,0,0,0-2.178.859,3.142,3.142,0,0,0-.991,2.108l-.005.185V8.4a3.14,3.14,0,0,0,.9,2.2,3.191,3.191,0,0,0,4.423.129,3.142,3.142,0,0,0,1.024-2.142L12.28,8.4V5.253a3.14,3.14,0,0,0-.93-2.228A3.186,3.186,0,0,0,9.106,2.1Z" transform="translate(3.394 2)" fill="#b4b4b4"/>
  </g>
</svg>
