<svg id="Group_16" data-name="Group 16" xmlns="http://www.w3.org/2000/svg" xmlns:xlink="http://www.w3.org/1999/xlink" width="18.249" height="18.158" viewBox="0 0 18.249 18.158">
  <defs>
    <clipPath id="clip-path">
      <rect id="Rectangle_9" data-name="Rectangle 9" width="18.248" height="18.158" fill="none"/>
    </clipPath>
  </defs>
  <g id="Group_15" data-name="Group 15" clip-path="url(#clip-path)">
    <path id="Path_69" data-name="Path 69" d="M17.077,15.16c0,.259.015.519,0,.776a2.3,2.3,0,0,1-.343,1.192,1.888,1.888,0,0,1-.684.576,3.283,3.283,0,0,1-1.169.329c-.432.052-.867.031-1.3.064-.309.024-.618,0-.925.023-.337.024-.675,0-1.011.022-.233.015-.467.02-.7.012-.746-.027-1.493-.027-2.239-.045-.613-.015-1.227-.022-1.84-.043s-1.235-.02-1.852-.009c-.409.008-.819.024-1.227.009a8.894,8.894,0,0,1-1.557-.158,3.8,3.8,0,0,1-.909-.282,1.447,1.447,0,0,1-.71-.854,8.326,8.326,0,0,1-.393-1.677,13.872,13.872,0,0,1-.132-1.529c-.012-.4-.045-.8-.031-1.193q.059-1.658.031-3.316C.075,8.5.038,7.947.011,7.392c-.023-.477,0-.956-.008-1.433A7.027,7.027,0,0,1,.1,4.663,1.637,1.637,0,0,1,1.2,3.326a3.1,3.1,0,0,1,1.022-.171c.32,0,.641-.016.959,0a1.07,1.07,0,0,0,.662-.193C4.43,2.6,5.019,2.249,5.608,1.895,6.285,1.488,6.96,1.079,7.643.683,7.965.5,8.261.268,8.593.1a.606.606,0,0,1,.8.132,3.408,3.408,0,0,1,.459.7c.081.135.088.139.22.061.5-.294.987-.593,1.488-.876.369-.208.617-.13.9.243.188.244.312.53.475.79.255.406.516.807.773,1.212.15.236.3.472.443.711a.157.157,0,0,0,.155.087c.248,0,.5-.008.744,0a2.345,2.345,0,0,1,1.085.256A1.178,1.178,0,0,1,16.652,4a2.372,2.372,0,0,1,.13,1.127c-.036.533-.057,1.067-.05,1.6a.179.179,0,0,0,.046.116,2.124,2.124,0,0,1,.433,1.191,6.093,6.093,0,0,1,.036.88c-.011.208-.01.416-.021.623a.148.148,0,0,0,.127.173,1.061,1.061,0,0,1,.782.714,2.038,2.038,0,0,1,.085.441,7.892,7.892,0,0,1,.016,1.13,7.358,7.358,0,0,1-.079,1.231,1.794,1.794,0,0,1-.293.786.592.592,0,0,1-.434.221,1.514,1.514,0,0,1-.248,0c-.082,0-.106.031-.106.108,0,.273,0,.546,0,.819M10.97,17.749c.6,0,1.2.009,1.8-.02.147-.007.293-.009.44-.016.554-.028,1.109-.048,1.661-.112a2.869,2.869,0,0,0,.989-.263,1.267,1.267,0,0,0,.653-.788,2.609,2.609,0,0,0,.092-.711c.007-.276.022-.551.041-.826.016-.225,0-.452.027-.677.008-.074-.024-.105-.1-.1a1.754,1.754,0,0,1-.237,0,.137.137,0,0,0-.157.1.177.177,0,0,1-.182.123.193.193,0,0,1-.183-.126.139.139,0,0,0-.152-.091c-.262,0-.525,0-.787,0a4.716,4.716,0,0,1-1.379-.174,2.115,2.115,0,0,1-.921-.487,1.812,1.812,0,0,1-.534-1.3,2.871,2.871,0,0,1,.4-1.551,1.853,1.853,0,0,1,.839-.821,2.708,2.708,0,0,1,.977-.172q.563-.033,1.128-.043c.413-.007.825-.037,1.238-.026.039,0,.079,0,.119,0a.079.079,0,0,0,.085-.087c.011-.29.036-.579.037-.869a5.282,5.282,0,0,0-.043-.739A1.68,1.68,0,0,0,16.47,7.1a1.6,1.6,0,0,0-.893-.5,4.981,4.981,0,0,0-.926-.107c-.218-.014-.438-.006-.655-.029-.482-.051-.966-.066-1.448-.074-1.03-.016-2.06-.025-3.09.03-.476.026-.954,0-1.432.021-.362.012-.724.008-1.087-.009s-.723-.017-1.085-.043c-.414-.031-.831-.039-1.247-.045-.639-.01-1.277.008-1.915.032a9.871,9.871,0,0,1-1.01.012A2.246,2.246,0,0,1,.466,6.032C.4,5.984.39,6.013.391,6.076c0,.259,0,.517,0,.776a.1.1,0,0,0,.064.1A2.284,2.284,0,0,1,.7,7.082a.176.176,0,0,1,.023.3.178.178,0,0,1-.2.045c-.1-.038-.128,0-.114.1a1.941,1.941,0,0,1,.02.246c0,.308.029.616.04.923q.022.623.044,1.247c.015.409-.018.817-.033,1.225-.016.437-.032.874-.045,1.311-.013.463.009.925.036,1.387.02.329.051.657.1.982s.129.666.186,1a.446.446,0,0,0,.317.4,1.271,1.271,0,0,0,.188.04.2.2,0,0,1,.161.22.175.175,0,0,1-.19.164c-.032,0-.065,0-.1,0-.076-.005-.092.025-.055.088a1.588,1.588,0,0,0,.253.319,1.731,1.731,0,0,0,.921.43,8.459,8.459,0,0,0,1.762.154c.237,0,.473-.012.71-.015.764-.008,1.528,0,2.292.031.458.021.917.021,1.376.045.419.021.839,0,1.259.021.438.018.877,0,1.315,0M4.023,5.13l.01.029c.132,0,.263.015.394.017.528.007,1.056,0,1.584,0a.236.236,0,0,0,.122-.032c.359-.2.72-.4,1.081-.6.486-.268.97-.539,1.438-.839.269-.172.535-.348.8-.52a.186.186,0,0,1,.262.025c.039.037.075.077.115.114a1.269,1.269,0,0,0,.862.36,2,2,0,0,0,.99-.243c.194-.1.277-.072.386.113.087.148.183.291.279.434.26.392.579.738.871,1.1a.2.2,0,0,0,.174.084c.284-.006.568,0,.851,0a3.707,3.707,0,0,0,.58-.017c.137-.023.142-.03.069-.147q-.61-.981-1.221-1.962c-.278-.447-.571-.885-.824-1.348a4.18,4.18,0,0,0-.73-1.044.451.451,0,0,0-.66-.071c-.2.133-.39.28-.595.405-.422.257-.851.5-1.275.755q-.816.488-1.63.981-.906.547-1.81,1.1-.831.506-1.66,1.014l-.465.286m12.4,4.922c-.363-.012-.781.03-1.2.04-.244.005-.488.016-.731.033-.182.013-.365,0-.546.034a1.474,1.474,0,0,0-.946.5,2.413,2.413,0,0,0-.555,1.6,1.472,1.472,0,0,0,.945,1.366,3.777,3.777,0,0,0,1.363.262c.473.019.946-.008,1.419-.036.308-.018.618-.005.927,0a.457.457,0,0,0,.288-.1.858.858,0,0,0,.295-.486,3.665,3.665,0,0,0,.1-.678,10.494,10.494,0,0,0,.075-1.383,1.6,1.6,0,0,0-.177-.713.778.778,0,0,0-.723-.436h-.532M2.978,5.139c.125-.01.233.019.334-.043.356-.222.714-.439,1.07-.659.506-.313,1.01-.628,1.517-.94q.586-.361,1.175-.716c.411-.248.824-.494,1.236-.741l1.2-.718c.047-.028.068-.052.033-.11a2.367,2.367,0,0,0-.38-.492A.551.551,0,0,0,8.55.582a1.532,1.532,0,0,0-.233.11c-.288.162-.54.378-.824.546-.608.359-1.207.732-1.817,1.088-.551.322-1.095.654-1.64.985q-.86.521-1.717,1.045l-.963.589c-.021.013-.05.025-.048.053s.036.03.059.037a.376.376,0,0,0,.063.014c.52.055,1.044.055,1.546.09m12.636.871c0-.265-.1-.378-.32-.4-.4-.039-.8-.033-1.2-.035-1.613-.007-3.225-.012-4.838.008-1.429.018-2.859.022-4.289-.011-.628-.015-1.255-.012-1.883-.041-.44-.02-.881-.03-1.322-.044A2.988,2.988,0,0,1,.584,5.342c-.016-.007-.035-.015-.05,0s-.008.039,0,.059a.762.762,0,0,0,.235.3,1.527,1.527,0,0,0,.756.308,4.747,4.747,0,0,0,1.063.022c.442-.033.884-.089,1.327-.093.607-.006,1.213-.017,1.82.013.4.02.8.008,1.195.02.707.021,1.414.006,2.122.023.362.009.725-.006,1.087-.012.689-.011,1.379-.024,2.068.012.358.019.717,0,1.076.021.387.023.775.017,1.162.029.121,0,.242.027.363.033a4.664,4.664,0,0,1,.69.094c.086.018.131-.012.117-.107a.361.361,0,0,1,0-.054M6.946,5.162c.044.053.09.037.131.037.488,0,.976-.009,1.464-.013,1.358-.012,2.716-.005,4.074-.007.034,0,.079.018.1-.018s-.023-.062-.044-.089c-.28-.358-.569-.71-.816-1.092-.086-.133-.087-.129-.238-.069a1.675,1.675,0,0,1-.892.133A7.551,7.551,0,0,1,9.575,3.7a.183.183,0,0,0-.17.014c-.171.106-.346.2-.513.316-.5.335-1.022.634-1.551.922l-.394.213m7.66-1.618c-.035.006-.089-.022-.115.02s.019.08.039.115c.074.127.156.249.227.377a.188.188,0,0,0,.191.11,4.071,4.071,0,0,1,.559.025.354.354,0,0,1,.33.25,1.837,1.837,0,0,1,.077.69.488.488,0,0,0,.07.3.463.463,0,0,1,.059.237c.007.183-.011.365-.021.548,0,.039-.01.082.036.1.065.03.13.06.2.086.043.016.07,0,.068-.051a1.129,1.129,0,0,0-.008-.129,1.687,1.687,0,0,1-.006-.4,7.078,7.078,0,0,0,.079-1.185,1.023,1.023,0,0,0-.657-.927,3.564,3.564,0,0,0-1.125-.17m-12.082,0c-.23,0-.436.023-.643.039a1.491,1.491,0,0,0-1.17.664C.7,4.27.667,4.3.682,4.322s.051.005.076,0a5.52,5.52,0,0,1,.995-.207.578.578,0,0,0,.253-.033c.256-.152.51-.306.764-.459.019-.011.036-.028.031-.052s-.039-.026-.062-.026H2.525m13,1.41a.938.938,0,0,0-.037-.271.108.108,0,0,0-.1-.1,2.13,2.13,0,0,0-.223-.026c-.042,0-.089.011-.056.068.1.166.2.33.3.494a.067.067,0,0,0,.074.033c.039-.008.034-.04.035-.068s0-.079,0-.133M1.209,4.569,1.2,4.535a1.054,1.054,0,0,0-.328.072.322.322,0,0,0-.155.09.1.1,0,0,0-.008.12.057.057,0,0,0,.078.009c.143-.084.284-.172.426-.258" transform="translate(0 0)" fill="#8dcdeb"/>
    <path id="Path_70" data-name="Path 70" d="M167,765.174c-.219-.008-.437-.025-.656-.024a.208.208,0,0,1-.222-.212.2.2,0,0,1,.225-.191c.265.005.531.01.8.022.175.008.271.126.231.269a.169.169,0,0,1-.17.136c-.068,0-.136,0-.2,0" transform="translate(-162.533 -748.244)" fill="#8dcdeb"/>
    <path id="Path_71" data-name="Path 71" d="M542.355,327.559c-.14,0-.28,0-.419,0a.2.2,0,0,1-.192-.2.185.185,0,0,1,.192-.185c.283-.006.565-.016.848-.017a.2.2,0,0,1,.2.3.2.2,0,0,1-.2.106c-.143,0-.287,0-.43,0Z" transform="translate(-530.053 -320.094)" fill="#8dcdeb"/>
    <path id="Path_72" data-name="Path 72" d="M494.182,765.294a2.551,2.551,0,0,0,.544-.046.207.207,0,0,1,.257.149.193.193,0,0,1-.173.238,3.049,3.049,0,0,1-.874.047.216.216,0,0,1-.2-.213.161.161,0,0,1,.178-.18l.118.005h.151" transform="translate(-483.08 -748.731)" fill="#8dcdeb"/>
    <path id="Path_73" data-name="Path 73" d="M569.417,765.024c-.215-.01-.429-.025-.645-.022a.164.164,0,0,1-.176-.153.2.2,0,0,1,.133-.229.5.5,0,0,1,.213-.021,5.158,5.158,0,0,0,.57.02.707.707,0,0,1,.117.015c.122.026.176.085.171.184a.215.215,0,0,1-.2.2c-.061.005-.122,0-.183,0" transform="translate(-556.324 -748.095)" fill="#8dcdeb"/>
    <path id="Path_74" data-name="Path 74" d="M142.288,326.585c-.174,0-.243-.048-.253-.159a.2.2,0,0,1,.182-.23q.361-.048.723-.079a.187.187,0,0,1,.213.154.213.213,0,0,1-.17.247c-.161.039-.328.016-.491.045-.077.014-.156.017-.205.022" transform="translate(-138.969 -319.078)" fill="#8dcdeb"/>
    <path id="Path_75" data-name="Path 75" d="M258.586,765.138c-.134-.008-.252-.013-.369-.024a.209.209,0,0,1-.176-.212c0-.117.069-.175.195-.176a5.821,5.821,0,0,0,.7-.016.189.189,0,0,1,.226.133.2.2,0,0,1-.174.258c-.137.022-.277.026-.4.036" transform="translate(-252.472 -748.206)" fill="#8dcdeb"/>
    <path id="Path_76" data-name="Path 76" d="M633.207,327.28c-.075,0-.151,0-.226,0a.188.188,0,0,1-.2-.178.2.2,0,0,1,.159-.21,1.41,1.41,0,0,1,.428-.011l.246.015a.223.223,0,0,1,.214.3c-.025.091-.1.106-.178.106s-.149-.014-.224-.018-.143,0-.215,0Z" transform="translate(-619.12 -319.815)" fill="#8dcdeb"/>
    <path id="Path_77" data-name="Path 77" d="M642.326,763.3c.036,0,.072,0,.107,0a.173.173,0,0,1,.162.2c0,.111-.057.184-.161.186a3.618,3.618,0,0,0-.549.082c-.195.034-.33-.057-.327-.22a.157.157,0,0,1,.142-.173c.208-.03.417-.055.625-.081v.007" transform="translate(-627.714 -746.818)" fill="#8dcdeb"/>
    <path id="Path_78" data-name="Path 78" d="M383.983,329.619a3.9,3.9,0,0,0-.543-.023.2.2,0,0,1-.2-.276.182.182,0,0,1,.221-.125c.193.021.386.008.579.017a.242.242,0,0,1,.234.2c.01.156-.062.216-.291.211" transform="translate(-374.957 -322.089)" fill="#8dcdeb"/>
    <path id="Path_79" data-name="Path 79" d="M64,328.376c-.1.009-.2,0-.233-.106a.211.211,0,0,1,.053-.247.28.28,0,0,1,.149-.055,4.653,4.653,0,0,1,.59-.023c.136,0,.2.06.209.177a.2.2,0,0,1-.19.209c-.192.019-.385.03-.578.045" transform="translate(-62.371 -320.867)" fill="#8dcdeb"/>
    <path id="Path_80" data-name="Path 80" d="M426.233,766.6c.1,0,.2,0,.3,0a.177.177,0,0,1,.192.2.194.194,0,0,1-.2.208c-.187,0-.374.006-.56,0-.205-.007-.294-.165-.194-.331a.168.168,0,0,1,.157-.072c.1-.005.2,0,.3,0" transform="translate(-416.546 -750.059)" fill="#8dcdeb"/>
    <path id="Path_81" data-name="Path 81" d="M304.348,329.6h-.29c-.117,0-.184-.057-.191-.157a.191.191,0,0,1,.171-.23c.211-.008.422-.011.633-.02a.187.187,0,0,1,.206.187.208.208,0,0,1-.206.216c-.054,0-.108,0-.161,0h-.161Z" transform="translate(-297.308 -322.088)" fill="#8dcdeb"/>
    <path id="Path_82" data-name="Path 82" d="M702.266,743.582a.2.2,0,0,1,.184.277.807.807,0,0,1-.7.427.172.172,0,0,1-.171-.151.194.194,0,0,1,.095-.211.3.3,0,0,1,.111-.038.433.433,0,0,0,.3-.192c.046-.062.092-.121.181-.112" transform="translate(-686.439 -727.535)" fill="#8dcdeb"/>
    <path id="Path_83" data-name="Path 83" d="M468.4,328.793a2.361,2.361,0,0,0-.522-.007c-.1.018-.181-.076-.192-.178-.013-.123.027-.172.146-.207a1.879,1.879,0,0,1,.69.008.2.2,0,0,1,.15.219c-.028.116-.075.179-.186.165a.677.677,0,0,0-.086,0" transform="translate(-457.59 -321.283)" fill="#8dcdeb"/>
    <path id="Path_84" data-name="Path 84" d="M344.441,763.507h.169c.126,0,.193.052.2.157.016.135-.038.226-.167.24a5.017,5.017,0,0,1-.566.026.187.187,0,0,1-.193-.2.2.2,0,0,1,.2-.2,2.412,2.412,0,0,1,.355-.023" transform="translate(-336.468 -747.028)" fill="#8dcdeb"/>
    <path id="Path_85" data-name="Path 85" d="M723.161,402.674c0,.082,0,.165,0,.247,0,.133-.047.187-.17.2a.188.188,0,0,1-.212-.168c-.017-.206-.022-.414-.023-.621a.188.188,0,0,1,.18-.169.235.235,0,0,1,.22.223c.005.1,0,.193,0,.29Z" transform="translate(-707.158 -393.483)" fill="#8dcdeb"/>
    <path id="Path_86" data-name="Path 86" d="M706.629,339.495a.168.168,0,0,1-.113.175.176.176,0,0,1-.223-.051c-.107-.156-.219-.308-.334-.458a.167.167,0,0,1,.048-.243.176.176,0,0,1,.258.01,2.307,2.307,0,0,1,.318.4.285.285,0,0,1,.046.163" transform="translate(-690.691 -331.553)" fill="#8dcdeb"/>
    <path id="Path_87" data-name="Path 87" d="M99.835,765.65a2.445,2.445,0,0,1,.415.039.2.2,0,0,1-.019.386,2.364,2.364,0,0,1-.564-.042.176.176,0,0,1-.138-.192.18.18,0,0,1,.168-.189c.046,0,.093,0,.14,0" transform="translate(-97.38 -749.126)" fill="#8dcdeb"/>
    <path id="Path_88" data-name="Path 88" d="M226.416,329.594c-.079,0-.158,0-.236,0a.195.195,0,0,1,0-.389c.146-.005.292-.017.439-.016.166,0,.241.069.241.205a.176.176,0,0,1-.186.2c-.043,0-.086,0-.129,0h-.129Z" transform="translate(-221.121 -322.086)" fill="#8dcdeb"/>
    <path id="Path_89" data-name="Path 89" d="M727.417,684.9c.016-.135.028-.285.052-.432a.217.217,0,0,1,.244-.159.179.179,0,0,1,.151.23c-.021.141-.041.282-.055.423a.206.206,0,0,1-.148.178.2.2,0,0,1-.2-.046c-.064-.046-.035-.118-.045-.193" transform="translate(-711.72 -669.542)" fill="#8dcdeb"/>
    <path id="Path_90" data-name="Path 90" d="M528.619,50.8a.491.491,0,0,1,.28-.516.433.433,0,0,1,.483.111.969.969,0,0,1,.362.661.411.411,0,0,1-.236.423.405.405,0,0,1-.464-.04,1.021,1.021,0,0,1-.425-.639m.714.2a.626.626,0,0,0-.221-.322.067.067,0,0,0-.08,0c-.03.021-.026.048-.016.076a.753.753,0,0,0,.207.319c.022.019.044.041.075.027s.035-.05.034-.1" transform="translate(-517.212 -49.162)" fill="#8dcdeb"/>
    <path id="Path_91" data-name="Path 91" d="M485.668,74.853a.472.472,0,0,1,.285-.415.436.436,0,0,1,.509.115.96.96,0,0,1,.342.637.415.415,0,0,1-.223.431.382.382,0,0,1-.435-.008,1.084,1.084,0,0,1-.471-.677.7.7,0,0,1-.008-.082m.743.329a.687.687,0,0,0-.249-.36c-.049-.031-.117.013-.1.063a.7.7,0,0,0,.243.358c.046.031.1.02.1-.06" transform="translate(-475.188 -72.789)" fill="#8dcdeb"/>
    <path id="Path_92" data-name="Path 92" d="M456.675,102.176a.164.164,0,0,1,.124-.18.191.191,0,0,1,.238.073q.244.377.478.761a.178.178,0,0,1-.066.244.189.189,0,0,1-.261-.031c-.168-.252-.33-.509-.493-.765a.155.155,0,0,1-.02-.1" transform="translate(-446.819 -99.781)" fill="#8dcdeb"/>
    <path id="Path_93" data-name="Path 93" d="M602.449,500.935a1.227,1.227,0,0,1,.782-1.189,1.166,1.166,0,0,1,1.548.5,1.039,1.039,0,0,1,.1.749,1.4,1.4,0,0,1-.537.9,1.078,1.078,0,0,1-.868.216,1.174,1.174,0,0,1-.93-.662,1.158,1.158,0,0,1-.1-.514m2.054-.158a.62.62,0,0,0-.1-.368.8.8,0,0,0-.738-.38,1,1,0,0,0-.8.738.669.669,0,0,0,.061.589.9.9,0,0,0,.875.358.982.982,0,0,0,.695-.938" transform="translate(-589.449 -488.845)" fill="#8dcdeb"/>
    <path id="Path_94" data-name="Path 94" d="M754.022,477.839a.9.9,0,0,1,.714.257.642.642,0,0,1,.133.23,2.156,2.156,0,0,1,.115.673.194.194,0,1,1-.387.026c-.017-.12-.029-.241-.046-.361a.441.441,0,0,0-.494-.438c-.079,0-.158,0-.237,0a.185.185,0,0,1-.192-.165.22.22,0,0,1,.179-.221c.071-.006.143,0,.215,0" transform="translate(-737.365 -467.526)" fill="#8dcdeb"/>
    <path id="Path_95" data-name="Path 95" d="M795.334,553.19a.194.194,0,1,1,.19.193.172.172,0,0,1-.19-.193" transform="translate(-778.169 -541.045)" fill="#8dcdeb"/>
    <path id="Path_96" data-name="Path 96" d="M547.011,69.943c0,.053,0,.087-.034.1s-.053-.008-.075-.027a.753.753,0,0,1-.207-.319c-.01-.028-.015-.056.016-.076a.067.067,0,0,1,.08,0,.625.625,0,0,1,.221.322" transform="translate(-534.89 -68.108)" fill="#fafbfd"/>
    <path id="Path_97" data-name="Path 97" d="M504.241,94.081c-.005.08-.058.091-.1.06a.7.7,0,0,1-.243-.358c-.019-.05.049-.094.1-.063a.687.687,0,0,1,.249.36" transform="translate(-493.017 -91.688)" fill="#fafbfd"/>
  </g>
</svg>
