<svg xmlns="http://www.w3.org/2000/svg" width="21.492" height="21.589" viewBox="0 0 21.492 21.589">
  <path id="whatsapp" d="M717.356,153.544a10.7,10.7,0,0,0-16.843,12.908L698.995,172l5.673-1.488a10.7,10.7,0,0,0,5.114,1.3h0a10.7,10.7,0,0,0,7.57-18.266M709.786,170h0a8.883,8.883,0,0,1-4.527-1.24l-.325-.193-3.366.883.9-3.281-.211-.336A8.895,8.895,0,1,1,709.786,170m4.879-6.659c-.267-.134-1.582-.78-1.827-.87s-.423-.134-.6.134-.691.87-.847,1.048-.312.2-.579.067a7.3,7.3,0,0,1-2.15-1.327,8.056,8.056,0,0,1-1.487-1.852c-.156-.268-.017-.412.117-.546s.267-.312.4-.468a1.827,1.827,0,0,0,.267-.446.492.492,0,0,0-.023-.468c-.067-.134-.6-1.449-.824-1.985s-.438-.451-.6-.459-.334-.009-.512-.009a.982.982,0,0,0-.713.335,3,3,0,0,0-.936,2.23,5.2,5.2,0,0,0,1.092,2.765,11.919,11.919,0,0,0,4.568,4.036,15.507,15.507,0,0,0,1.524.563,3.664,3.664,0,0,0,1.684.106,2.754,2.754,0,0,0,1.8-1.271,2.233,2.233,0,0,0,.156-1.271c-.067-.111-.245-.178-.512-.312" transform="translate(-698.995 -150.407)" fill="#effffa" fill-rule="evenodd"/>
</svg>
