<svg xmlns="http://www.w3.org/2000/svg" width="21.2" height="21.2" viewBox="0 0 21.2 21.2">
  <path id="withdraw_icon" data-name="withdraw icon" d="M86.6,674.4H84.2a1.8,1.8,0,0,1-1.8-1.8v-8.4a1.8,1.8,0,0,1,1.8-1.8H99.8a1.8,1.8,0,0,1,1.8,1.8v8.4a1.8,1.8,0,0,1-1.8,1.8H97.4M92,670.8a2.4,2.4,0,1,1,2.4-2.4A2.4,2.4,0,0,1,92,670.8ZM86,666v4.2M98,666v4.2m-9.4,8.006L92,681.6l3.165-3.165M92,681.6v-6.942" transform="translate(-81.4 -661.4)" fill="none" stroke="#000" stroke-linejoin="round" stroke-width="2"/>
</svg>
